%
M48
M72
T01C0.02400
T02C0.03150
T03C0.03200
T04C0.03937
%
T01
X65200Y27400
X85600Y25000
X92800Y13000
X106600Y21400
X116200Y25000
X92800Y41800
X82000Y64000
X65200Y66400
X89800Y80800
X85000Y89200
X80800Y106600
X74800Y112600
X59200Y92800
X27400Y77800
X25600Y119800
X37000Y120400
X52000Y136000
X82000Y161200
X95800Y169000
X96400Y173800
X106600Y160600
X116800Y140200
X130600Y130000
X133000Y112600
X131200Y103000
X122200Y106600
X112600Y103000
X116200Y82600
X138400Y60400
X137200Y55600
X151000Y45400
X176800Y39400
X193000Y43600
X201400Y39400
X197200Y50800
X193000Y53800
X218200Y60400
X227800Y56800
X205600Y79000
X210400Y85000
X201400Y89200
X197200Y92800
X176800Y85600
X175600Y107800
X203200Y131800
X188800Y134800
X170200Y134800
X147400Y159400
X130600Y168400
X115600Y189400
X88600Y206200
X91600Y215200
X86800Y194800
X82000Y195400
X78400Y191200
X59800Y181600
X64600Y173200
X43000Y175000
X37600Y175000
X25000Y177400
X13000Y190600
X17800Y156400
X11800Y130000
X9400Y119800
X69400Y215800
X88600Y244600
X104800Y237400
X113200Y235000
X146800Y215200
X166000Y215800
X180400Y205600
X189400Y208000
X205000Y222400
X191200Y229600
X167800Y233200
X174400Y249400
X174400Y254200
X180400Y260200
X185200Y257800
X173200Y267400
X167200Y269800
X177400Y275200
X164800Y286600
X160600Y280000
X151600Y284800
X156400Y295000
X146200Y307000
X166600Y307000
X179200Y290200
X194800Y286600
X221200Y277000
X228400Y260800
X228400Y256000
X235000Y260800
X245200Y263800
X259600Y248800
X263200Y252400
X252400Y238600
X245200Y235000
X254800Y226600
X250600Y217600
X232600Y218800
X218200Y218800
X229000Y230200
X231400Y197800
X221800Y198400
X236200Y181600
X241000Y182800
X227200Y178600
X221800Y172600
X218200Y163600
X233800Y166000
X248200Y166600
X251800Y172000
X261400Y165400
X263200Y176800
X270400Y185200
X275200Y184600
X284200Y188200
X274000Y171400
X285400Y160600
X290200Y161200
X304000Y177400
X304600Y187000
X310000Y187000
X322000Y177400
X325000Y169000
X335200Y165400
X344800Y169000
X347200Y161200
X368200Y172000
X380200Y178000
X380200Y184000
X376600Y187600
X366400Y191800
X350200Y194800
X344200Y186400
X344200Y181600
X329800Y187000
X314200Y171400
X315400Y142600
X342400Y132400
X346000Y136000
X365800Y137200
X378400Y135400
X381400Y139600
X371200Y108400
X380800Y98200
X356200Y84400
X343600Y70000
X332800Y73600
X340000Y80800
X336400Y97600
X334000Y107800
X323200Y104200
X317800Y107800
X307600Y101800
X313000Y96400
X316600Y87400
X306400Y77200
X296800Y62200
X300400Y54400
X300400Y39400
X361600Y50200
X295000Y98200
X268600Y129400
X278200Y142600
X286000Y140200
X251200Y129400
X233200Y113200
X225400Y131800
X170800Y170200
X187600Y178000
X185800Y190000
X246400Y198400
X256600Y188800
X271600Y229600
X308800Y267400
X323800Y267400
X324400Y251800
X337000Y252400
X362200Y267400
X355000Y286000
X319600Y304000
X304600Y307600
X299800Y307000
X288400Y287800
X288400Y271000
X346600Y227800
X341800Y220000
X381400Y248200
X236200Y84400
X166600Y21400
X194800Y17800
X168400Y259000
X162400Y262600
X151600Y266200
X73000Y280000
X67000Y268600
T02
X41000Y261000
X41000Y291000
X101000Y291000
X101000Y261000
X28559Y168480
X38500Y158500
X13500Y163500
T03
X21000Y191000
X31000Y191000
X41000Y191000
X51000Y191000
X66000Y186000
X76000Y186000
X91000Y191000
X101000Y191000
X106000Y181000
X116000Y181000
X126000Y181000
X136000Y181000
X146000Y181000
X156000Y181000
X166000Y181000
X161000Y196000
X151000Y196000
X141000Y196000
X131000Y196000
X121000Y196000
X101000Y221000
X91000Y221000
X76000Y206000
X66000Y206000
X51000Y221000
X41000Y221000
X31000Y221000
X21000Y221000
X21000Y236000
X11000Y236000
X36000Y236000
X46000Y236000
X61000Y236000
X71000Y236000
X121000Y241000
X131000Y241000
X141000Y241000
X151000Y241000
X161000Y241000
X171000Y241000
X181000Y241000
X191000Y241000
X201000Y241000
X211000Y241000
X221000Y241000
X231000Y241000
X226000Y211000
X236000Y211000
X246000Y211000
X256000Y211000
X266000Y211000
X276000Y211000
X286000Y211000
X296000Y211000
X306000Y211000
X316000Y211000
X326000Y211000
X336000Y211000
X346000Y211000
X356000Y211000
X366000Y211000
X376000Y211000
X386000Y211000
X376000Y236000
X366000Y236000
X356000Y236000
X346000Y236000
X336000Y236000
X326000Y236000
X316000Y236000
X306000Y236000
X296000Y236000
X286000Y236000
X276000Y236000
X266000Y236000
X216000Y211000
X206000Y211000
X196000Y211000
X181000Y196000
X171000Y196000
X171000Y226000
X181000Y226000
X161000Y226000
X151000Y226000
X141000Y226000
X131000Y226000
X121000Y226000
X86000Y171000
X106000Y151000
X116000Y151000
X126000Y151000
X136000Y151000
X146000Y151000
X156000Y151000
X166000Y151000
X196000Y151000
X206000Y151000
X216000Y151000
X226000Y151000
X236000Y151000
X246000Y151000
X256000Y151000
X266000Y151000
X276000Y151000
X286000Y151000
X296000Y151000
X306000Y151000
X316000Y151000
X326000Y151000
X336000Y151000
X346000Y151000
X356000Y151000
X366000Y151000
X376000Y151000
X386000Y151000
X381000Y121000
X371000Y121000
X361000Y121000
X351000Y121000
X341000Y121000
X331000Y121000
X321000Y121000
X311000Y121000
X301000Y121000
X291000Y121000
X281000Y121000
X271000Y121000
X261000Y121000
X251000Y121000
X241000Y121000
X231000Y121000
X221000Y121000
X211000Y121000
X201000Y121000
X191000Y121000
X181000Y121000
X171000Y121000
X161000Y121000
X151000Y121000
X141000Y121000
X131000Y121000
X121000Y121000
X111000Y121000
X101000Y121000
X91000Y121000
X81000Y121000
X71000Y121000
X46000Y116000
X46000Y106000
X46000Y96000
X46000Y86000
X46000Y76000
X46000Y66000
X46000Y56000
X16000Y56000
X16000Y66000
X16000Y76000
X16000Y86000
X16000Y96000
X16000Y106000
X16000Y116000
X56000Y171000
X121000Y301000
X131000Y301000
X141000Y301000
X151000Y301000
X161000Y301000
X171000Y301000
X181000Y301000
X191000Y301000
X201000Y301000
X211000Y301000
X221000Y301000
X231000Y301000
X266000Y296000
X276000Y296000
X286000Y296000
X296000Y296000
X306000Y296000
X316000Y296000
X326000Y296000
X336000Y296000
X346000Y296000
X356000Y296000
X366000Y296000
X376000Y296000
X371000Y31000
X361000Y31000
X351000Y31000
X341000Y31000
X331000Y31000
X321000Y31000
X311000Y31000
X301000Y31000
X291000Y31000
X281000Y31000
X271000Y31000
X261000Y31000
X251000Y31000
X241000Y31000
X231000Y31000
X221000Y31000
X211000Y31000
X201000Y31000
X191000Y31000
X181000Y31000
X171000Y31000
X161000Y31000
X151000Y31000
X141000Y31000
X131000Y31000
X121000Y31000
X111000Y31000
X101000Y31000
X91000Y31000
X81000Y31000
X71000Y31000
X381000Y31000
T04
X21000Y296000
X11000Y296000
M30
