G75*
%MOIN*%
%OFA0B0*%
%FSLAX25Y25*%
%IPPOS*%
%LPD*%
%AMOC8*
5,1,8,0,0,1.08239X$1,22.5*
%
%ADD10C,0.05200*%
%ADD11C,0.05200*%
%ADD12OC8,0.05200*%
%ADD13C,0.05150*%
%ADD14C,0.05937*%
%ADD15C,0.02400*%
%ADD16C,0.04000*%
%ADD17C,0.01600*%
D10*
X0013400Y0056000D02*
X0018600Y0056000D01*
X0018600Y0066000D02*
X0013400Y0066000D01*
X0013400Y0076000D02*
X0018600Y0076000D01*
X0018600Y0086000D02*
X0013400Y0086000D01*
X0013400Y0096000D02*
X0018600Y0096000D01*
X0018600Y0106000D02*
X0013400Y0106000D01*
X0013400Y0116000D02*
X0018600Y0116000D01*
X0043400Y0116000D02*
X0048600Y0116000D01*
X0048600Y0106000D02*
X0043400Y0106000D01*
X0043400Y0096000D02*
X0048600Y0096000D01*
X0048600Y0086000D02*
X0043400Y0086000D01*
X0043400Y0076000D02*
X0048600Y0076000D01*
X0048600Y0066000D02*
X0043400Y0066000D01*
X0043400Y0056000D02*
X0048600Y0056000D01*
X0071000Y0033600D02*
X0071000Y0028400D01*
X0081000Y0028400D02*
X0081000Y0033600D01*
X0091000Y0033600D02*
X0091000Y0028400D01*
X0101000Y0028400D02*
X0101000Y0033600D01*
X0111000Y0033600D02*
X0111000Y0028400D01*
X0121000Y0028400D02*
X0121000Y0033600D01*
X0131000Y0033600D02*
X0131000Y0028400D01*
X0141000Y0028400D02*
X0141000Y0033600D01*
X0151000Y0033600D02*
X0151000Y0028400D01*
X0161000Y0028400D02*
X0161000Y0033600D01*
X0171000Y0033600D02*
X0171000Y0028400D01*
X0181000Y0028400D02*
X0181000Y0033600D01*
X0191000Y0033600D02*
X0191000Y0028400D01*
X0201000Y0028400D02*
X0201000Y0033600D01*
X0211000Y0033600D02*
X0211000Y0028400D01*
X0221000Y0028400D02*
X0221000Y0033600D01*
X0231000Y0033600D02*
X0231000Y0028400D01*
X0241000Y0028400D02*
X0241000Y0033600D01*
X0251000Y0033600D02*
X0251000Y0028400D01*
X0261000Y0028400D02*
X0261000Y0033600D01*
X0271000Y0033600D02*
X0271000Y0028400D01*
X0281000Y0028400D02*
X0281000Y0033600D01*
X0291000Y0033600D02*
X0291000Y0028400D01*
X0301000Y0028400D02*
X0301000Y0033600D01*
X0311000Y0033600D02*
X0311000Y0028400D01*
X0321000Y0028400D02*
X0321000Y0033600D01*
X0331000Y0033600D02*
X0331000Y0028400D01*
X0341000Y0028400D02*
X0341000Y0033600D01*
X0351000Y0033600D02*
X0351000Y0028400D01*
X0361000Y0028400D02*
X0361000Y0033600D01*
X0371000Y0033600D02*
X0371000Y0028400D01*
X0381000Y0028400D02*
X0381000Y0033600D01*
X0381000Y0118400D02*
X0381000Y0123600D01*
X0371000Y0123600D02*
X0371000Y0118400D01*
X0361000Y0118400D02*
X0361000Y0123600D01*
X0351000Y0123600D02*
X0351000Y0118400D01*
X0341000Y0118400D02*
X0341000Y0123600D01*
X0331000Y0123600D02*
X0331000Y0118400D01*
X0321000Y0118400D02*
X0321000Y0123600D01*
X0311000Y0123600D02*
X0311000Y0118400D01*
X0301000Y0118400D02*
X0301000Y0123600D01*
X0291000Y0123600D02*
X0291000Y0118400D01*
X0281000Y0118400D02*
X0281000Y0123600D01*
X0271000Y0123600D02*
X0271000Y0118400D01*
X0261000Y0118400D02*
X0261000Y0123600D01*
X0251000Y0123600D02*
X0251000Y0118400D01*
X0241000Y0118400D02*
X0241000Y0123600D01*
X0231000Y0123600D02*
X0231000Y0118400D01*
X0221000Y0118400D02*
X0221000Y0123600D01*
X0211000Y0123600D02*
X0211000Y0118400D01*
X0201000Y0118400D02*
X0201000Y0123600D01*
X0191000Y0123600D02*
X0191000Y0118400D01*
X0181000Y0118400D02*
X0181000Y0123600D01*
X0171000Y0123600D02*
X0171000Y0118400D01*
X0161000Y0118400D02*
X0161000Y0123600D01*
X0151000Y0123600D02*
X0151000Y0118400D01*
X0141000Y0118400D02*
X0141000Y0123600D01*
X0131000Y0123600D02*
X0131000Y0118400D01*
X0121000Y0118400D02*
X0121000Y0123600D01*
X0111000Y0123600D02*
X0111000Y0118400D01*
X0101000Y0118400D02*
X0101000Y0123600D01*
X0091000Y0123600D02*
X0091000Y0118400D01*
X0081000Y0118400D02*
X0081000Y0123600D01*
X0071000Y0123600D02*
X0071000Y0118400D01*
X0106000Y0148400D02*
X0106000Y0153600D01*
X0116000Y0153600D02*
X0116000Y0148400D01*
X0126000Y0148400D02*
X0126000Y0153600D01*
X0136000Y0153600D02*
X0136000Y0148400D01*
X0146000Y0148400D02*
X0146000Y0153600D01*
X0156000Y0153600D02*
X0156000Y0148400D01*
X0166000Y0148400D02*
X0166000Y0153600D01*
X0166000Y0178400D02*
X0166000Y0183600D01*
X0156000Y0183600D02*
X0156000Y0178400D01*
X0146000Y0178400D02*
X0146000Y0183600D01*
X0136000Y0183600D02*
X0136000Y0178400D01*
X0126000Y0178400D02*
X0126000Y0183600D01*
X0116000Y0183600D02*
X0116000Y0178400D01*
X0106000Y0178400D02*
X0106000Y0183600D01*
X0121000Y0193400D02*
X0121000Y0198600D01*
X0131000Y0198600D02*
X0131000Y0193400D01*
X0141000Y0193400D02*
X0141000Y0198600D01*
X0151000Y0198600D02*
X0151000Y0193400D01*
X0161000Y0193400D02*
X0161000Y0198600D01*
X0171000Y0198600D02*
X0171000Y0193400D01*
X0181000Y0193400D02*
X0181000Y0198600D01*
X0196000Y0208400D02*
X0196000Y0213600D01*
X0206000Y0213600D02*
X0206000Y0208400D01*
X0216000Y0208400D02*
X0216000Y0213600D01*
X0226000Y0213600D02*
X0226000Y0208400D01*
X0236000Y0208400D02*
X0236000Y0213600D01*
X0246000Y0213600D02*
X0246000Y0208400D01*
X0256000Y0208400D02*
X0256000Y0213600D01*
X0266000Y0213600D02*
X0266000Y0208400D01*
X0276000Y0208400D02*
X0276000Y0213600D01*
X0286000Y0213600D02*
X0286000Y0208400D01*
X0296000Y0208400D02*
X0296000Y0213600D01*
X0306000Y0213600D02*
X0306000Y0208400D01*
X0316000Y0208400D02*
X0316000Y0213600D01*
X0326000Y0213600D02*
X0326000Y0208400D01*
X0336000Y0208400D02*
X0336000Y0213600D01*
X0346000Y0213600D02*
X0346000Y0208400D01*
X0356000Y0208400D02*
X0356000Y0213600D01*
X0366000Y0213600D02*
X0366000Y0208400D01*
X0376000Y0208400D02*
X0376000Y0213600D01*
X0386000Y0213600D02*
X0386000Y0208400D01*
X0376000Y0233400D02*
X0376000Y0238600D01*
X0366000Y0238600D02*
X0366000Y0233400D01*
X0356000Y0233400D02*
X0356000Y0238600D01*
X0346000Y0238600D02*
X0346000Y0233400D01*
X0336000Y0233400D02*
X0336000Y0238600D01*
X0326000Y0238600D02*
X0326000Y0233400D01*
X0316000Y0233400D02*
X0316000Y0238600D01*
X0306000Y0238600D02*
X0306000Y0233400D01*
X0296000Y0233400D02*
X0296000Y0238600D01*
X0286000Y0238600D02*
X0286000Y0233400D01*
X0276000Y0233400D02*
X0276000Y0238600D01*
X0266000Y0238600D02*
X0266000Y0233400D01*
X0231000Y0238400D02*
X0231000Y0243600D01*
X0221000Y0243600D02*
X0221000Y0238400D01*
X0211000Y0238400D02*
X0211000Y0243600D01*
X0201000Y0243600D02*
X0201000Y0238400D01*
X0191000Y0238400D02*
X0191000Y0243600D01*
X0181000Y0243600D02*
X0181000Y0238400D01*
X0171000Y0238400D02*
X0171000Y0243600D01*
X0161000Y0243600D02*
X0161000Y0238400D01*
X0151000Y0238400D02*
X0151000Y0243600D01*
X0141000Y0243600D02*
X0141000Y0238400D01*
X0131000Y0238400D02*
X0131000Y0243600D01*
X0121000Y0243600D02*
X0121000Y0238400D01*
X0121000Y0228600D02*
X0121000Y0223400D01*
X0131000Y0223400D02*
X0131000Y0228600D01*
X0141000Y0228600D02*
X0141000Y0223400D01*
X0151000Y0223400D02*
X0151000Y0228600D01*
X0161000Y0228600D02*
X0161000Y0223400D01*
X0171000Y0223400D02*
X0171000Y0228600D01*
X0181000Y0228600D02*
X0181000Y0223400D01*
X0196000Y0153600D02*
X0196000Y0148400D01*
X0206000Y0148400D02*
X0206000Y0153600D01*
X0216000Y0153600D02*
X0216000Y0148400D01*
X0226000Y0148400D02*
X0226000Y0153600D01*
X0236000Y0153600D02*
X0236000Y0148400D01*
X0246000Y0148400D02*
X0246000Y0153600D01*
X0256000Y0153600D02*
X0256000Y0148400D01*
X0266000Y0148400D02*
X0266000Y0153600D01*
X0276000Y0153600D02*
X0276000Y0148400D01*
X0286000Y0148400D02*
X0286000Y0153600D01*
X0296000Y0153600D02*
X0296000Y0148400D01*
X0306000Y0148400D02*
X0306000Y0153600D01*
X0316000Y0153600D02*
X0316000Y0148400D01*
X0326000Y0148400D02*
X0326000Y0153600D01*
X0336000Y0153600D02*
X0336000Y0148400D01*
X0346000Y0148400D02*
X0346000Y0153600D01*
X0356000Y0153600D02*
X0356000Y0148400D01*
X0366000Y0148400D02*
X0366000Y0153600D01*
X0376000Y0153600D02*
X0376000Y0148400D01*
X0386000Y0148400D02*
X0386000Y0153600D01*
X0376000Y0293400D02*
X0376000Y0298600D01*
X0366000Y0298600D02*
X0366000Y0293400D01*
X0356000Y0293400D02*
X0356000Y0298600D01*
X0346000Y0298600D02*
X0346000Y0293400D01*
X0336000Y0293400D02*
X0336000Y0298600D01*
X0326000Y0298600D02*
X0326000Y0293400D01*
X0316000Y0293400D02*
X0316000Y0298600D01*
X0306000Y0298600D02*
X0306000Y0293400D01*
X0296000Y0293400D02*
X0296000Y0298600D01*
X0286000Y0298600D02*
X0286000Y0293400D01*
X0276000Y0293400D02*
X0276000Y0298600D01*
X0266000Y0298600D02*
X0266000Y0293400D01*
X0231000Y0298400D02*
X0231000Y0303600D01*
X0221000Y0303600D02*
X0221000Y0298400D01*
X0211000Y0298400D02*
X0211000Y0303600D01*
X0201000Y0303600D02*
X0201000Y0298400D01*
X0191000Y0298400D02*
X0191000Y0303600D01*
X0181000Y0303600D02*
X0181000Y0298400D01*
X0171000Y0298400D02*
X0171000Y0303600D01*
X0161000Y0303600D02*
X0161000Y0298400D01*
X0151000Y0298400D02*
X0151000Y0303600D01*
X0141000Y0303600D02*
X0141000Y0298400D01*
X0131000Y0298400D02*
X0131000Y0303600D01*
X0121000Y0303600D02*
X0121000Y0298400D01*
X0088600Y0171000D02*
X0083400Y0171000D01*
X0058600Y0171000D02*
X0053400Y0171000D01*
D11*
X0051000Y0191000D03*
X0041000Y0191000D03*
X0031000Y0191000D03*
X0021000Y0191000D03*
X0021000Y0221000D03*
X0031000Y0221000D03*
X0041000Y0221000D03*
X0051000Y0221000D03*
D12*
X0046000Y0236000D03*
X0036000Y0236000D03*
X0021000Y0236000D03*
X0011000Y0236000D03*
X0061000Y0236000D03*
X0071000Y0236000D03*
X0091000Y0221000D03*
X0101000Y0221000D03*
X0076000Y0206000D03*
X0066000Y0206000D03*
X0066000Y0186000D03*
X0076000Y0186000D03*
X0091000Y0191000D03*
X0101000Y0191000D03*
D13*
X0038500Y0158500D03*
X0028559Y0168480D03*
X0013500Y0163500D03*
D14*
X0011000Y0293031D02*
X0011000Y0298969D01*
X0021000Y0298969D02*
X0021000Y0293031D01*
D15*
X0021400Y0295600D02*
X0021000Y0296000D01*
X0021400Y0295600D02*
X0021400Y0260800D01*
X0045400Y0236800D01*
X0046000Y0236000D01*
X0045400Y0235000D01*
X0036400Y0226000D01*
X0036400Y0219400D01*
X0021400Y0204400D01*
X0021400Y0191200D01*
X0021000Y0191000D01*
X0046000Y0193000D02*
X0046000Y0171400D01*
X0062800Y0154600D01*
X0100000Y0154600D01*
X0083200Y0148000D02*
X0076600Y0148000D01*
X0076000Y0148600D01*
X0046000Y0148600D01*
X0046000Y0116000D01*
X0045400Y0115000D01*
X0038800Y0108400D01*
X0038800Y0101200D01*
X0027400Y0089800D01*
X0027400Y0080800D01*
X0041800Y0061000D02*
X0082600Y0061000D01*
X0082600Y0074800D01*
X0082600Y0061000D02*
X0111400Y0061000D01*
X0116800Y0066400D01*
X0120400Y0066400D01*
X0126400Y0060400D01*
X0126400Y0026200D01*
X0128800Y0023800D01*
X0133000Y0023800D01*
X0136000Y0026800D01*
X0136000Y0035200D01*
X0152800Y0052000D01*
X0179800Y0052000D01*
X0179800Y0083800D01*
X0180400Y0084400D01*
X0180400Y0085600D01*
X0169600Y0100000D02*
X0169000Y0100600D01*
X0169000Y0111400D01*
X0171400Y0113800D01*
X0213400Y0113800D01*
X0220000Y0120400D01*
X0221000Y0121000D01*
X0221200Y0121000D01*
X0221200Y0156400D01*
X0248200Y0183400D01*
X0248200Y0197800D01*
X0254200Y0203800D01*
X0258400Y0203800D01*
X0261400Y0206800D01*
X0261400Y0254800D01*
X0272800Y0266200D01*
X0272800Y0289000D01*
X0266200Y0295600D01*
X0266000Y0296000D01*
X0259600Y0306400D02*
X0231400Y0278200D01*
X0231400Y0241000D01*
X0231000Y0241000D01*
X0280600Y0289600D02*
X0280600Y0301000D01*
X0275200Y0306400D01*
X0259600Y0306400D01*
X0280600Y0289600D02*
X0300400Y0269800D01*
X0322000Y0269800D01*
X0324400Y0272200D01*
X0320200Y0305800D02*
X0375400Y0305800D01*
X0386200Y0295000D01*
X0386200Y0219400D01*
X0202000Y0129400D02*
X0188200Y0143200D01*
X0196000Y0151000D01*
X0188200Y0143200D02*
X0181000Y0136000D01*
X0166000Y0151000D01*
X0181000Y0136000D02*
X0181000Y0121000D01*
X0120400Y0112600D02*
X0110200Y0112600D01*
X0106000Y0116800D01*
X0106000Y0125200D01*
X0083200Y0148000D01*
X0063400Y0171400D02*
X0056800Y0171400D01*
X0056000Y0171000D01*
X0051400Y0175600D01*
X0051400Y0190600D01*
X0051000Y0191000D01*
X0046000Y0193000D02*
X0049000Y0196000D01*
X0062800Y0196000D01*
X0072400Y0205600D01*
X0076000Y0205600D01*
X0076000Y0206000D01*
X0076600Y0187000D02*
X0076000Y0186000D01*
X0076000Y0184000D01*
X0063400Y0171400D01*
X0046000Y0161200D02*
X0046000Y0148600D01*
X0076600Y0187000D02*
X0100600Y0211000D01*
X0100600Y0220600D01*
X0101000Y0221000D01*
X0071000Y0236000D02*
X0066400Y0231400D01*
X0058600Y0231400D01*
X0054400Y0235600D01*
X0046000Y0235600D01*
X0046000Y0236000D01*
X0021400Y0235600D02*
X0021400Y0221200D01*
X0021000Y0221000D01*
X0021400Y0235600D02*
X0021000Y0236000D01*
X0011200Y0245800D01*
X0011200Y0295600D01*
X0011000Y0296000D01*
X0101000Y0191000D02*
X0101200Y0190600D01*
X0101200Y0185800D01*
X0106000Y0181000D01*
X0041800Y0061000D02*
X0037000Y0056200D01*
X0016000Y0056200D01*
X0016000Y0056000D01*
X0179800Y0052000D02*
X0199600Y0052000D01*
X0220600Y0031000D01*
X0221000Y0031000D01*
D16*
X0196000Y0036400D03*
X0192400Y0017200D03*
X0167800Y0047800D03*
X0158200Y0047800D03*
X0175600Y0078400D03*
X0180400Y0085600D03*
X0184000Y0082000D03*
X0203200Y0089200D03*
X0209200Y0100600D03*
X0209200Y0106000D03*
X0220600Y0089200D03*
X0239200Y0095800D03*
X0239200Y0107800D03*
X0246400Y0115000D03*
X0256600Y0101200D03*
X0280000Y0103000D03*
X0281800Y0107800D03*
X0289600Y0099400D03*
X0280600Y0095800D03*
X0278800Y0088600D03*
X0254200Y0077200D03*
X0253600Y0072400D03*
X0245200Y0049600D03*
X0248800Y0040000D03*
X0245200Y0017200D03*
X0273400Y0042400D03*
X0277600Y0047800D03*
X0289000Y0042400D03*
X0293800Y0041800D03*
X0301000Y0067600D03*
X0308800Y0075400D03*
X0314200Y0067600D03*
X0313000Y0087400D03*
X0302800Y0103000D03*
X0299200Y0107800D03*
X0314800Y0104200D03*
X0344200Y0081400D03*
X0339400Y0074800D03*
X0368800Y0092200D03*
X0345400Y0133000D03*
X0355000Y0141400D03*
X0329200Y0138400D03*
X0308800Y0133000D03*
X0308200Y0167200D03*
X0301000Y0169000D03*
X0307000Y0185800D03*
X0312400Y0196600D03*
X0320200Y0204400D03*
X0333400Y0197800D03*
X0341800Y0197800D03*
X0337000Y0189400D03*
X0345400Y0186400D03*
X0360400Y0177400D03*
X0375400Y0192400D03*
X0381400Y0193000D03*
X0379600Y0202000D03*
X0386200Y0219400D03*
X0371800Y0227800D03*
X0344800Y0244000D03*
X0334000Y0258400D03*
X0324400Y0272200D03*
X0319600Y0274000D03*
X0323800Y0277000D03*
X0332200Y0277000D03*
X0342400Y0279400D03*
X0340000Y0286600D03*
X0354400Y0281800D03*
X0359200Y0284200D03*
X0379000Y0258400D03*
X0330400Y0217000D03*
X0326800Y0227800D03*
X0311200Y0217000D03*
X0301000Y0230800D03*
X0294400Y0224200D03*
X0285400Y0244600D03*
X0290200Y0250600D03*
X0285400Y0260800D03*
X0289000Y0268000D03*
X0293200Y0283000D03*
X0277600Y0283000D03*
X0266200Y0280600D03*
X0264400Y0267400D03*
X0250000Y0264400D03*
X0268600Y0252400D03*
X0270400Y0245200D03*
X0254800Y0230800D03*
X0250000Y0230200D03*
X0250000Y0238000D03*
X0233200Y0226600D03*
X0220600Y0218800D03*
X0214000Y0223000D03*
X0190000Y0232000D03*
X0170800Y0211600D03*
X0180400Y0208000D03*
X0189400Y0196000D03*
X0190600Y0191200D03*
X0173200Y0173800D03*
X0186400Y0155800D03*
X0181600Y0145600D03*
X0202000Y0129400D03*
X0173200Y0109600D03*
X0169600Y0100000D03*
X0162400Y0092800D03*
X0147400Y0107800D03*
X0152200Y0129400D03*
X0137200Y0130600D03*
X0131200Y0141400D03*
X0120400Y0137800D03*
X0100000Y0154600D03*
X0106600Y0160000D03*
X0088600Y0176800D03*
X0077800Y0169000D03*
X0066400Y0180400D03*
X0046000Y0161200D03*
X0053200Y0144400D03*
X0065200Y0131200D03*
X0074200Y0144400D03*
X0034000Y0140200D03*
X0034000Y0102400D03*
X0027400Y0080800D03*
X0022600Y0082000D03*
X0064600Y0041800D03*
X0079600Y0056800D03*
X0082600Y0074800D03*
X0086800Y0098200D03*
X0120400Y0112600D03*
X0118600Y0062200D03*
X0122200Y0058600D03*
X0064600Y0017200D03*
X0207400Y0058600D03*
X0278200Y0014200D03*
X0256600Y0133000D03*
X0250600Y0161200D03*
X0245800Y0171400D03*
X0238000Y0186400D03*
X0229600Y0187600D03*
X0226600Y0191800D03*
X0221800Y0190000D03*
X0252400Y0196000D03*
X0257800Y0192400D03*
X0270400Y0181600D03*
X0277600Y0172600D03*
X0279400Y0196600D03*
X0277000Y0201400D03*
X0290800Y0196600D03*
X0298000Y0200200D03*
X0271600Y0223000D03*
X0248200Y0218800D03*
X0217600Y0256000D03*
X0212800Y0254800D03*
X0199600Y0254800D03*
X0188800Y0265600D03*
X0181600Y0263800D03*
X0177400Y0271000D03*
X0184600Y0272200D03*
X0204400Y0275800D03*
X0209800Y0279400D03*
X0214000Y0266800D03*
X0222400Y0274600D03*
X0222400Y0285400D03*
X0232000Y0286600D03*
X0212200Y0292600D03*
X0227200Y0264400D03*
X0261400Y0302200D03*
X0315400Y0285400D03*
X0320200Y0305800D03*
X0325000Y0244000D03*
X0328000Y0167800D03*
X0385600Y0142600D03*
X0203800Y0163000D03*
X0144400Y0171400D03*
X0127000Y0171400D03*
X0111400Y0193000D03*
X0146200Y0220000D03*
X0134200Y0253000D03*
X0145600Y0254200D03*
X0119200Y0256600D03*
X0083200Y0232000D03*
X0026800Y0198400D03*
D17*
X0006400Y0053200D02*
X0031000Y0028600D01*
X0058600Y0028600D01*
X0079000Y0008200D01*
X0266800Y0008200D01*
X0285400Y0026800D01*
X0285400Y0034000D01*
X0289600Y0038200D01*
X0290200Y0038200D01*
X0293800Y0041800D01*
X0292000Y0045400D02*
X0343600Y0045400D01*
X0388000Y0089800D01*
X0388000Y0130000D01*
X0371800Y0146200D01*
X0371800Y0227800D01*
X0370600Y0232000D02*
X0370600Y0272800D01*
X0359200Y0284200D01*
X0354400Y0285400D02*
X0352600Y0285400D01*
X0350800Y0283600D01*
X0350800Y0224800D01*
X0340600Y0214600D01*
X0340600Y0206800D01*
X0337600Y0203800D01*
X0333400Y0203800D01*
X0326200Y0211000D01*
X0326000Y0211000D01*
X0322600Y0216400D02*
X0320200Y0214000D01*
X0320200Y0204400D01*
X0316000Y0198400D02*
X0310600Y0203800D01*
X0293200Y0203800D01*
X0286000Y0211000D01*
X0281800Y0206200D02*
X0281800Y0218200D01*
X0295600Y0232000D01*
X0295600Y0235600D01*
X0296000Y0236000D01*
X0290200Y0239200D02*
X0290200Y0230200D01*
X0276400Y0216400D01*
X0276400Y0211600D01*
X0276000Y0211000D01*
X0276400Y0211000D01*
X0276400Y0208000D01*
X0280600Y0203800D01*
X0280600Y0201400D01*
X0301000Y0181000D01*
X0301000Y0169000D01*
X0304600Y0169000D02*
X0309400Y0173800D01*
X0338200Y0173800D01*
X0361600Y0197200D01*
X0361600Y0223000D01*
X0370600Y0232000D01*
X0360400Y0230800D02*
X0360400Y0275800D01*
X0354400Y0281800D01*
X0354400Y0285400D02*
X0360400Y0291400D01*
X0360400Y0300400D01*
X0358000Y0302800D01*
X0353800Y0302800D01*
X0347200Y0296200D01*
X0346000Y0296200D01*
X0346000Y0296000D01*
X0355600Y0295600D02*
X0355600Y0292000D01*
X0348400Y0284800D01*
X0348400Y0247600D01*
X0344800Y0244000D01*
X0336400Y0236200D02*
X0336000Y0236000D01*
X0336400Y0236200D02*
X0336400Y0255400D01*
X0337600Y0256600D01*
X0337600Y0260200D01*
X0335800Y0262000D01*
X0286600Y0262000D01*
X0285400Y0260800D01*
X0281800Y0259000D02*
X0290200Y0250600D01*
X0285400Y0244600D02*
X0281800Y0241000D01*
X0281800Y0233200D01*
X0271600Y0223000D01*
X0271600Y0217600D02*
X0286000Y0232000D01*
X0286000Y0236000D01*
X0290200Y0239200D02*
X0293800Y0242800D01*
X0298000Y0242800D01*
X0301000Y0239800D01*
X0301000Y0230800D01*
X0306400Y0227800D02*
X0311800Y0233200D01*
X0311800Y0240400D01*
X0329800Y0258400D01*
X0334000Y0258400D01*
X0325600Y0264400D02*
X0283600Y0264400D01*
X0281800Y0262600D01*
X0281800Y0259000D01*
X0277600Y0266800D02*
X0277600Y0283000D01*
X0269800Y0284800D02*
X0265600Y0289000D01*
X0264400Y0289000D01*
X0261400Y0292000D01*
X0261400Y0302200D01*
X0249400Y0309400D02*
X0311200Y0309400D01*
X0324400Y0296200D01*
X0325600Y0296200D01*
X0326000Y0296000D01*
X0336000Y0296000D02*
X0346000Y0286000D01*
X0346000Y0277600D01*
X0341200Y0272800D01*
X0341200Y0232600D01*
X0336400Y0227800D01*
X0336400Y0211000D01*
X0336000Y0211000D01*
X0333400Y0203800D02*
X0333400Y0197800D01*
X0338800Y0193000D02*
X0325000Y0193000D01*
X0311800Y0206200D01*
X0311800Y0215800D01*
X0312100Y0216100D01*
X0311200Y0217000D01*
X0312100Y0216100D02*
X0316000Y0220000D01*
X0316000Y0236000D01*
X0320200Y0239200D02*
X0320200Y0217600D01*
X0316000Y0213400D01*
X0316000Y0211000D01*
X0322600Y0216400D02*
X0322600Y0229000D01*
X0325600Y0232000D01*
X0325600Y0235600D01*
X0326000Y0236000D01*
X0320200Y0239200D02*
X0325000Y0244000D01*
X0326800Y0227800D02*
X0330400Y0224200D01*
X0330400Y0217000D01*
X0351400Y0221800D02*
X0351400Y0207400D01*
X0341800Y0197800D01*
X0338800Y0193000D02*
X0345400Y0186400D01*
X0337000Y0189400D02*
X0322000Y0189400D01*
X0316600Y0194800D01*
X0316000Y0194800D01*
X0316000Y0198400D01*
X0316000Y0194800D02*
X0307000Y0185800D01*
X0312400Y0196600D02*
X0290800Y0196600D01*
X0287800Y0200200D02*
X0281800Y0206200D01*
X0277000Y0201400D02*
X0275800Y0200200D01*
X0275800Y0185200D01*
X0281200Y0179800D01*
X0281200Y0146800D01*
X0295600Y0132400D01*
X0295600Y0104800D01*
X0313000Y0087400D01*
X0314200Y0098200D02*
X0307600Y0098200D01*
X0302800Y0103000D01*
X0299200Y0107800D02*
X0316600Y0107800D01*
X0325600Y0116800D01*
X0325600Y0140200D01*
X0327400Y0142000D01*
X0331000Y0142000D01*
X0350800Y0122200D01*
X0350800Y0121000D01*
X0351000Y0121000D01*
X0353800Y0131200D02*
X0340600Y0144400D01*
X0340600Y0160600D01*
X0329800Y0171400D01*
X0312400Y0171400D01*
X0308200Y0167200D01*
X0304600Y0169000D02*
X0304600Y0165400D01*
X0310600Y0159400D01*
X0310600Y0147400D01*
X0312400Y0145600D01*
X0312400Y0131200D01*
X0311200Y0130000D01*
X0311200Y0121000D01*
X0311000Y0121000D01*
X0308800Y0133000D02*
X0308800Y0139600D01*
X0300400Y0148000D01*
X0300400Y0164200D01*
X0279400Y0185200D01*
X0279400Y0196600D01*
X0271600Y0192400D02*
X0257800Y0192400D01*
X0252400Y0192400D02*
X0260200Y0184600D01*
X0260200Y0148000D01*
X0275200Y0133000D01*
X0275200Y0118000D01*
X0281800Y0111400D01*
X0281800Y0107800D01*
X0285400Y0109600D02*
X0285400Y0133000D01*
X0270400Y0148000D01*
X0270400Y0181600D01*
X0271600Y0185800D02*
X0271600Y0192400D01*
X0271600Y0217600D01*
X0266200Y0211000D02*
X0266000Y0211000D01*
X0266200Y0211000D02*
X0266200Y0227200D01*
X0270400Y0231400D01*
X0270400Y0245200D01*
X0268600Y0252400D02*
X0268600Y0257800D01*
X0277600Y0266800D01*
X0269800Y0267400D02*
X0269800Y0284800D01*
X0266200Y0280600D02*
X0250000Y0264400D01*
X0258400Y0256000D02*
X0269800Y0267400D01*
X0264400Y0267400D02*
X0264400Y0265600D01*
X0229600Y0230800D01*
X0229600Y0217000D01*
X0235600Y0211000D01*
X0236000Y0211000D01*
X0241600Y0215200D02*
X0245200Y0218800D01*
X0248200Y0218800D01*
X0251800Y0222400D02*
X0258400Y0229000D01*
X0258400Y0256000D01*
X0250000Y0238000D02*
X0250000Y0230200D01*
X0251800Y0226600D02*
X0233200Y0226600D01*
X0220600Y0218800D02*
X0220600Y0241000D01*
X0221000Y0241000D01*
X0216400Y0244600D02*
X0216400Y0226000D01*
X0217600Y0224800D01*
X0217600Y0221200D01*
X0211600Y0215200D01*
X0211600Y0206800D01*
X0226600Y0191800D01*
X0224800Y0187600D02*
X0223600Y0186400D01*
X0204400Y0186400D01*
X0187600Y0203200D01*
X0168400Y0203200D01*
X0161200Y0196000D01*
X0161000Y0196000D01*
X0152200Y0196000D02*
X0161800Y0205600D01*
X0178000Y0205600D01*
X0180400Y0208000D01*
X0184000Y0211600D02*
X0176200Y0211600D01*
X0172600Y0208000D01*
X0158200Y0208000D01*
X0146200Y0220000D01*
X0145600Y0212800D02*
X0136600Y0221800D01*
X0136600Y0245200D01*
X0145600Y0254200D01*
X0143800Y0257800D02*
X0139000Y0253000D01*
X0134200Y0253000D01*
X0136000Y0260200D02*
X0126400Y0250600D01*
X0126400Y0192400D01*
X0121600Y0187600D01*
X0121600Y0176800D01*
X0127000Y0171400D01*
X0120400Y0167800D02*
X0111400Y0176800D01*
X0111400Y0193000D01*
X0120400Y0196600D02*
X0121000Y0196000D01*
X0120400Y0196600D02*
X0090400Y0196600D01*
X0086800Y0193000D01*
X0086800Y0190600D01*
X0077800Y0181600D01*
X0077800Y0169000D01*
X0088600Y0176800D02*
X0089800Y0176800D01*
X0106600Y0160000D01*
X0110200Y0167800D02*
X0091000Y0187000D01*
X0091000Y0191000D01*
X0071800Y0195400D02*
X0071800Y0185800D01*
X0066400Y0180400D01*
X0071800Y0195400D02*
X0096400Y0220000D01*
X0096400Y0227800D01*
X0136000Y0267400D01*
X0179800Y0267400D01*
X0184600Y0272200D01*
X0177400Y0271000D02*
X0177400Y0288400D01*
X0185200Y0296200D01*
X0185200Y0305800D01*
X0182800Y0308200D01*
X0168400Y0308200D01*
X0161200Y0301000D01*
X0161000Y0301000D01*
X0169600Y0301000D02*
X0142000Y0273400D01*
X0124600Y0273400D01*
X0083200Y0232000D01*
X0085000Y0228400D02*
X0127600Y0271000D01*
X0151000Y0271000D01*
X0181000Y0301000D01*
X0188800Y0299200D02*
X0190600Y0301000D01*
X0191000Y0301000D01*
X0188800Y0299200D02*
X0188800Y0265600D01*
X0188800Y0260200D02*
X0196600Y0268000D01*
X0196600Y0305200D01*
X0199600Y0308200D01*
X0203800Y0308200D01*
X0211000Y0301000D01*
X0212200Y0292600D02*
X0220600Y0301000D01*
X0221000Y0301000D01*
X0225400Y0305200D02*
X0225400Y0296800D01*
X0222400Y0293800D01*
X0222400Y0285400D01*
X0226000Y0286000D02*
X0249400Y0309400D01*
X0232000Y0286600D02*
X0228400Y0283000D01*
X0228400Y0271600D01*
X0225400Y0268600D01*
X0221200Y0268600D01*
X0206800Y0254200D01*
X0206800Y0238000D01*
X0187600Y0218800D01*
X0179800Y0218800D01*
X0172600Y0211600D01*
X0170800Y0211600D01*
X0184000Y0211600D02*
X0195400Y0223000D01*
X0201400Y0223000D01*
X0201400Y0206800D01*
X0218200Y0190000D01*
X0221800Y0190000D01*
X0224800Y0187600D02*
X0229600Y0187600D01*
X0235600Y0184000D02*
X0238000Y0186400D01*
X0235600Y0184000D02*
X0203200Y0184000D01*
X0191200Y0196000D01*
X0189400Y0196000D01*
X0190600Y0191200D02*
X0173200Y0173800D01*
X0157000Y0170200D02*
X0146200Y0181000D01*
X0146000Y0181000D01*
X0140800Y0187000D02*
X0145600Y0191800D01*
X0145600Y0212800D01*
X0141000Y0196000D02*
X0140800Y0196000D01*
X0131800Y0187000D01*
X0131800Y0146200D01*
X0137200Y0140800D01*
X0137200Y0130600D01*
X0145600Y0124600D02*
X0145600Y0116800D01*
X0142600Y0113800D01*
X0129400Y0113800D01*
X0125200Y0118000D01*
X0125200Y0143200D01*
X0120400Y0148000D01*
X0120400Y0167800D01*
X0110200Y0167800D02*
X0110200Y0148000D01*
X0120400Y0137800D01*
X0131200Y0141400D02*
X0131200Y0121000D01*
X0131000Y0121000D01*
X0140800Y0121000D02*
X0141000Y0121000D01*
X0140800Y0121000D02*
X0140800Y0187000D01*
X0151000Y0196000D02*
X0152200Y0196000D01*
X0144400Y0171400D02*
X0160600Y0155200D01*
X0160600Y0147400D01*
X0166000Y0142000D01*
X0166000Y0091000D01*
X0164200Y0089200D01*
X0160600Y0089200D01*
X0151000Y0098800D01*
X0151000Y0121000D01*
X0156400Y0116800D02*
X0156400Y0151000D01*
X0156000Y0151000D01*
X0157000Y0170200D02*
X0227200Y0170200D01*
X0241600Y0184600D01*
X0241600Y0215200D01*
X0251800Y0222400D02*
X0251800Y0208000D01*
X0244600Y0200800D01*
X0244600Y0184000D01*
X0228400Y0167800D01*
X0200200Y0167800D01*
X0188200Y0155800D01*
X0186400Y0155800D01*
X0181600Y0145600D02*
X0199000Y0163000D01*
X0203800Y0163000D01*
X0235600Y0142000D02*
X0241600Y0148000D01*
X0241600Y0161800D01*
X0245800Y0166000D01*
X0245800Y0171400D01*
X0250600Y0161200D02*
X0250600Y0147400D01*
X0265600Y0132400D01*
X0265600Y0117400D01*
X0280000Y0103000D01*
X0280600Y0095800D02*
X0239200Y0095800D01*
X0235600Y0090400D02*
X0235600Y0142000D01*
X0256600Y0133000D02*
X0256600Y0101200D01*
X0246400Y0115000D02*
X0239200Y0107800D01*
X0235600Y0090400D02*
X0248500Y0077500D01*
X0251800Y0080800D01*
X0256000Y0080800D01*
X0261400Y0075400D01*
X0308800Y0075400D01*
X0312400Y0071200D02*
X0341200Y0071200D01*
X0347800Y0077800D01*
X0347800Y0088600D01*
X0370600Y0088600D01*
X0380800Y0098800D01*
X0380800Y0121000D01*
X0381000Y0121000D01*
X0385600Y0125200D02*
X0385600Y0100000D01*
X0353200Y0067600D01*
X0314200Y0067600D01*
X0312400Y0071200D02*
X0276400Y0035200D01*
X0276400Y0027400D01*
X0259600Y0010600D01*
X0082600Y0010600D01*
X0062200Y0031000D01*
X0032200Y0031000D01*
X0008800Y0054400D01*
X0008800Y0164800D01*
X0025600Y0181600D01*
X0025600Y0191800D01*
X0038800Y0205000D01*
X0052000Y0205000D01*
X0070000Y0223000D01*
X0083200Y0223000D01*
X0116800Y0256600D01*
X0119200Y0256600D01*
X0121000Y0248800D02*
X0136000Y0263800D01*
X0181600Y0263800D01*
X0188800Y0260200D02*
X0136000Y0260200D01*
X0143800Y0257800D02*
X0190000Y0257800D01*
X0200800Y0268600D01*
X0200800Y0301000D01*
X0201000Y0301000D01*
X0220000Y0310600D02*
X0160600Y0310600D01*
X0151000Y0301000D01*
X0169600Y0301000D02*
X0171000Y0301000D01*
X0204400Y0275800D02*
X0210400Y0275800D01*
X0211600Y0274600D01*
X0222400Y0274600D01*
X0221800Y0279400D02*
X0226000Y0283600D01*
X0226000Y0286000D01*
X0221800Y0279400D02*
X0209800Y0279400D01*
X0214000Y0266800D02*
X0204400Y0257200D01*
X0204400Y0254200D01*
X0201400Y0251200D01*
X0181600Y0251200D01*
X0171400Y0241000D01*
X0171000Y0241000D01*
X0181000Y0241000D02*
X0190000Y0232000D01*
X0201400Y0223000D02*
X0214000Y0223000D01*
X0216400Y0244600D02*
X0212800Y0248200D01*
X0212800Y0254800D01*
X0217600Y0256000D02*
X0218800Y0256000D01*
X0227200Y0264400D01*
X0199600Y0254800D02*
X0155200Y0254800D01*
X0141400Y0241000D01*
X0141000Y0241000D01*
X0121000Y0241000D02*
X0121000Y0248800D01*
X0091000Y0221000D02*
X0091000Y0220600D01*
X0074200Y0220600D01*
X0056200Y0202600D01*
X0046600Y0202600D01*
X0036400Y0192400D01*
X0036400Y0188800D01*
X0023800Y0176200D01*
X0023800Y0085000D01*
X0022600Y0083800D01*
X0022600Y0082000D01*
X0028000Y0076000D02*
X0016000Y0076000D01*
X0028000Y0076000D02*
X0032200Y0080200D01*
X0082600Y0080200D01*
X0086800Y0076000D01*
X0115000Y0076000D01*
X0130600Y0060400D01*
X0130600Y0031000D01*
X0131000Y0031000D01*
X0141000Y0031000D02*
X0141400Y0031000D01*
X0158200Y0047800D01*
X0167800Y0047800D02*
X0151000Y0031000D01*
X0160600Y0031000D02*
X0161000Y0031000D01*
X0160600Y0031000D02*
X0150400Y0020800D01*
X0127600Y0020800D01*
X0121000Y0027400D01*
X0121000Y0031000D01*
X0116800Y0034000D02*
X0116800Y0026200D01*
X0124600Y0018400D01*
X0177400Y0018400D01*
X0186400Y0027400D01*
X0186400Y0035200D01*
X0191200Y0040000D01*
X0200800Y0040000D01*
X0206800Y0034000D01*
X0206800Y0026200D01*
X0209200Y0023800D01*
X0232600Y0023800D01*
X0236800Y0028000D01*
X0236800Y0035800D01*
X0241000Y0040000D01*
X0248800Y0040000D01*
X0251200Y0037000D02*
X0252400Y0038200D01*
X0252400Y0068200D01*
X0211000Y0109600D01*
X0173200Y0109600D01*
X0162400Y0110800D02*
X0156400Y0116800D01*
X0162400Y0110800D02*
X0162400Y0092800D01*
X0167200Y0086800D02*
X0181000Y0100600D01*
X0209200Y0100600D01*
X0209200Y0106000D02*
X0245200Y0070000D01*
X0245200Y0049600D01*
X0251200Y0037000D02*
X0251200Y0031000D01*
X0251000Y0031000D01*
X0256600Y0028000D02*
X0256600Y0035200D01*
X0269200Y0047800D01*
X0277600Y0047800D01*
X0273400Y0042400D02*
X0266800Y0035800D01*
X0266800Y0028000D01*
X0252400Y0013600D01*
X0125800Y0013600D01*
X0111400Y0028000D01*
X0111400Y0031000D01*
X0111000Y0031000D01*
X0116800Y0034000D02*
X0112600Y0038200D01*
X0109600Y0038200D01*
X0106600Y0035200D01*
X0106600Y0028000D01*
X0102400Y0023800D01*
X0088600Y0023800D01*
X0081400Y0031000D01*
X0081000Y0031000D01*
X0091000Y0031000D02*
X0091000Y0034600D01*
X0118600Y0062200D01*
X0122200Y0058600D02*
X0101200Y0037600D01*
X0101200Y0031000D01*
X0101000Y0031000D01*
X0079600Y0056800D02*
X0064600Y0041800D01*
X0064600Y0017200D02*
X0076000Y0005800D01*
X0268000Y0005800D01*
X0276400Y0014200D01*
X0278200Y0014200D01*
X0256600Y0028000D02*
X0250000Y0021400D01*
X0202000Y0021400D01*
X0196000Y0027400D01*
X0196000Y0036400D01*
X0192400Y0017200D02*
X0245200Y0017200D01*
X0231000Y0031000D02*
X0229600Y0031000D01*
X0184000Y0076600D01*
X0184000Y0082000D01*
X0175600Y0078400D02*
X0094000Y0078400D01*
X0061600Y0110800D01*
X0061600Y0133000D01*
X0063400Y0134800D01*
X0067000Y0134800D01*
X0080800Y0121000D01*
X0081000Y0121000D01*
X0086800Y0124000D02*
X0086800Y0098200D01*
X0092800Y0086800D02*
X0167200Y0086800D01*
X0168400Y0084400D02*
X0091600Y0084400D01*
X0065200Y0110800D01*
X0065200Y0131200D01*
X0074200Y0136600D02*
X0086800Y0124000D01*
X0091000Y0121000D02*
X0092200Y0121000D01*
X0105400Y0107800D01*
X0147400Y0107800D01*
X0145600Y0124600D02*
X0150400Y0129400D01*
X0152200Y0129400D01*
X0173200Y0089200D02*
X0168400Y0084400D01*
X0173200Y0089200D02*
X0203200Y0089200D01*
X0207400Y0076000D02*
X0220600Y0089200D01*
X0207400Y0076000D02*
X0207400Y0058600D01*
X0248500Y0077500D02*
X0253600Y0072400D01*
X0254200Y0077200D02*
X0263800Y0067600D01*
X0301000Y0067600D01*
X0320200Y0074800D02*
X0285400Y0109600D01*
X0289600Y0099400D02*
X0278800Y0088600D01*
X0314200Y0098200D02*
X0314800Y0098800D01*
X0332200Y0098800D01*
X0344200Y0086800D01*
X0344200Y0081400D01*
X0346000Y0088600D02*
X0330400Y0104200D01*
X0314800Y0104200D01*
X0335200Y0118000D02*
X0335200Y0132400D01*
X0329200Y0138400D01*
X0330400Y0148000D02*
X0330400Y0165400D01*
X0328000Y0167800D01*
X0330400Y0148000D02*
X0345400Y0133000D01*
X0353800Y0131200D02*
X0360400Y0131200D01*
X0370600Y0121000D01*
X0371000Y0121000D01*
X0377200Y0133600D02*
X0357400Y0133600D01*
X0351400Y0139600D01*
X0351400Y0173800D01*
X0365800Y0188200D01*
X0365800Y0211000D01*
X0366000Y0211000D01*
X0379600Y0205600D02*
X0379600Y0202000D01*
X0379600Y0205600D02*
X0380200Y0206200D01*
X0380200Y0258400D01*
X0379000Y0258400D01*
X0380200Y0258400D02*
X0380200Y0281800D01*
X0366000Y0296000D01*
X0356000Y0296000D02*
X0355600Y0295600D01*
X0340000Y0286600D02*
X0340000Y0284800D01*
X0332200Y0277000D01*
X0328000Y0283600D02*
X0328000Y0270400D01*
X0324400Y0266800D01*
X0295600Y0266800D01*
X0294400Y0268000D01*
X0289000Y0268000D01*
X0293200Y0283000D02*
X0310600Y0283000D01*
X0319600Y0274000D01*
X0323800Y0277000D02*
X0323800Y0282400D01*
X0317200Y0289000D01*
X0304000Y0289000D01*
X0297400Y0295600D01*
X0296200Y0295600D01*
X0296000Y0296000D01*
X0286000Y0296000D02*
X0286000Y0295600D01*
X0296200Y0285400D01*
X0315400Y0285400D01*
X0316000Y0295600D02*
X0316000Y0296000D01*
X0316000Y0295600D02*
X0328000Y0283600D01*
X0340600Y0279400D02*
X0325600Y0264400D01*
X0340600Y0279400D02*
X0342400Y0279400D01*
X0360400Y0230800D02*
X0351400Y0221800D01*
X0385600Y0211000D02*
X0385600Y0202600D01*
X0375400Y0192400D01*
X0381400Y0193000D02*
X0381400Y0146800D01*
X0385600Y0142600D01*
X0377200Y0133600D02*
X0385600Y0125200D01*
X0360400Y0146800D02*
X0355000Y0141400D01*
X0360400Y0146800D02*
X0360400Y0177400D01*
X0385600Y0211000D02*
X0386000Y0211000D01*
X0306400Y0211000D02*
X0306000Y0211000D01*
X0306400Y0211000D02*
X0306400Y0227800D01*
X0294400Y0224200D02*
X0294400Y0212200D01*
X0295600Y0211000D01*
X0296000Y0211000D01*
X0298000Y0200200D02*
X0287800Y0200200D01*
X0271600Y0185800D02*
X0277600Y0179800D01*
X0277600Y0172600D01*
X0252400Y0192400D02*
X0252400Y0196000D01*
X0251800Y0226600D02*
X0254800Y0229600D01*
X0254800Y0230800D01*
X0225400Y0305200D02*
X0220000Y0310600D01*
X0131000Y0301000D02*
X0130600Y0301000D01*
X0123400Y0308200D01*
X0013600Y0308200D01*
X0006400Y0301000D01*
X0006400Y0053200D01*
X0046000Y0086000D02*
X0046000Y0087400D01*
X0053200Y0094600D01*
X0053200Y0144400D01*
X0061600Y0151600D02*
X0041200Y0172000D01*
X0041200Y0190600D01*
X0041000Y0191000D01*
X0028600Y0198400D02*
X0046600Y0216400D01*
X0059800Y0216400D01*
X0071800Y0228400D01*
X0085000Y0228400D01*
X0028600Y0198400D02*
X0026800Y0198400D01*
X0061600Y0151600D02*
X0077200Y0151600D01*
X0077800Y0151000D01*
X0106000Y0151000D01*
X0074200Y0144400D02*
X0074200Y0136600D01*
X0071200Y0121000D02*
X0071000Y0121000D01*
X0071200Y0121000D02*
X0071200Y0108400D01*
X0092800Y0086800D01*
X0034000Y0102400D02*
X0034000Y0140200D01*
X0289000Y0042400D02*
X0292000Y0045400D01*
X0320200Y0074800D02*
X0339400Y0074800D01*
X0346000Y0088600D02*
X0347800Y0088600D01*
X0361000Y0092200D02*
X0335200Y0118000D01*
X0361000Y0092200D02*
X0368800Y0092200D01*
M02*
