G75*
%MOIN*%
%OFA0B0*%
%FSLAX25Y25*%
%IPPOS*%
%LPD*%
%AMOC8*
5,1,8,0,0,1.08239X$1,22.5*
%
%ADD10C,0.06000*%
%ADD11C,0.06000*%
%ADD12OC8,0.06000*%
%ADD13C,0.05950*%
%ADD14C,0.06737*%
%ADD15R,0.05524X0.12611*%
%ADD16C,0.04800*%
D10*
X0013400Y0056000D02*
X0018600Y0056000D01*
X0018600Y0066000D02*
X0013400Y0066000D01*
X0013400Y0076000D02*
X0018600Y0076000D01*
X0018600Y0086000D02*
X0013400Y0086000D01*
X0013400Y0096000D02*
X0018600Y0096000D01*
X0018600Y0106000D02*
X0013400Y0106000D01*
X0013400Y0116000D02*
X0018600Y0116000D01*
X0043400Y0116000D02*
X0048600Y0116000D01*
X0048600Y0106000D02*
X0043400Y0106000D01*
X0043400Y0096000D02*
X0048600Y0096000D01*
X0048600Y0086000D02*
X0043400Y0086000D01*
X0043400Y0076000D02*
X0048600Y0076000D01*
X0048600Y0066000D02*
X0043400Y0066000D01*
X0043400Y0056000D02*
X0048600Y0056000D01*
X0071000Y0033600D02*
X0071000Y0028400D01*
X0081000Y0028400D02*
X0081000Y0033600D01*
X0091000Y0033600D02*
X0091000Y0028400D01*
X0101000Y0028400D02*
X0101000Y0033600D01*
X0111000Y0033600D02*
X0111000Y0028400D01*
X0121000Y0028400D02*
X0121000Y0033600D01*
X0131000Y0033600D02*
X0131000Y0028400D01*
X0141000Y0028400D02*
X0141000Y0033600D01*
X0151000Y0033600D02*
X0151000Y0028400D01*
X0161000Y0028400D02*
X0161000Y0033600D01*
X0171000Y0033600D02*
X0171000Y0028400D01*
X0181000Y0028400D02*
X0181000Y0033600D01*
X0191000Y0033600D02*
X0191000Y0028400D01*
X0201000Y0028400D02*
X0201000Y0033600D01*
X0211000Y0033600D02*
X0211000Y0028400D01*
X0221000Y0028400D02*
X0221000Y0033600D01*
X0231000Y0033600D02*
X0231000Y0028400D01*
X0241000Y0028400D02*
X0241000Y0033600D01*
X0251000Y0033600D02*
X0251000Y0028400D01*
X0261000Y0028400D02*
X0261000Y0033600D01*
X0271000Y0033600D02*
X0271000Y0028400D01*
X0281000Y0028400D02*
X0281000Y0033600D01*
X0291000Y0033600D02*
X0291000Y0028400D01*
X0301000Y0028400D02*
X0301000Y0033600D01*
X0311000Y0033600D02*
X0311000Y0028400D01*
X0321000Y0028400D02*
X0321000Y0033600D01*
X0331000Y0033600D02*
X0331000Y0028400D01*
X0341000Y0028400D02*
X0341000Y0033600D01*
X0351000Y0033600D02*
X0351000Y0028400D01*
X0361000Y0028400D02*
X0361000Y0033600D01*
X0371000Y0033600D02*
X0371000Y0028400D01*
X0381000Y0028400D02*
X0381000Y0033600D01*
X0381000Y0118400D02*
X0381000Y0123600D01*
X0371000Y0123600D02*
X0371000Y0118400D01*
X0361000Y0118400D02*
X0361000Y0123600D01*
X0351000Y0123600D02*
X0351000Y0118400D01*
X0341000Y0118400D02*
X0341000Y0123600D01*
X0331000Y0123600D02*
X0331000Y0118400D01*
X0321000Y0118400D02*
X0321000Y0123600D01*
X0311000Y0123600D02*
X0311000Y0118400D01*
X0301000Y0118400D02*
X0301000Y0123600D01*
X0291000Y0123600D02*
X0291000Y0118400D01*
X0281000Y0118400D02*
X0281000Y0123600D01*
X0271000Y0123600D02*
X0271000Y0118400D01*
X0261000Y0118400D02*
X0261000Y0123600D01*
X0251000Y0123600D02*
X0251000Y0118400D01*
X0241000Y0118400D02*
X0241000Y0123600D01*
X0231000Y0123600D02*
X0231000Y0118400D01*
X0221000Y0118400D02*
X0221000Y0123600D01*
X0211000Y0123600D02*
X0211000Y0118400D01*
X0201000Y0118400D02*
X0201000Y0123600D01*
X0191000Y0123600D02*
X0191000Y0118400D01*
X0181000Y0118400D02*
X0181000Y0123600D01*
X0171000Y0123600D02*
X0171000Y0118400D01*
X0161000Y0118400D02*
X0161000Y0123600D01*
X0151000Y0123600D02*
X0151000Y0118400D01*
X0141000Y0118400D02*
X0141000Y0123600D01*
X0131000Y0123600D02*
X0131000Y0118400D01*
X0121000Y0118400D02*
X0121000Y0123600D01*
X0111000Y0123600D02*
X0111000Y0118400D01*
X0101000Y0118400D02*
X0101000Y0123600D01*
X0091000Y0123600D02*
X0091000Y0118400D01*
X0081000Y0118400D02*
X0081000Y0123600D01*
X0071000Y0123600D02*
X0071000Y0118400D01*
X0106000Y0148400D02*
X0106000Y0153600D01*
X0116000Y0153600D02*
X0116000Y0148400D01*
X0126000Y0148400D02*
X0126000Y0153600D01*
X0136000Y0153600D02*
X0136000Y0148400D01*
X0146000Y0148400D02*
X0146000Y0153600D01*
X0156000Y0153600D02*
X0156000Y0148400D01*
X0166000Y0148400D02*
X0166000Y0153600D01*
X0166000Y0178400D02*
X0166000Y0183600D01*
X0156000Y0183600D02*
X0156000Y0178400D01*
X0146000Y0178400D02*
X0146000Y0183600D01*
X0136000Y0183600D02*
X0136000Y0178400D01*
X0126000Y0178400D02*
X0126000Y0183600D01*
X0116000Y0183600D02*
X0116000Y0178400D01*
X0106000Y0178400D02*
X0106000Y0183600D01*
X0121000Y0193400D02*
X0121000Y0198600D01*
X0131000Y0198600D02*
X0131000Y0193400D01*
X0141000Y0193400D02*
X0141000Y0198600D01*
X0151000Y0198600D02*
X0151000Y0193400D01*
X0161000Y0193400D02*
X0161000Y0198600D01*
X0171000Y0198600D02*
X0171000Y0193400D01*
X0181000Y0193400D02*
X0181000Y0198600D01*
X0196000Y0208400D02*
X0196000Y0213600D01*
X0206000Y0213600D02*
X0206000Y0208400D01*
X0216000Y0208400D02*
X0216000Y0213600D01*
X0226000Y0213600D02*
X0226000Y0208400D01*
X0236000Y0208400D02*
X0236000Y0213600D01*
X0246000Y0213600D02*
X0246000Y0208400D01*
X0256000Y0208400D02*
X0256000Y0213600D01*
X0266000Y0213600D02*
X0266000Y0208400D01*
X0276000Y0208400D02*
X0276000Y0213600D01*
X0286000Y0213600D02*
X0286000Y0208400D01*
X0296000Y0208400D02*
X0296000Y0213600D01*
X0306000Y0213600D02*
X0306000Y0208400D01*
X0316000Y0208400D02*
X0316000Y0213600D01*
X0326000Y0213600D02*
X0326000Y0208400D01*
X0336000Y0208400D02*
X0336000Y0213600D01*
X0346000Y0213600D02*
X0346000Y0208400D01*
X0356000Y0208400D02*
X0356000Y0213600D01*
X0366000Y0213600D02*
X0366000Y0208400D01*
X0376000Y0208400D02*
X0376000Y0213600D01*
X0386000Y0213600D02*
X0386000Y0208400D01*
X0376000Y0233400D02*
X0376000Y0238600D01*
X0366000Y0238600D02*
X0366000Y0233400D01*
X0356000Y0233400D02*
X0356000Y0238600D01*
X0346000Y0238600D02*
X0346000Y0233400D01*
X0336000Y0233400D02*
X0336000Y0238600D01*
X0326000Y0238600D02*
X0326000Y0233400D01*
X0316000Y0233400D02*
X0316000Y0238600D01*
X0306000Y0238600D02*
X0306000Y0233400D01*
X0296000Y0233400D02*
X0296000Y0238600D01*
X0286000Y0238600D02*
X0286000Y0233400D01*
X0276000Y0233400D02*
X0276000Y0238600D01*
X0266000Y0238600D02*
X0266000Y0233400D01*
X0231000Y0238400D02*
X0231000Y0243600D01*
X0221000Y0243600D02*
X0221000Y0238400D01*
X0211000Y0238400D02*
X0211000Y0243600D01*
X0201000Y0243600D02*
X0201000Y0238400D01*
X0191000Y0238400D02*
X0191000Y0243600D01*
X0181000Y0243600D02*
X0181000Y0238400D01*
X0171000Y0238400D02*
X0171000Y0243600D01*
X0161000Y0243600D02*
X0161000Y0238400D01*
X0151000Y0238400D02*
X0151000Y0243600D01*
X0141000Y0243600D02*
X0141000Y0238400D01*
X0131000Y0238400D02*
X0131000Y0243600D01*
X0121000Y0243600D02*
X0121000Y0238400D01*
X0121000Y0228600D02*
X0121000Y0223400D01*
X0131000Y0223400D02*
X0131000Y0228600D01*
X0141000Y0228600D02*
X0141000Y0223400D01*
X0151000Y0223400D02*
X0151000Y0228600D01*
X0161000Y0228600D02*
X0161000Y0223400D01*
X0171000Y0223400D02*
X0171000Y0228600D01*
X0181000Y0228600D02*
X0181000Y0223400D01*
X0196000Y0153600D02*
X0196000Y0148400D01*
X0206000Y0148400D02*
X0206000Y0153600D01*
X0216000Y0153600D02*
X0216000Y0148400D01*
X0226000Y0148400D02*
X0226000Y0153600D01*
X0236000Y0153600D02*
X0236000Y0148400D01*
X0246000Y0148400D02*
X0246000Y0153600D01*
X0256000Y0153600D02*
X0256000Y0148400D01*
X0266000Y0148400D02*
X0266000Y0153600D01*
X0276000Y0153600D02*
X0276000Y0148400D01*
X0286000Y0148400D02*
X0286000Y0153600D01*
X0296000Y0153600D02*
X0296000Y0148400D01*
X0306000Y0148400D02*
X0306000Y0153600D01*
X0316000Y0153600D02*
X0316000Y0148400D01*
X0326000Y0148400D02*
X0326000Y0153600D01*
X0336000Y0153600D02*
X0336000Y0148400D01*
X0346000Y0148400D02*
X0346000Y0153600D01*
X0356000Y0153600D02*
X0356000Y0148400D01*
X0366000Y0148400D02*
X0366000Y0153600D01*
X0376000Y0153600D02*
X0376000Y0148400D01*
X0386000Y0148400D02*
X0386000Y0153600D01*
X0376000Y0293400D02*
X0376000Y0298600D01*
X0366000Y0298600D02*
X0366000Y0293400D01*
X0356000Y0293400D02*
X0356000Y0298600D01*
X0346000Y0298600D02*
X0346000Y0293400D01*
X0336000Y0293400D02*
X0336000Y0298600D01*
X0326000Y0298600D02*
X0326000Y0293400D01*
X0316000Y0293400D02*
X0316000Y0298600D01*
X0306000Y0298600D02*
X0306000Y0293400D01*
X0296000Y0293400D02*
X0296000Y0298600D01*
X0286000Y0298600D02*
X0286000Y0293400D01*
X0276000Y0293400D02*
X0276000Y0298600D01*
X0266000Y0298600D02*
X0266000Y0293400D01*
X0231000Y0298400D02*
X0231000Y0303600D01*
X0221000Y0303600D02*
X0221000Y0298400D01*
X0211000Y0298400D02*
X0211000Y0303600D01*
X0201000Y0303600D02*
X0201000Y0298400D01*
X0191000Y0298400D02*
X0191000Y0303600D01*
X0181000Y0303600D02*
X0181000Y0298400D01*
X0171000Y0298400D02*
X0171000Y0303600D01*
X0161000Y0303600D02*
X0161000Y0298400D01*
X0151000Y0298400D02*
X0151000Y0303600D01*
X0141000Y0303600D02*
X0141000Y0298400D01*
X0131000Y0298400D02*
X0131000Y0303600D01*
X0121000Y0303600D02*
X0121000Y0298400D01*
X0088600Y0171000D02*
X0083400Y0171000D01*
X0058600Y0171000D02*
X0053400Y0171000D01*
D11*
X0051000Y0191000D03*
X0041000Y0191000D03*
X0031000Y0191000D03*
X0021000Y0191000D03*
X0021000Y0221000D03*
X0031000Y0221000D03*
X0041000Y0221000D03*
X0051000Y0221000D03*
D12*
X0046000Y0236000D03*
X0036000Y0236000D03*
X0021000Y0236000D03*
X0011000Y0236000D03*
X0061000Y0236000D03*
X0071000Y0236000D03*
X0091000Y0221000D03*
X0101000Y0221000D03*
X0076000Y0206000D03*
X0066000Y0206000D03*
X0066000Y0186000D03*
X0076000Y0186000D03*
X0091000Y0191000D03*
X0101000Y0191000D03*
D13*
X0038500Y0158500D03*
X0028559Y0168480D03*
X0013500Y0163500D03*
D14*
X0011000Y0293031D02*
X0011000Y0298969D01*
X0021000Y0298969D02*
X0021000Y0293031D01*
D15*
X0061000Y0298323D03*
X0081000Y0298323D03*
X0081000Y0263677D03*
X0061000Y0263677D03*
D16*
X0083200Y0232000D03*
X0119200Y0256600D03*
X0134200Y0253000D03*
X0145600Y0254200D03*
X0177400Y0271000D03*
X0184600Y0272200D03*
X0188800Y0265600D03*
X0181600Y0263800D03*
X0199600Y0254800D03*
X0212800Y0254800D03*
X0217600Y0256000D03*
X0227200Y0264400D03*
X0222400Y0274600D03*
X0214000Y0266800D03*
X0204400Y0275800D03*
X0209800Y0279400D03*
X0222400Y0285400D03*
X0232000Y0286600D03*
X0212200Y0292600D03*
X0250000Y0264400D03*
X0264400Y0267400D03*
X0266200Y0280600D03*
X0277600Y0283000D03*
X0293200Y0283000D03*
X0289000Y0268000D03*
X0285400Y0260800D03*
X0290200Y0250600D03*
X0285400Y0244600D03*
X0270400Y0245200D03*
X0268600Y0252400D03*
X0250000Y0238000D03*
X0250000Y0230200D03*
X0254800Y0230800D03*
X0248200Y0218800D03*
X0233200Y0226600D03*
X0220600Y0218800D03*
X0214000Y0223000D03*
X0190000Y0232000D03*
X0170800Y0211600D03*
X0180400Y0208000D03*
X0189400Y0196000D03*
X0190600Y0191200D03*
X0173200Y0173800D03*
X0186400Y0155800D03*
X0181600Y0145600D03*
X0202000Y0129400D03*
X0209200Y0106000D03*
X0209200Y0100600D03*
X0203200Y0089200D03*
X0220600Y0089200D03*
X0239200Y0095800D03*
X0239200Y0107800D03*
X0246400Y0115000D03*
X0256600Y0101200D03*
X0280000Y0103000D03*
X0281800Y0107800D03*
X0289600Y0099400D03*
X0280600Y0095800D03*
X0278800Y0088600D03*
X0254200Y0077200D03*
X0253600Y0072400D03*
X0245200Y0049600D03*
X0248800Y0040000D03*
X0245200Y0017200D03*
X0273400Y0042400D03*
X0277600Y0047800D03*
X0289000Y0042400D03*
X0293800Y0041800D03*
X0301000Y0067600D03*
X0308800Y0075400D03*
X0314200Y0067600D03*
X0313000Y0087400D03*
X0302800Y0103000D03*
X0299200Y0107800D03*
X0314800Y0104200D03*
X0344200Y0081400D03*
X0339400Y0074800D03*
X0368800Y0092200D03*
X0345400Y0133000D03*
X0355000Y0141400D03*
X0329200Y0138400D03*
X0308800Y0133000D03*
X0308200Y0167200D03*
X0301000Y0169000D03*
X0307000Y0185800D03*
X0312400Y0196600D03*
X0320200Y0204400D03*
X0333400Y0197800D03*
X0341800Y0197800D03*
X0337000Y0189400D03*
X0345400Y0186400D03*
X0360400Y0177400D03*
X0375400Y0192400D03*
X0381400Y0193000D03*
X0379600Y0202000D03*
X0386200Y0219400D03*
X0371800Y0227800D03*
X0344800Y0244000D03*
X0334000Y0258400D03*
X0324400Y0272200D03*
X0319600Y0274000D03*
X0323800Y0277000D03*
X0332200Y0277000D03*
X0342400Y0279400D03*
X0340000Y0286600D03*
X0354400Y0281800D03*
X0359200Y0284200D03*
X0379000Y0258400D03*
X0330400Y0217000D03*
X0326800Y0227800D03*
X0311200Y0217000D03*
X0301000Y0230800D03*
X0294400Y0224200D03*
X0271600Y0223000D03*
X0277000Y0201400D03*
X0279400Y0196600D03*
X0290800Y0196600D03*
X0298000Y0200200D03*
X0270400Y0181600D03*
X0277600Y0172600D03*
X0257800Y0192400D03*
X0252400Y0196000D03*
X0238000Y0186400D03*
X0229600Y0187600D03*
X0226600Y0191800D03*
X0221800Y0190000D03*
X0245800Y0171400D03*
X0250600Y0161200D03*
X0256600Y0133000D03*
X0203800Y0163000D03*
X0152200Y0129400D03*
X0137200Y0130600D03*
X0131200Y0141400D03*
X0120400Y0137800D03*
X0100000Y0154600D03*
X0106600Y0160000D03*
X0088600Y0176800D03*
X0077800Y0169000D03*
X0066400Y0180400D03*
X0046000Y0161200D03*
X0053200Y0144400D03*
X0065200Y0131200D03*
X0074200Y0144400D03*
X0034000Y0140200D03*
X0034000Y0102400D03*
X0027400Y0080800D03*
X0022600Y0082000D03*
X0064600Y0041800D03*
X0079600Y0056800D03*
X0082600Y0074800D03*
X0086800Y0098200D03*
X0120400Y0112600D03*
X0147400Y0107800D03*
X0162400Y0092800D03*
X0169600Y0100000D03*
X0173200Y0109600D03*
X0180400Y0085600D03*
X0184000Y0082000D03*
X0175600Y0078400D03*
X0207400Y0058600D03*
X0196000Y0036400D03*
X0192400Y0017200D03*
X0167800Y0047800D03*
X0158200Y0047800D03*
X0122200Y0058600D03*
X0118600Y0062200D03*
X0064600Y0017200D03*
X0127000Y0171400D03*
X0144400Y0171400D03*
X0111400Y0193000D03*
X0146200Y0220000D03*
X0026800Y0198400D03*
X0261400Y0302200D03*
X0315400Y0285400D03*
X0320200Y0305800D03*
X0325000Y0244000D03*
X0328000Y0167800D03*
X0385600Y0142600D03*
X0278200Y0014200D03*
M02*
