G75*
%MOIN*%
%OFA0B0*%
%FSLAX25Y25*%
%IPPOS*%
%LPD*%
%AMOC8*
5,1,8,0,0,1.08239X$1,22.5*
%
%ADD10C,0.05200*%
%ADD11C,0.05200*%
%ADD12OC8,0.05200*%
%ADD13C,0.05150*%
%ADD14C,0.05937*%
%ADD15R,0.05150X0.05150*%
%ADD16C,0.02400*%
%ADD17C,0.04000*%
%ADD18C,0.01600*%
D10*
X0013400Y0056000D02*
X0018600Y0056000D01*
X0018600Y0066000D02*
X0013400Y0066000D01*
X0013400Y0076000D02*
X0018600Y0076000D01*
X0018600Y0086000D02*
X0013400Y0086000D01*
X0013400Y0096000D02*
X0018600Y0096000D01*
X0018600Y0106000D02*
X0013400Y0106000D01*
X0013400Y0116000D02*
X0018600Y0116000D01*
X0043400Y0116000D02*
X0048600Y0116000D01*
X0048600Y0106000D02*
X0043400Y0106000D01*
X0043400Y0096000D02*
X0048600Y0096000D01*
X0048600Y0086000D02*
X0043400Y0086000D01*
X0043400Y0076000D02*
X0048600Y0076000D01*
X0048600Y0066000D02*
X0043400Y0066000D01*
X0043400Y0056000D02*
X0048600Y0056000D01*
X0071000Y0033600D02*
X0071000Y0028400D01*
X0081000Y0028400D02*
X0081000Y0033600D01*
X0091000Y0033600D02*
X0091000Y0028400D01*
X0101000Y0028400D02*
X0101000Y0033600D01*
X0111000Y0033600D02*
X0111000Y0028400D01*
X0121000Y0028400D02*
X0121000Y0033600D01*
X0131000Y0033600D02*
X0131000Y0028400D01*
X0141000Y0028400D02*
X0141000Y0033600D01*
X0151000Y0033600D02*
X0151000Y0028400D01*
X0161000Y0028400D02*
X0161000Y0033600D01*
X0171000Y0033600D02*
X0171000Y0028400D01*
X0181000Y0028400D02*
X0181000Y0033600D01*
X0191000Y0033600D02*
X0191000Y0028400D01*
X0201000Y0028400D02*
X0201000Y0033600D01*
X0211000Y0033600D02*
X0211000Y0028400D01*
X0221000Y0028400D02*
X0221000Y0033600D01*
X0231000Y0033600D02*
X0231000Y0028400D01*
X0241000Y0028400D02*
X0241000Y0033600D01*
X0251000Y0033600D02*
X0251000Y0028400D01*
X0261000Y0028400D02*
X0261000Y0033600D01*
X0271000Y0033600D02*
X0271000Y0028400D01*
X0281000Y0028400D02*
X0281000Y0033600D01*
X0291000Y0033600D02*
X0291000Y0028400D01*
X0301000Y0028400D02*
X0301000Y0033600D01*
X0311000Y0033600D02*
X0311000Y0028400D01*
X0321000Y0028400D02*
X0321000Y0033600D01*
X0331000Y0033600D02*
X0331000Y0028400D01*
X0341000Y0028400D02*
X0341000Y0033600D01*
X0351000Y0033600D02*
X0351000Y0028400D01*
X0361000Y0028400D02*
X0361000Y0033600D01*
X0371000Y0033600D02*
X0371000Y0028400D01*
X0381000Y0028400D02*
X0381000Y0033600D01*
X0381000Y0118400D02*
X0381000Y0123600D01*
X0371000Y0123600D02*
X0371000Y0118400D01*
X0361000Y0118400D02*
X0361000Y0123600D01*
X0351000Y0123600D02*
X0351000Y0118400D01*
X0341000Y0118400D02*
X0341000Y0123600D01*
X0331000Y0123600D02*
X0331000Y0118400D01*
X0321000Y0118400D02*
X0321000Y0123600D01*
X0311000Y0123600D02*
X0311000Y0118400D01*
X0301000Y0118400D02*
X0301000Y0123600D01*
X0291000Y0123600D02*
X0291000Y0118400D01*
X0281000Y0118400D02*
X0281000Y0123600D01*
X0271000Y0123600D02*
X0271000Y0118400D01*
X0261000Y0118400D02*
X0261000Y0123600D01*
X0251000Y0123600D02*
X0251000Y0118400D01*
X0241000Y0118400D02*
X0241000Y0123600D01*
X0231000Y0123600D02*
X0231000Y0118400D01*
X0221000Y0118400D02*
X0221000Y0123600D01*
X0211000Y0123600D02*
X0211000Y0118400D01*
X0201000Y0118400D02*
X0201000Y0123600D01*
X0191000Y0123600D02*
X0191000Y0118400D01*
X0181000Y0118400D02*
X0181000Y0123600D01*
X0171000Y0123600D02*
X0171000Y0118400D01*
X0161000Y0118400D02*
X0161000Y0123600D01*
X0151000Y0123600D02*
X0151000Y0118400D01*
X0141000Y0118400D02*
X0141000Y0123600D01*
X0131000Y0123600D02*
X0131000Y0118400D01*
X0121000Y0118400D02*
X0121000Y0123600D01*
X0111000Y0123600D02*
X0111000Y0118400D01*
X0101000Y0118400D02*
X0101000Y0123600D01*
X0091000Y0123600D02*
X0091000Y0118400D01*
X0081000Y0118400D02*
X0081000Y0123600D01*
X0071000Y0123600D02*
X0071000Y0118400D01*
X0106000Y0148400D02*
X0106000Y0153600D01*
X0116000Y0153600D02*
X0116000Y0148400D01*
X0126000Y0148400D02*
X0126000Y0153600D01*
X0136000Y0153600D02*
X0136000Y0148400D01*
X0146000Y0148400D02*
X0146000Y0153600D01*
X0156000Y0153600D02*
X0156000Y0148400D01*
X0166000Y0148400D02*
X0166000Y0153600D01*
X0166000Y0178400D02*
X0166000Y0183600D01*
X0156000Y0183600D02*
X0156000Y0178400D01*
X0146000Y0178400D02*
X0146000Y0183600D01*
X0136000Y0183600D02*
X0136000Y0178400D01*
X0126000Y0178400D02*
X0126000Y0183600D01*
X0116000Y0183600D02*
X0116000Y0178400D01*
X0106000Y0178400D02*
X0106000Y0183600D01*
X0121000Y0193400D02*
X0121000Y0198600D01*
X0131000Y0198600D02*
X0131000Y0193400D01*
X0141000Y0193400D02*
X0141000Y0198600D01*
X0151000Y0198600D02*
X0151000Y0193400D01*
X0161000Y0193400D02*
X0161000Y0198600D01*
X0171000Y0198600D02*
X0171000Y0193400D01*
X0181000Y0193400D02*
X0181000Y0198600D01*
X0196000Y0208400D02*
X0196000Y0213600D01*
X0206000Y0213600D02*
X0206000Y0208400D01*
X0216000Y0208400D02*
X0216000Y0213600D01*
X0226000Y0213600D02*
X0226000Y0208400D01*
X0236000Y0208400D02*
X0236000Y0213600D01*
X0246000Y0213600D02*
X0246000Y0208400D01*
X0256000Y0208400D02*
X0256000Y0213600D01*
X0266000Y0213600D02*
X0266000Y0208400D01*
X0276000Y0208400D02*
X0276000Y0213600D01*
X0286000Y0213600D02*
X0286000Y0208400D01*
X0296000Y0208400D02*
X0296000Y0213600D01*
X0306000Y0213600D02*
X0306000Y0208400D01*
X0316000Y0208400D02*
X0316000Y0213600D01*
X0326000Y0213600D02*
X0326000Y0208400D01*
X0336000Y0208400D02*
X0336000Y0213600D01*
X0346000Y0213600D02*
X0346000Y0208400D01*
X0356000Y0208400D02*
X0356000Y0213600D01*
X0366000Y0213600D02*
X0366000Y0208400D01*
X0376000Y0208400D02*
X0376000Y0213600D01*
X0386000Y0213600D02*
X0386000Y0208400D01*
X0376000Y0233400D02*
X0376000Y0238600D01*
X0366000Y0238600D02*
X0366000Y0233400D01*
X0356000Y0233400D02*
X0356000Y0238600D01*
X0346000Y0238600D02*
X0346000Y0233400D01*
X0336000Y0233400D02*
X0336000Y0238600D01*
X0326000Y0238600D02*
X0326000Y0233400D01*
X0316000Y0233400D02*
X0316000Y0238600D01*
X0306000Y0238600D02*
X0306000Y0233400D01*
X0296000Y0233400D02*
X0296000Y0238600D01*
X0286000Y0238600D02*
X0286000Y0233400D01*
X0276000Y0233400D02*
X0276000Y0238600D01*
X0266000Y0238600D02*
X0266000Y0233400D01*
X0231000Y0238400D02*
X0231000Y0243600D01*
X0221000Y0243600D02*
X0221000Y0238400D01*
X0211000Y0238400D02*
X0211000Y0243600D01*
X0201000Y0243600D02*
X0201000Y0238400D01*
X0191000Y0238400D02*
X0191000Y0243600D01*
X0181000Y0243600D02*
X0181000Y0238400D01*
X0171000Y0238400D02*
X0171000Y0243600D01*
X0161000Y0243600D02*
X0161000Y0238400D01*
X0151000Y0238400D02*
X0151000Y0243600D01*
X0141000Y0243600D02*
X0141000Y0238400D01*
X0131000Y0238400D02*
X0131000Y0243600D01*
X0121000Y0243600D02*
X0121000Y0238400D01*
X0121000Y0228600D02*
X0121000Y0223400D01*
X0131000Y0223400D02*
X0131000Y0228600D01*
X0141000Y0228600D02*
X0141000Y0223400D01*
X0151000Y0223400D02*
X0151000Y0228600D01*
X0161000Y0228600D02*
X0161000Y0223400D01*
X0171000Y0223400D02*
X0171000Y0228600D01*
X0181000Y0228600D02*
X0181000Y0223400D01*
X0196000Y0153600D02*
X0196000Y0148400D01*
X0206000Y0148400D02*
X0206000Y0153600D01*
X0216000Y0153600D02*
X0216000Y0148400D01*
X0226000Y0148400D02*
X0226000Y0153600D01*
X0236000Y0153600D02*
X0236000Y0148400D01*
X0246000Y0148400D02*
X0246000Y0153600D01*
X0256000Y0153600D02*
X0256000Y0148400D01*
X0266000Y0148400D02*
X0266000Y0153600D01*
X0276000Y0153600D02*
X0276000Y0148400D01*
X0286000Y0148400D02*
X0286000Y0153600D01*
X0296000Y0153600D02*
X0296000Y0148400D01*
X0306000Y0148400D02*
X0306000Y0153600D01*
X0316000Y0153600D02*
X0316000Y0148400D01*
X0326000Y0148400D02*
X0326000Y0153600D01*
X0336000Y0153600D02*
X0336000Y0148400D01*
X0346000Y0148400D02*
X0346000Y0153600D01*
X0356000Y0153600D02*
X0356000Y0148400D01*
X0366000Y0148400D02*
X0366000Y0153600D01*
X0376000Y0153600D02*
X0376000Y0148400D01*
X0386000Y0148400D02*
X0386000Y0153600D01*
X0376000Y0293400D02*
X0376000Y0298600D01*
X0366000Y0298600D02*
X0366000Y0293400D01*
X0356000Y0293400D02*
X0356000Y0298600D01*
X0346000Y0298600D02*
X0346000Y0293400D01*
X0336000Y0293400D02*
X0336000Y0298600D01*
X0326000Y0298600D02*
X0326000Y0293400D01*
X0316000Y0293400D02*
X0316000Y0298600D01*
X0306000Y0298600D02*
X0306000Y0293400D01*
X0296000Y0293400D02*
X0296000Y0298600D01*
X0286000Y0298600D02*
X0286000Y0293400D01*
X0276000Y0293400D02*
X0276000Y0298600D01*
X0266000Y0298600D02*
X0266000Y0293400D01*
X0231000Y0298400D02*
X0231000Y0303600D01*
X0221000Y0303600D02*
X0221000Y0298400D01*
X0211000Y0298400D02*
X0211000Y0303600D01*
X0201000Y0303600D02*
X0201000Y0298400D01*
X0191000Y0298400D02*
X0191000Y0303600D01*
X0181000Y0303600D02*
X0181000Y0298400D01*
X0171000Y0298400D02*
X0171000Y0303600D01*
X0161000Y0303600D02*
X0161000Y0298400D01*
X0151000Y0298400D02*
X0151000Y0303600D01*
X0141000Y0303600D02*
X0141000Y0298400D01*
X0131000Y0298400D02*
X0131000Y0303600D01*
X0121000Y0303600D02*
X0121000Y0298400D01*
X0088600Y0171000D02*
X0083400Y0171000D01*
X0058600Y0171000D02*
X0053400Y0171000D01*
D11*
X0051000Y0191000D03*
X0041000Y0191000D03*
X0031000Y0191000D03*
X0021000Y0191000D03*
X0021000Y0221000D03*
X0031000Y0221000D03*
X0041000Y0221000D03*
X0051000Y0221000D03*
D12*
X0046000Y0236000D03*
X0036000Y0236000D03*
X0021000Y0236000D03*
X0011000Y0236000D03*
X0061000Y0236000D03*
X0071000Y0236000D03*
X0091000Y0221000D03*
X0101000Y0221000D03*
X0076000Y0206000D03*
X0066000Y0206000D03*
X0066000Y0186000D03*
X0076000Y0186000D03*
X0091000Y0191000D03*
X0101000Y0191000D03*
D13*
X0038500Y0158500D03*
X0028559Y0168480D03*
X0013500Y0163500D03*
D14*
X0011000Y0293031D02*
X0011000Y0298969D01*
X0021000Y0298969D02*
X0021000Y0293031D01*
D15*
X0041000Y0291000D03*
X0041000Y0261000D03*
X0101000Y0261000D03*
X0101000Y0291000D03*
D16*
X0100600Y0290800D01*
X0100600Y0268600D01*
X0071200Y0239200D01*
X0071200Y0236200D01*
X0071000Y0236000D01*
X0040600Y0255400D02*
X0021400Y0236200D01*
X0021000Y0236000D01*
X0040600Y0255400D02*
X0040600Y0260800D01*
X0041000Y0261000D01*
X0041800Y0261400D01*
X0043600Y0263200D01*
X0011200Y0295600D01*
X0011000Y0296000D01*
X0043600Y0263200D02*
X0081400Y0301000D01*
X0121000Y0301000D01*
X0121000Y0226000D02*
X0116200Y0221200D01*
X0101200Y0221200D01*
X0101000Y0221000D01*
X0101200Y0220000D01*
X0101200Y0191200D01*
X0101000Y0191000D01*
X0106000Y0181000D02*
X0084400Y0181000D01*
X0079600Y0185800D01*
X0076000Y0185800D01*
X0076000Y0186000D01*
X0056000Y0171000D02*
X0055600Y0170800D01*
X0037600Y0170800D01*
X0023200Y0156400D01*
X0017800Y0156400D01*
X0076000Y0206000D02*
X0076000Y0206200D01*
X0088600Y0206200D01*
X0166000Y0215800D02*
X0178000Y0215800D01*
X0184600Y0209200D01*
X0184600Y0199600D01*
X0181000Y0196000D01*
X0181000Y0169600D01*
X0196000Y0154600D01*
X0196000Y0151000D01*
X0181000Y0130000D02*
X0181000Y0121000D01*
X0181600Y0120400D01*
X0181600Y0117400D01*
X0201400Y0097600D01*
X0201400Y0089200D01*
X0220600Y0074200D02*
X0197200Y0050800D01*
X0218200Y0060400D02*
X0235600Y0043000D01*
X0235600Y0026200D01*
X0233200Y0023800D01*
X0228400Y0023800D01*
X0221800Y0030400D01*
X0221000Y0031000D01*
X0220600Y0031000D01*
X0207400Y0017800D01*
X0194800Y0017800D01*
X0191000Y0031000D02*
X0181000Y0031000D01*
X0191000Y0031000D02*
X0201000Y0031000D01*
X0220600Y0074200D02*
X0220600Y0121000D01*
X0221000Y0121000D01*
X0181000Y0130000D02*
X0166000Y0145000D01*
X0166000Y0151000D01*
X0227200Y0178600D02*
X0227200Y0199000D01*
X0221200Y0205000D01*
X0221200Y0215800D01*
X0218200Y0218800D01*
X0208000Y0218200D02*
X0193600Y0218200D01*
X0184600Y0209200D01*
X0208000Y0218200D02*
X0230800Y0241000D01*
X0231000Y0241000D01*
X0263200Y0252400D02*
X0283600Y0252400D01*
X0290200Y0245800D01*
X0366400Y0245800D01*
X0376000Y0236200D01*
X0376000Y0236000D01*
X0311000Y0031000D02*
X0301000Y0031000D01*
X0291000Y0031000D01*
X0281000Y0031000D01*
X0065200Y0027400D02*
X0027400Y0065200D01*
X0027400Y0077800D01*
D17*
X0027400Y0077800D03*
X0059200Y0092800D03*
X0074800Y0112600D03*
X0080800Y0106600D03*
X0085000Y0089200D03*
X0089800Y0080800D03*
X0082000Y0064000D03*
X0065200Y0066400D03*
X0092800Y0041800D03*
X0085600Y0025000D03*
X0092800Y0013000D03*
X0106600Y0021400D03*
X0116200Y0025000D03*
X0151000Y0045400D03*
X0137200Y0055600D03*
X0138400Y0060400D03*
X0116200Y0082600D03*
X0112600Y0103000D03*
X0122200Y0106600D03*
X0131200Y0103000D03*
X0133000Y0112600D03*
X0130600Y0130000D03*
X0116800Y0140200D03*
X0106600Y0160600D03*
X0095800Y0169000D03*
X0096400Y0173800D03*
X0082000Y0161200D03*
X0064600Y0173200D03*
X0059800Y0181600D03*
X0078400Y0191200D03*
X0082000Y0195400D03*
X0086800Y0194800D03*
X0088600Y0206200D03*
X0091600Y0215200D03*
X0069400Y0215800D03*
X0088600Y0244600D03*
X0104800Y0237400D03*
X0113200Y0235000D03*
X0146800Y0215200D03*
X0166000Y0215800D03*
X0180400Y0205600D03*
X0189400Y0208000D03*
X0205000Y0222400D03*
X0191200Y0229600D03*
X0167800Y0233200D03*
X0174400Y0249400D03*
X0174400Y0254200D03*
X0180400Y0260200D03*
X0185200Y0257800D03*
X0173200Y0267400D03*
X0167200Y0269800D03*
X0177400Y0275200D03*
X0164800Y0286600D03*
X0160600Y0280000D03*
X0151600Y0284800D03*
X0156400Y0295000D03*
X0146200Y0307000D03*
X0166600Y0307000D03*
X0179200Y0290200D03*
X0194800Y0286600D03*
X0221200Y0277000D03*
X0228400Y0260800D03*
X0228400Y0256000D03*
X0235000Y0260800D03*
X0245200Y0263800D03*
X0259600Y0248800D03*
X0263200Y0252400D03*
X0252400Y0238600D03*
X0245200Y0235000D03*
X0254800Y0226600D03*
X0250600Y0217600D03*
X0232600Y0218800D03*
X0218200Y0218800D03*
X0229000Y0230200D03*
X0231400Y0197800D03*
X0221800Y0198400D03*
X0236200Y0181600D03*
X0241000Y0182800D03*
X0227200Y0178600D03*
X0221800Y0172600D03*
X0218200Y0163600D03*
X0233800Y0166000D03*
X0248200Y0166600D03*
X0251800Y0172000D03*
X0261400Y0165400D03*
X0263200Y0176800D03*
X0270400Y0185200D03*
X0275200Y0184600D03*
X0284200Y0188200D03*
X0274000Y0171400D03*
X0285400Y0160600D03*
X0290200Y0161200D03*
X0304000Y0177400D03*
X0304600Y0187000D03*
X0310000Y0187000D03*
X0322000Y0177400D03*
X0325000Y0169000D03*
X0335200Y0165400D03*
X0344800Y0169000D03*
X0347200Y0161200D03*
X0368200Y0172000D03*
X0380200Y0178000D03*
X0380200Y0184000D03*
X0376600Y0187600D03*
X0366400Y0191800D03*
X0350200Y0194800D03*
X0344200Y0186400D03*
X0344200Y0181600D03*
X0329800Y0187000D03*
X0314200Y0171400D03*
X0315400Y0142600D03*
X0342400Y0132400D03*
X0346000Y0136000D03*
X0365800Y0137200D03*
X0378400Y0135400D03*
X0381400Y0139600D03*
X0371200Y0108400D03*
X0380800Y0098200D03*
X0356200Y0084400D03*
X0343600Y0070000D03*
X0332800Y0073600D03*
X0340000Y0080800D03*
X0336400Y0097600D03*
X0334000Y0107800D03*
X0323200Y0104200D03*
X0317800Y0107800D03*
X0307600Y0101800D03*
X0313000Y0096400D03*
X0316600Y0087400D03*
X0306400Y0077200D03*
X0296800Y0062200D03*
X0300400Y0054400D03*
X0300400Y0039400D03*
X0361600Y0050200D03*
X0295000Y0098200D03*
X0268600Y0129400D03*
X0278200Y0142600D03*
X0286000Y0140200D03*
X0251200Y0129400D03*
X0233200Y0113200D03*
X0225400Y0131800D03*
X0203200Y0131800D03*
X0188800Y0134800D03*
X0170200Y0134800D03*
X0147400Y0159400D03*
X0130600Y0168400D03*
X0115600Y0189400D03*
X0170800Y0170200D03*
X0187600Y0178000D03*
X0185800Y0190000D03*
X0246400Y0198400D03*
X0256600Y0188800D03*
X0271600Y0229600D03*
X0308800Y0267400D03*
X0323800Y0267400D03*
X0324400Y0251800D03*
X0337000Y0252400D03*
X0362200Y0267400D03*
X0355000Y0286000D03*
X0319600Y0304000D03*
X0304600Y0307600D03*
X0299800Y0307000D03*
X0288400Y0287800D03*
X0288400Y0271000D03*
X0346600Y0227800D03*
X0341800Y0220000D03*
X0381400Y0248200D03*
X0197200Y0092800D03*
X0201400Y0089200D03*
X0210400Y0085000D03*
X0205600Y0079000D03*
X0218200Y0060400D03*
X0227800Y0056800D03*
X0201400Y0039400D03*
X0193000Y0043600D03*
X0197200Y0050800D03*
X0193000Y0053800D03*
X0176800Y0039400D03*
X0166600Y0021400D03*
X0194800Y0017800D03*
X0176800Y0085600D03*
X0175600Y0107800D03*
X0236200Y0084400D03*
X0065200Y0027400D03*
X0037000Y0120400D03*
X0025600Y0119800D03*
X0009400Y0119800D03*
X0011800Y0130000D03*
X0017800Y0156400D03*
X0025000Y0177400D03*
X0037600Y0175000D03*
X0043000Y0175000D03*
X0013000Y0190600D03*
X0052000Y0136000D03*
X0168400Y0259000D03*
X0162400Y0262600D03*
X0151600Y0266200D03*
X0073000Y0280000D03*
X0067000Y0268600D03*
D18*
X0023200Y0061000D02*
X0060400Y0023800D01*
X0082600Y0023800D01*
X0083800Y0025000D01*
X0085600Y0025000D01*
X0091000Y0020200D02*
X0103000Y0008200D01*
X0296800Y0008200D01*
X0316600Y0028000D01*
X0316600Y0052000D01*
X0336400Y0071800D01*
X0336400Y0097600D01*
X0332800Y0103000D02*
X0329200Y0106600D01*
X0329200Y0113800D01*
X0326800Y0116200D01*
X0326800Y0143200D01*
X0330400Y0146800D01*
X0330400Y0170200D01*
X0326200Y0174400D01*
X0326200Y0202600D01*
X0330400Y0206800D01*
X0330400Y0215200D01*
X0324400Y0221200D01*
X0310600Y0221200D01*
X0296200Y0235600D01*
X0296000Y0236000D01*
X0295600Y0236200D01*
X0286600Y0245200D01*
X0257800Y0245200D01*
X0238600Y0264400D01*
X0202600Y0264400D01*
X0192400Y0254200D01*
X0174400Y0254200D01*
X0172600Y0257800D02*
X0177400Y0257800D01*
X0178600Y0256600D01*
X0184000Y0256600D01*
X0185200Y0257800D01*
X0180400Y0260200D02*
X0171400Y0260200D01*
X0170200Y0259000D01*
X0168400Y0259000D01*
X0170800Y0256000D02*
X0172600Y0257800D01*
X0170800Y0256000D02*
X0170800Y0241000D01*
X0171000Y0241000D01*
X0167800Y0233200D02*
X0193000Y0233200D01*
X0200800Y0241000D01*
X0201000Y0241000D01*
X0198400Y0248200D02*
X0191200Y0241000D01*
X0191000Y0241000D01*
X0193600Y0248200D02*
X0188200Y0248200D01*
X0181000Y0241000D01*
X0185800Y0249400D02*
X0174400Y0249400D01*
X0185800Y0249400D02*
X0188200Y0251800D01*
X0193600Y0251800D01*
X0197800Y0256000D01*
X0228400Y0256000D01*
X0228400Y0260800D02*
X0229600Y0260800D01*
X0241600Y0248800D01*
X0241600Y0230800D01*
X0250600Y0221800D01*
X0250600Y0217600D01*
X0256000Y0220000D02*
X0245200Y0230800D01*
X0245200Y0235000D01*
X0252400Y0238600D02*
X0252400Y0241600D01*
X0235000Y0259000D01*
X0235000Y0260800D01*
X0245200Y0263800D02*
X0364000Y0263800D01*
X0376000Y0275800D01*
X0376000Y0296000D01*
X0377800Y0302800D02*
X0374200Y0302800D01*
X0367600Y0296200D01*
X0366400Y0296200D01*
X0366000Y0296000D01*
X0360400Y0300400D02*
X0358000Y0302800D01*
X0353800Y0302800D01*
X0350200Y0299200D01*
X0350200Y0291400D01*
X0333400Y0274600D01*
X0224200Y0274600D01*
X0219400Y0269800D01*
X0175600Y0269800D01*
X0173200Y0267400D01*
X0170200Y0269800D02*
X0167200Y0269800D01*
X0170200Y0269800D02*
X0175600Y0275200D01*
X0177400Y0275200D01*
X0179200Y0278800D02*
X0169600Y0278800D01*
X0152200Y0261400D01*
X0148600Y0261400D01*
X0131200Y0278800D01*
X0131200Y0301000D01*
X0131000Y0301000D01*
X0126400Y0305200D02*
X0131800Y0310600D01*
X0296200Y0310600D01*
X0299800Y0307000D01*
X0304600Y0307600D02*
X0316000Y0296200D01*
X0316000Y0296000D01*
X0319600Y0304000D02*
X0338200Y0304000D01*
X0346000Y0296200D01*
X0346000Y0296000D01*
X0355600Y0295600D02*
X0355600Y0293200D01*
X0333400Y0271000D01*
X0288400Y0271000D01*
X0293200Y0284200D02*
X0197800Y0284200D01*
X0194800Y0281200D01*
X0168400Y0281200D01*
X0163600Y0276400D01*
X0151600Y0276400D01*
X0151600Y0266200D01*
X0160600Y0266200D02*
X0169000Y0266200D01*
X0171400Y0263800D01*
X0198400Y0263800D01*
X0202000Y0267400D01*
X0308800Y0267400D01*
X0323800Y0267400D02*
X0362200Y0267400D01*
X0363400Y0251200D02*
X0369400Y0251200D01*
X0380200Y0240400D01*
X0380200Y0231400D01*
X0367000Y0218200D01*
X0363400Y0218200D01*
X0356200Y0211000D01*
X0356000Y0211000D01*
X0350200Y0208000D02*
X0350200Y0218800D01*
X0336400Y0232600D01*
X0336400Y0235600D01*
X0336000Y0236000D01*
X0326200Y0235600D02*
X0326000Y0236000D01*
X0326200Y0235600D02*
X0341800Y0220000D01*
X0340600Y0215200D02*
X0340600Y0173800D01*
X0338800Y0172000D01*
X0338800Y0157000D01*
X0340600Y0155200D01*
X0340600Y0140200D01*
X0336400Y0136000D01*
X0336400Y0109600D01*
X0335800Y0109600D01*
X0334000Y0107800D01*
X0336400Y0109600D02*
X0361600Y0084400D01*
X0361600Y0050200D01*
X0366400Y0049600D02*
X0366400Y0132400D01*
X0380200Y0146200D01*
X0380200Y0178000D01*
X0380200Y0184000D02*
X0371800Y0175600D01*
X0371800Y0148000D01*
X0365800Y0142000D01*
X0365800Y0137200D01*
X0378400Y0135400D02*
X0378400Y0127000D01*
X0375400Y0124000D01*
X0375400Y0035200D01*
X0371200Y0031000D01*
X0371000Y0031000D01*
X0370600Y0030400D01*
X0364000Y0023800D01*
X0349600Y0023800D01*
X0346600Y0026800D01*
X0346600Y0034000D01*
X0340000Y0040600D01*
X0340000Y0080800D01*
X0332800Y0073600D02*
X0332800Y0103000D01*
X0326800Y0106600D02*
X0315400Y0118000D01*
X0315400Y0142600D01*
X0311200Y0155200D02*
X0325000Y0169000D01*
X0329800Y0174400D02*
X0335200Y0169000D01*
X0335200Y0165400D01*
X0329800Y0174400D02*
X0329800Y0187000D01*
X0323800Y0191800D02*
X0323800Y0195400D01*
X0315400Y0203800D01*
X0313600Y0203800D01*
X0306400Y0211000D01*
X0306000Y0211000D01*
X0308800Y0218200D02*
X0316000Y0211000D01*
X0308800Y0218200D02*
X0274600Y0218200D01*
X0271600Y0215200D01*
X0271600Y0208000D01*
X0262000Y0198400D01*
X0246400Y0198400D01*
X0248800Y0188800D02*
X0231400Y0206200D01*
X0231400Y0217600D01*
X0232600Y0218800D01*
X0236000Y0211000D02*
X0236200Y0211000D01*
X0236200Y0244600D01*
X0232600Y0248200D01*
X0198400Y0248200D01*
X0196000Y0250600D02*
X0193600Y0248200D01*
X0196000Y0250600D02*
X0233800Y0250600D01*
X0238600Y0245800D01*
X0238600Y0230200D01*
X0245800Y0223000D01*
X0245800Y0211000D01*
X0246000Y0211000D01*
X0256000Y0211000D02*
X0256000Y0220000D01*
X0254800Y0226600D02*
X0265600Y0226600D01*
X0268600Y0229600D01*
X0271600Y0229600D01*
X0276000Y0236000D02*
X0269200Y0242800D01*
X0263800Y0242800D01*
X0259600Y0238600D01*
X0252400Y0238600D01*
X0259600Y0248800D02*
X0259600Y0254200D01*
X0261400Y0256000D01*
X0287200Y0256000D01*
X0291400Y0251800D01*
X0310000Y0251800D01*
X0313600Y0255400D01*
X0326200Y0255400D01*
X0329200Y0252400D01*
X0337000Y0252400D01*
X0329200Y0248800D02*
X0361000Y0248800D01*
X0363400Y0251200D01*
X0377800Y0250000D02*
X0377800Y0246400D01*
X0382600Y0241600D01*
X0382600Y0230200D01*
X0370600Y0218200D01*
X0370600Y0190600D01*
X0361600Y0181600D01*
X0344200Y0181600D01*
X0344200Y0186400D02*
X0350200Y0192400D01*
X0350200Y0194800D01*
X0350200Y0208000D02*
X0366400Y0191800D01*
X0376600Y0187600D02*
X0350200Y0161200D01*
X0347200Y0161200D01*
X0351400Y0155200D02*
X0368200Y0172000D01*
X0352600Y0169000D02*
X0381400Y0197800D01*
X0381400Y0225400D01*
X0385000Y0229000D01*
X0385000Y0244600D01*
X0381400Y0248200D01*
X0377800Y0250000D02*
X0385600Y0257800D01*
X0385600Y0295000D01*
X0377800Y0302800D01*
X0360400Y0300400D02*
X0360400Y0291400D01*
X0355000Y0286000D01*
X0355600Y0295600D02*
X0356000Y0296000D01*
X0306000Y0296000D02*
X0305800Y0295600D01*
X0304600Y0295600D01*
X0293200Y0284200D01*
X0288400Y0287800D02*
X0287200Y0286600D01*
X0194800Y0286600D01*
X0197800Y0289000D02*
X0196600Y0290200D01*
X0179200Y0290200D01*
X0181000Y0297400D02*
X0181000Y0301000D01*
X0181000Y0297400D02*
X0163600Y0280000D01*
X0160600Y0280000D01*
X0156400Y0286600D02*
X0155200Y0287800D01*
X0154600Y0287800D01*
X0141400Y0301000D01*
X0141000Y0301000D01*
X0146200Y0307000D02*
X0148000Y0307000D01*
X0149200Y0308200D01*
X0165400Y0308200D01*
X0166600Y0307000D01*
X0170800Y0301000D02*
X0171000Y0301000D01*
X0170800Y0301000D02*
X0163600Y0293800D01*
X0159400Y0293800D01*
X0158200Y0295000D01*
X0156400Y0295000D01*
X0155800Y0290200D02*
X0169000Y0290200D01*
X0176800Y0298000D01*
X0176800Y0305800D01*
X0179200Y0308200D01*
X0283600Y0308200D01*
X0295600Y0296200D01*
X0296000Y0296000D01*
X0286000Y0296000D02*
X0286000Y0295600D01*
X0284200Y0295600D01*
X0277600Y0289000D01*
X0197800Y0289000D01*
X0181000Y0277000D02*
X0179200Y0278800D01*
X0181000Y0277000D02*
X0221200Y0277000D01*
X0164800Y0286600D02*
X0156400Y0286600D01*
X0155800Y0290200D02*
X0151000Y0295000D01*
X0151000Y0301000D01*
X0151600Y0284800D02*
X0151600Y0276400D01*
X0160600Y0266200D02*
X0146800Y0252400D01*
X0146800Y0220600D01*
X0131200Y0205000D01*
X0131200Y0196000D01*
X0131000Y0196000D01*
X0126400Y0189400D02*
X0130600Y0185200D01*
X0130600Y0168400D01*
X0138400Y0166000D02*
X0126400Y0154000D01*
X0126400Y0151600D01*
X0126000Y0151000D01*
X0116000Y0151000D01*
X0111400Y0147400D02*
X0111400Y0155200D01*
X0111400Y0155800D01*
X0106600Y0160600D01*
X0111400Y0155200D02*
X0121000Y0164800D01*
X0132400Y0164800D01*
X0145600Y0178000D01*
X0145600Y0181000D01*
X0146000Y0181000D01*
X0144400Y0188200D02*
X0158800Y0188200D01*
X0166000Y0181000D01*
X0170200Y0176200D02*
X0170200Y0187000D01*
X0161200Y0196000D01*
X0161000Y0196000D01*
X0170800Y0196000D02*
X0171000Y0196000D01*
X0170800Y0196000D02*
X0170800Y0202000D01*
X0156400Y0216400D01*
X0156400Y0256600D01*
X0162400Y0262600D01*
X0161200Y0241000D02*
X0161000Y0241000D01*
X0161200Y0241000D02*
X0161200Y0234400D01*
X0165400Y0230200D01*
X0165400Y0220600D01*
X0162400Y0217600D01*
X0162400Y0214000D01*
X0170800Y0205600D01*
X0180400Y0205600D01*
X0189400Y0208000D02*
X0189400Y0188200D01*
X0187600Y0186400D01*
X0187600Y0178000D01*
X0184000Y0176200D02*
X0202000Y0158200D01*
X0207400Y0158200D01*
X0211600Y0154000D01*
X0211600Y0146800D01*
X0223000Y0135400D01*
X0227200Y0135400D01*
X0229000Y0133600D01*
X0229000Y0127600D01*
X0226600Y0125200D01*
X0226600Y0114400D01*
X0235600Y0105400D01*
X0314800Y0105400D01*
X0316000Y0104200D01*
X0323200Y0104200D01*
X0326800Y0106600D02*
X0326800Y0092200D01*
X0318400Y0083800D01*
X0305200Y0083800D01*
X0256600Y0035200D01*
X0256600Y0028000D01*
X0242800Y0014200D01*
X0104800Y0014200D01*
X0100600Y0018400D01*
X0100600Y0031000D01*
X0101000Y0031000D01*
X0103000Y0023200D02*
X0103000Y0019600D01*
X0104800Y0017800D01*
X0136600Y0017800D01*
X0146800Y0028000D01*
X0146800Y0035800D01*
X0158200Y0047200D01*
X0199000Y0047200D01*
X0236200Y0084400D01*
X0216400Y0077200D02*
X0216400Y0097000D01*
X0195400Y0118000D01*
X0195400Y0128200D01*
X0188800Y0134800D01*
X0203200Y0131800D02*
X0225400Y0131800D01*
X0238600Y0129400D02*
X0251200Y0129400D01*
X0238600Y0129400D02*
X0221800Y0146200D01*
X0221800Y0154000D01*
X0214600Y0161200D01*
X0214600Y0170800D01*
X0218800Y0175000D01*
X0218800Y0196000D01*
X0211600Y0203200D01*
X0211600Y0217600D01*
X0224200Y0230200D01*
X0229000Y0230200D01*
X0205000Y0222400D02*
X0197800Y0229600D01*
X0191200Y0229600D01*
X0221800Y0198400D02*
X0221800Y0172600D01*
X0218200Y0163600D02*
X0236200Y0181600D01*
X0241000Y0182800D02*
X0241000Y0164800D01*
X0245200Y0160600D01*
X0285400Y0160600D01*
X0290200Y0161200D02*
X0290200Y0146200D01*
X0286000Y0142000D01*
X0286000Y0140200D01*
X0278200Y0142600D02*
X0295600Y0125200D01*
X0295600Y0117400D01*
X0295900Y0117100D01*
X0292000Y0113200D01*
X0233200Y0113200D01*
X0214000Y0089200D02*
X0185200Y0118000D01*
X0185200Y0161200D01*
X0170200Y0176200D01*
X0170800Y0170200D02*
X0164200Y0163600D01*
X0139600Y0163600D01*
X0131800Y0155800D01*
X0131800Y0148000D01*
X0127600Y0143800D01*
X0115000Y0143800D01*
X0111400Y0140200D01*
X0111400Y0121000D01*
X0111000Y0121000D01*
X0100600Y0112600D02*
X0133000Y0112600D01*
X0129400Y0110200D02*
X0092800Y0110200D01*
X0086800Y0116200D01*
X0086800Y0125800D01*
X0104800Y0143800D01*
X0107800Y0143800D01*
X0111400Y0147400D01*
X0116800Y0140200D02*
X0141400Y0140200D01*
X0160600Y0121000D01*
X0161000Y0121000D01*
X0171000Y0121000D02*
X0171400Y0121000D01*
X0171400Y0112000D01*
X0175600Y0107800D01*
X0190600Y0099400D02*
X0197200Y0092800D01*
X0190600Y0099400D02*
X0146200Y0099400D01*
X0136600Y0109000D01*
X0136600Y0124000D01*
X0130600Y0130000D01*
X0129400Y0110200D02*
X0154000Y0085600D01*
X0176800Y0085600D01*
X0180400Y0073000D02*
X0208600Y0073000D01*
X0214000Y0078400D01*
X0214000Y0089200D01*
X0210400Y0085000D02*
X0210400Y0078400D01*
X0207400Y0075400D01*
X0162400Y0075400D01*
X0126400Y0039400D01*
X0126400Y0027400D01*
X0120400Y0021400D01*
X0106600Y0021400D01*
X0103000Y0023200D02*
X0110800Y0031000D01*
X0111000Y0031000D01*
X0116200Y0034600D02*
X0116200Y0025000D01*
X0121000Y0031000D02*
X0121000Y0058600D01*
X0086800Y0092800D01*
X0059200Y0092800D01*
X0064000Y0096400D02*
X0078400Y0110800D01*
X0078400Y0115000D01*
X0076600Y0116800D01*
X0076600Y0136000D01*
X0109600Y0169000D01*
X0113800Y0169000D01*
X0125800Y0181000D01*
X0126000Y0181000D01*
X0126400Y0189400D02*
X0126400Y0203800D01*
X0135400Y0212800D01*
X0135400Y0229000D01*
X0140800Y0234400D01*
X0140800Y0241000D01*
X0141000Y0241000D01*
X0126400Y0237400D02*
X0122800Y0233800D01*
X0119800Y0233800D01*
X0117400Y0231400D01*
X0105400Y0231400D01*
X0096400Y0222400D01*
X0096400Y0204400D01*
X0086800Y0194800D01*
X0082000Y0195400D02*
X0089200Y0202600D01*
X0090400Y0202600D01*
X0092200Y0204400D01*
X0092200Y0214600D01*
X0091600Y0215200D01*
X0091000Y0220600D02*
X0084400Y0220600D01*
X0071800Y0208000D01*
X0071800Y0184000D01*
X0080200Y0175600D01*
X0094600Y0175600D01*
X0096400Y0173800D01*
X0095800Y0169000D02*
X0102400Y0169000D01*
X0107200Y0173800D01*
X0107800Y0173800D01*
X0111400Y0177400D01*
X0111400Y0185200D01*
X0115600Y0189400D01*
X0112000Y0196000D02*
X0102400Y0186400D01*
X0083200Y0186400D01*
X0078400Y0191200D01*
X0066400Y0186400D02*
X0066000Y0186000D01*
X0066400Y0185200D01*
X0028600Y0185200D01*
X0028600Y0169000D01*
X0028559Y0168480D01*
X0025000Y0177400D02*
X0025000Y0188800D01*
X0026800Y0190600D01*
X0026800Y0193000D01*
X0050200Y0216400D01*
X0064600Y0216400D01*
X0089200Y0241000D01*
X0107200Y0241000D01*
X0113200Y0235000D01*
X0110800Y0241000D02*
X0107200Y0244600D01*
X0088600Y0244600D01*
X0097600Y0237400D02*
X0104800Y0237400D01*
X0110800Y0241000D02*
X0121000Y0241000D01*
X0126400Y0237400D02*
X0126400Y0305200D01*
X0073000Y0280000D02*
X0024400Y0231400D01*
X0019600Y0231400D01*
X0016600Y0234400D01*
X0016600Y0236800D01*
X0013000Y0240400D01*
X0009400Y0240400D01*
X0005800Y0236800D01*
X0005800Y0076600D01*
X0016000Y0066400D01*
X0016000Y0066000D01*
X0023200Y0068800D02*
X0023200Y0061000D01*
X0023200Y0068800D02*
X0016000Y0076000D01*
X0016000Y0085600D02*
X0016000Y0086000D01*
X0016000Y0096000D01*
X0019000Y0101800D02*
X0011200Y0101800D01*
X0008800Y0104200D01*
X0008800Y0109000D01*
X0015400Y0115600D01*
X0016000Y0116000D01*
X0016000Y0116200D01*
X0032200Y0132400D01*
X0069400Y0132400D01*
X0108400Y0171400D01*
X0109000Y0171400D01*
X0115600Y0178000D01*
X0115600Y0181000D01*
X0116000Y0181000D01*
X0112000Y0196000D02*
X0121000Y0196000D01*
X0136000Y0181000D02*
X0137200Y0181000D01*
X0144400Y0188200D01*
X0141400Y0196000D02*
X0141000Y0196000D01*
X0141400Y0196000D02*
X0146800Y0201400D01*
X0146800Y0215200D01*
X0185800Y0190000D02*
X0185800Y0188200D01*
X0184000Y0186400D01*
X0184000Y0176200D01*
X0156000Y0181000D02*
X0154600Y0181000D01*
X0139600Y0166000D01*
X0138400Y0166000D01*
X0147400Y0159400D02*
X0155800Y0151000D01*
X0156000Y0151000D01*
X0156400Y0150400D01*
X0170200Y0136600D01*
X0170200Y0134800D01*
X0146000Y0151000D02*
X0136000Y0151000D01*
X0100600Y0112600D02*
X0092200Y0121000D01*
X0091000Y0121000D01*
X0074800Y0112600D02*
X0061600Y0112600D01*
X0047800Y0126400D01*
X0032200Y0126400D01*
X0025600Y0119800D01*
X0035200Y0124000D02*
X0046600Y0124000D01*
X0053200Y0117400D01*
X0053200Y0113200D01*
X0046000Y0106000D01*
X0046000Y0096400D02*
X0046000Y0096000D01*
X0046000Y0096400D02*
X0064000Y0096400D01*
X0050200Y0090400D02*
X0096400Y0044200D01*
X0096400Y0018400D01*
X0104200Y0010600D01*
X0259600Y0010600D01*
X0276400Y0027400D01*
X0276400Y0041800D01*
X0296800Y0062200D01*
X0300400Y0054400D02*
X0300400Y0039400D01*
X0306400Y0077200D02*
X0261400Y0032200D01*
X0261400Y0031000D01*
X0261000Y0031000D01*
X0241000Y0031000D02*
X0241000Y0043600D01*
X0227800Y0056800D01*
X0217000Y0043600D02*
X0193000Y0043600D01*
X0201400Y0039400D02*
X0176800Y0039400D01*
X0193000Y0053800D02*
X0216400Y0077200D01*
X0205600Y0079000D02*
X0162400Y0079000D01*
X0139000Y0055600D01*
X0137200Y0055600D01*
X0138400Y0060400D02*
X0116200Y0082600D01*
X0112600Y0103000D02*
X0131200Y0103000D01*
X0122200Y0106600D02*
X0080800Y0106600D01*
X0085000Y0089200D02*
X0082000Y0086200D01*
X0082000Y0064000D01*
X0089800Y0061000D02*
X0116200Y0034600D01*
X0092800Y0041800D02*
X0080200Y0041800D01*
X0046000Y0076000D01*
X0050200Y0081400D02*
X0039400Y0081400D01*
X0019000Y0101800D01*
X0017200Y0106000D02*
X0035200Y0124000D01*
X0037000Y0120400D02*
X0037000Y0096400D01*
X0043000Y0090400D01*
X0050200Y0090400D01*
X0050200Y0081400D02*
X0065200Y0066400D01*
X0046000Y0066400D02*
X0046000Y0066000D01*
X0046000Y0066400D02*
X0044200Y0066400D01*
X0025000Y0085600D01*
X0016000Y0085600D01*
X0016000Y0106000D02*
X0017200Y0106000D01*
X0009400Y0119800D02*
X0008200Y0121000D01*
X0008200Y0164200D01*
X0013000Y0169000D01*
X0013000Y0190600D01*
X0016600Y0189400D02*
X0016600Y0193000D01*
X0040000Y0216400D01*
X0042400Y0216400D01*
X0046600Y0220600D01*
X0046600Y0230200D01*
X0067000Y0250600D01*
X0067000Y0268600D01*
X0061000Y0236000D02*
X0061000Y0235600D01*
X0051400Y0226000D01*
X0051400Y0221200D01*
X0051000Y0221000D01*
X0041000Y0221000D02*
X0040600Y0221200D01*
X0036400Y0221200D01*
X0036400Y0235600D01*
X0036000Y0236000D01*
X0026200Y0225400D02*
X0030400Y0221200D01*
X0031000Y0221000D01*
X0031000Y0221200D01*
X0036400Y0221200D01*
X0026200Y0225400D02*
X0021400Y0225400D01*
X0011200Y0235600D01*
X0011000Y0236000D01*
X0031000Y0191000D02*
X0031000Y0190600D01*
X0028600Y0188200D01*
X0028600Y0185200D01*
X0017800Y0188200D02*
X0016600Y0189400D01*
X0017800Y0188200D02*
X0017800Y0161800D01*
X0011800Y0155800D01*
X0011800Y0130000D01*
X0052000Y0136000D02*
X0064600Y0148600D01*
X0064600Y0173200D01*
X0066400Y0176800D02*
X0044800Y0176800D01*
X0043000Y0175000D01*
X0037600Y0175000D02*
X0044200Y0181600D01*
X0059800Y0181600D01*
X0066000Y0186000D02*
X0066400Y0185800D01*
X0080800Y0171400D01*
X0085600Y0171400D01*
X0086000Y0171000D01*
X0082000Y0161200D02*
X0066400Y0176800D01*
X0066400Y0186400D02*
X0066400Y0205600D01*
X0066000Y0206000D01*
X0069400Y0215800D02*
X0076000Y0215800D01*
X0097600Y0237400D01*
X0091000Y0221000D02*
X0091000Y0220600D01*
X0231400Y0197800D02*
X0244600Y0184600D01*
X0244600Y0164800D01*
X0246400Y0163000D01*
X0258400Y0163000D01*
X0260800Y0165400D01*
X0261400Y0165400D01*
X0284200Y0188200D01*
X0286000Y0191800D02*
X0300400Y0177400D01*
X0300400Y0175600D01*
X0302200Y0173800D01*
X0305800Y0173800D01*
X0315700Y0183700D01*
X0322000Y0177400D01*
X0315700Y0183700D02*
X0323800Y0191800D01*
X0310000Y0187000D02*
X0286000Y0211000D01*
X0276400Y0211000D02*
X0276000Y0211000D01*
X0276400Y0211000D02*
X0302500Y0184900D01*
X0304600Y0187000D01*
X0302500Y0184900D02*
X0304000Y0183400D01*
X0304000Y0177400D01*
X0314200Y0171400D02*
X0274000Y0171400D01*
X0265000Y0173200D02*
X0275200Y0183400D01*
X0275200Y0184600D01*
X0270400Y0185200D02*
X0263200Y0178000D01*
X0263200Y0176800D01*
X0263800Y0173200D02*
X0265000Y0173200D01*
X0263800Y0173200D02*
X0257200Y0166600D01*
X0248200Y0166600D01*
X0251800Y0172000D02*
X0271600Y0191800D01*
X0286000Y0191800D01*
X0256600Y0188800D02*
X0248800Y0188800D01*
X0236200Y0166000D02*
X0244000Y0158200D01*
X0247600Y0158200D01*
X0251800Y0154000D01*
X0251800Y0146200D01*
X0268600Y0129400D01*
X0295900Y0117100D02*
X0305200Y0107800D01*
X0317800Y0107800D01*
X0307600Y0101800D02*
X0313000Y0096400D01*
X0305800Y0098200D02*
X0316600Y0087400D01*
X0305800Y0098200D02*
X0295000Y0098200D01*
X0311000Y0121000D02*
X0311200Y0121000D01*
X0311200Y0155200D01*
X0342400Y0138400D02*
X0342400Y0132400D01*
X0346000Y0136000D02*
X0361000Y0121000D01*
X0371200Y0108400D02*
X0371200Y0050800D01*
X0361000Y0040600D01*
X0361000Y0031000D01*
X0351400Y0031000D02*
X0351000Y0031000D01*
X0351400Y0031000D02*
X0351400Y0034600D01*
X0366400Y0049600D01*
X0385600Y0026800D02*
X0364600Y0005800D01*
X0100000Y0005800D01*
X0092800Y0013000D01*
X0091000Y0020200D02*
X0091000Y0031000D01*
X0089800Y0061000D02*
X0089800Y0080800D01*
X0151000Y0045400D02*
X0152800Y0045400D01*
X0180400Y0073000D01*
X0217000Y0043600D02*
X0229600Y0031000D01*
X0231000Y0031000D01*
X0211000Y0031000D02*
X0201400Y0021400D01*
X0166600Y0021400D01*
X0343600Y0070000D02*
X0343600Y0071800D01*
X0356200Y0084400D01*
X0380800Y0098200D02*
X0380800Y0121000D01*
X0381000Y0121000D01*
X0385600Y0133600D02*
X0385600Y0026800D01*
X0385600Y0133600D02*
X0381400Y0137800D01*
X0381400Y0139600D01*
X0351400Y0147400D02*
X0351400Y0155200D01*
X0351400Y0147400D02*
X0342400Y0138400D01*
X0344800Y0169000D02*
X0352600Y0169000D01*
X0340600Y0215200D02*
X0332200Y0223600D01*
X0319600Y0223600D01*
X0307600Y0235600D01*
X0306400Y0235600D01*
X0306000Y0236000D01*
X0324400Y0251800D02*
X0326200Y0251800D01*
X0329200Y0248800D01*
X0346600Y0227800D02*
X0354400Y0235600D01*
X0355600Y0235600D01*
X0356000Y0236000D01*
X0236200Y0166000D02*
X0233800Y0166000D01*
M02*
