%
M48
M72
T01C0.02400
T02C0.03150
T03C0.03200
T04C0.03937
%
T01
X64600Y17200
X64600Y41800
X79600Y56800
X82600Y74800
X86800Y98200
X120400Y112600
X137200Y130600
X131200Y141400
X120400Y137800
X100000Y154600
X106600Y160000
X88600Y176800
X77800Y169000
X66400Y180400
X46000Y161200
X53200Y144400
X65200Y131200
X74200Y144400
X34000Y140200
X34000Y102400
X27400Y80800
X22600Y82000
X118600Y62200
X122200Y58600
X158200Y47800
X167800Y47800
X196000Y36400
X192400Y17200
X207400Y58600
X184000Y82000
X180400Y85600
X175600Y78400
X162400Y92800
X169600Y100000
X173200Y109600
X147400Y107800
X152200Y129400
X181600Y145600
X186400Y155800
X203800Y163000
X173200Y173800
X190600Y191200
X189400Y196000
X180400Y208000
X170800Y211600
X190000Y232000
X214000Y223000
X220600Y218800
X233200Y226600
X248200Y218800
X250000Y230200
X254800Y230800
X250000Y238000
X268600Y252400
X270400Y245200
X285400Y244600
X290200Y250600
X285400Y260800
X289000Y268000
X293200Y283000
X277600Y283000
X266200Y280600
X264400Y267400
X250000Y264400
X227200Y264400
X222400Y274600
X214000Y266800
X204400Y275800
X209800Y279400
X222400Y285400
X232000Y286600
X212200Y292600
X184600Y272200
X177400Y271000
X181600Y263800
X188800Y265600
X199600Y254800
X212800Y254800
X217600Y256000
X271600Y223000
X277000Y201400
X279400Y196600
X290800Y196600
X298000Y200200
X312400Y196600
X320200Y204400
X333400Y197800
X341800Y197800
X337000Y189400
X345400Y186400
X360400Y177400
X375400Y192400
X381400Y193000
X379600Y202000
X386200Y219400
X371800Y227800
X344800Y244000
X334000Y258400
X324400Y272200
X319600Y274000
X323800Y277000
X332200Y277000
X342400Y279400
X340000Y286600
X354400Y281800
X359200Y284200
X379000Y258400
X330400Y217000
X326800Y227800
X311200Y217000
X301000Y230800
X294400Y224200
X325000Y244000
X315400Y285400
X320200Y305800
X261400Y302200
X145600Y254200
X134200Y253000
X119200Y256600
X83200Y232000
X111400Y193000
X127000Y171400
X144400Y171400
X146200Y220000
X221800Y190000
X226600Y191800
X229600Y187600
X238000Y186400
X252400Y196000
X257800Y192400
X270400Y181600
X277600Y172600
X301000Y169000
X308200Y167200
X307000Y185800
X328000Y167800
X355000Y141400
X345400Y133000
X329200Y138400
X308800Y133000
X299200Y107800
X302800Y103000
X314800Y104200
X313000Y87400
X308800Y75400
X314200Y67600
X301000Y67600
X278800Y88600
X280600Y95800
X280000Y103000
X281800Y107800
X289600Y99400
X256600Y101200
X246400Y115000
X239200Y107800
X239200Y95800
X220600Y89200
X209200Y100600
X209200Y106000
X203200Y89200
X202000Y129400
X250600Y161200
X245800Y171400
X256600Y133000
X254200Y77200
X253600Y72400
X245200Y49600
X248800Y40000
X245200Y17200
X273400Y42400
X277600Y47800
X289000Y42400
X293800Y41800
X278200Y14200
X339400Y74800
X344200Y81400
X368800Y92200
X385600Y142600
X26800Y198400
T02
X28559Y168480
X38500Y158500
X13500Y163500
T03
X16000Y56000
X16000Y66000
X16000Y76000
X16000Y86000
X16000Y96000
X16000Y106000
X16000Y116000
X46000Y116000
X46000Y106000
X46000Y96000
X46000Y86000
X46000Y76000
X46000Y66000
X46000Y56000
X71000Y31000
X81000Y31000
X91000Y31000
X101000Y31000
X111000Y31000
X121000Y31000
X131000Y31000
X141000Y31000
X151000Y31000
X161000Y31000
X171000Y31000
X181000Y31000
X191000Y31000
X201000Y31000
X211000Y31000
X221000Y31000
X231000Y31000
X241000Y31000
X251000Y31000
X261000Y31000
X271000Y31000
X281000Y31000
X291000Y31000
X301000Y31000
X311000Y31000
X321000Y31000
X331000Y31000
X341000Y31000
X351000Y31000
X361000Y31000
X371000Y31000
X381000Y31000
X381000Y121000
X371000Y121000
X361000Y121000
X351000Y121000
X341000Y121000
X331000Y121000
X321000Y121000
X311000Y121000
X301000Y121000
X291000Y121000
X281000Y121000
X271000Y121000
X261000Y121000
X251000Y121000
X241000Y121000
X231000Y121000
X221000Y121000
X211000Y121000
X201000Y121000
X191000Y121000
X181000Y121000
X171000Y121000
X161000Y121000
X151000Y121000
X141000Y121000
X131000Y121000
X121000Y121000
X111000Y121000
X101000Y121000
X91000Y121000
X81000Y121000
X71000Y121000
X106000Y151000
X116000Y151000
X126000Y151000
X136000Y151000
X146000Y151000
X156000Y151000
X166000Y151000
X196000Y151000
X206000Y151000
X216000Y151000
X226000Y151000
X236000Y151000
X246000Y151000
X256000Y151000
X266000Y151000
X276000Y151000
X286000Y151000
X296000Y151000
X306000Y151000
X316000Y151000
X326000Y151000
X336000Y151000
X346000Y151000
X356000Y151000
X366000Y151000
X376000Y151000
X386000Y151000
X386000Y211000
X376000Y211000
X366000Y211000
X356000Y211000
X346000Y211000
X336000Y211000
X326000Y211000
X316000Y211000
X306000Y211000
X296000Y211000
X286000Y211000
X276000Y211000
X266000Y211000
X256000Y211000
X246000Y211000
X236000Y211000
X226000Y211000
X216000Y211000
X206000Y211000
X196000Y211000
X181000Y226000
X171000Y226000
X161000Y226000
X151000Y226000
X141000Y226000
X131000Y226000
X121000Y226000
X121000Y241000
X131000Y241000
X141000Y241000
X151000Y241000
X161000Y241000
X171000Y241000
X181000Y241000
X191000Y241000
X201000Y241000
X211000Y241000
X221000Y241000
X231000Y241000
X266000Y236000
X276000Y236000
X286000Y236000
X296000Y236000
X306000Y236000
X316000Y236000
X326000Y236000
X336000Y236000
X346000Y236000
X356000Y236000
X366000Y236000
X376000Y236000
X376000Y296000
X366000Y296000
X356000Y296000
X346000Y296000
X336000Y296000
X326000Y296000
X316000Y296000
X306000Y296000
X296000Y296000
X286000Y296000
X276000Y296000
X266000Y296000
X231000Y301000
X221000Y301000
X211000Y301000
X201000Y301000
X191000Y301000
X181000Y301000
X171000Y301000
X161000Y301000
X151000Y301000
X141000Y301000
X131000Y301000
X121000Y301000
X71000Y236000
X61000Y236000
X46000Y236000
X36000Y236000
X21000Y236000
X11000Y236000
X21000Y221000
X31000Y221000
X41000Y221000
X51000Y221000
X66000Y206000
X76000Y206000
X91000Y191000
X101000Y191000
X106000Y181000
X116000Y181000
X126000Y181000
X136000Y181000
X146000Y181000
X156000Y181000
X166000Y181000
X161000Y196000
X151000Y196000
X141000Y196000
X131000Y196000
X121000Y196000
X101000Y221000
X91000Y221000
X51000Y191000
X41000Y191000
X31000Y191000
X21000Y191000
X56000Y171000
X66000Y186000
X76000Y186000
X86000Y171000
X171000Y196000
X181000Y196000
T04
X21000Y296000
X11000Y296000
M30
