G75*
%MOIN*%
%OFA0B0*%
%FSLAX25Y25*%
%IPPOS*%
%LPD*%
%AMOC8*
5,1,8,0,0,1.08239X$1,22.5*
%
%ADD10C,0.06000*%
%ADD11C,0.06000*%
%ADD12OC8,0.06000*%
%ADD13C,0.05950*%
%ADD14C,0.06737*%
%ADD15R,0.05950X0.05950*%
%ADD16C,0.04800*%
D10*
X0013400Y0056000D02*
X0018600Y0056000D01*
X0018600Y0066000D02*
X0013400Y0066000D01*
X0013400Y0076000D02*
X0018600Y0076000D01*
X0018600Y0086000D02*
X0013400Y0086000D01*
X0013400Y0096000D02*
X0018600Y0096000D01*
X0018600Y0106000D02*
X0013400Y0106000D01*
X0013400Y0116000D02*
X0018600Y0116000D01*
X0043400Y0116000D02*
X0048600Y0116000D01*
X0048600Y0106000D02*
X0043400Y0106000D01*
X0043400Y0096000D02*
X0048600Y0096000D01*
X0048600Y0086000D02*
X0043400Y0086000D01*
X0043400Y0076000D02*
X0048600Y0076000D01*
X0048600Y0066000D02*
X0043400Y0066000D01*
X0043400Y0056000D02*
X0048600Y0056000D01*
X0071000Y0033600D02*
X0071000Y0028400D01*
X0081000Y0028400D02*
X0081000Y0033600D01*
X0091000Y0033600D02*
X0091000Y0028400D01*
X0101000Y0028400D02*
X0101000Y0033600D01*
X0111000Y0033600D02*
X0111000Y0028400D01*
X0121000Y0028400D02*
X0121000Y0033600D01*
X0131000Y0033600D02*
X0131000Y0028400D01*
X0141000Y0028400D02*
X0141000Y0033600D01*
X0151000Y0033600D02*
X0151000Y0028400D01*
X0161000Y0028400D02*
X0161000Y0033600D01*
X0171000Y0033600D02*
X0171000Y0028400D01*
X0181000Y0028400D02*
X0181000Y0033600D01*
X0191000Y0033600D02*
X0191000Y0028400D01*
X0201000Y0028400D02*
X0201000Y0033600D01*
X0211000Y0033600D02*
X0211000Y0028400D01*
X0221000Y0028400D02*
X0221000Y0033600D01*
X0231000Y0033600D02*
X0231000Y0028400D01*
X0241000Y0028400D02*
X0241000Y0033600D01*
X0251000Y0033600D02*
X0251000Y0028400D01*
X0261000Y0028400D02*
X0261000Y0033600D01*
X0271000Y0033600D02*
X0271000Y0028400D01*
X0281000Y0028400D02*
X0281000Y0033600D01*
X0291000Y0033600D02*
X0291000Y0028400D01*
X0301000Y0028400D02*
X0301000Y0033600D01*
X0311000Y0033600D02*
X0311000Y0028400D01*
X0321000Y0028400D02*
X0321000Y0033600D01*
X0331000Y0033600D02*
X0331000Y0028400D01*
X0341000Y0028400D02*
X0341000Y0033600D01*
X0351000Y0033600D02*
X0351000Y0028400D01*
X0361000Y0028400D02*
X0361000Y0033600D01*
X0371000Y0033600D02*
X0371000Y0028400D01*
X0381000Y0028400D02*
X0381000Y0033600D01*
X0381000Y0118400D02*
X0381000Y0123600D01*
X0371000Y0123600D02*
X0371000Y0118400D01*
X0361000Y0118400D02*
X0361000Y0123600D01*
X0351000Y0123600D02*
X0351000Y0118400D01*
X0341000Y0118400D02*
X0341000Y0123600D01*
X0331000Y0123600D02*
X0331000Y0118400D01*
X0321000Y0118400D02*
X0321000Y0123600D01*
X0311000Y0123600D02*
X0311000Y0118400D01*
X0301000Y0118400D02*
X0301000Y0123600D01*
X0291000Y0123600D02*
X0291000Y0118400D01*
X0281000Y0118400D02*
X0281000Y0123600D01*
X0271000Y0123600D02*
X0271000Y0118400D01*
X0261000Y0118400D02*
X0261000Y0123600D01*
X0251000Y0123600D02*
X0251000Y0118400D01*
X0241000Y0118400D02*
X0241000Y0123600D01*
X0231000Y0123600D02*
X0231000Y0118400D01*
X0221000Y0118400D02*
X0221000Y0123600D01*
X0211000Y0123600D02*
X0211000Y0118400D01*
X0201000Y0118400D02*
X0201000Y0123600D01*
X0191000Y0123600D02*
X0191000Y0118400D01*
X0181000Y0118400D02*
X0181000Y0123600D01*
X0171000Y0123600D02*
X0171000Y0118400D01*
X0161000Y0118400D02*
X0161000Y0123600D01*
X0151000Y0123600D02*
X0151000Y0118400D01*
X0141000Y0118400D02*
X0141000Y0123600D01*
X0131000Y0123600D02*
X0131000Y0118400D01*
X0121000Y0118400D02*
X0121000Y0123600D01*
X0111000Y0123600D02*
X0111000Y0118400D01*
X0101000Y0118400D02*
X0101000Y0123600D01*
X0091000Y0123600D02*
X0091000Y0118400D01*
X0081000Y0118400D02*
X0081000Y0123600D01*
X0071000Y0123600D02*
X0071000Y0118400D01*
X0106000Y0148400D02*
X0106000Y0153600D01*
X0116000Y0153600D02*
X0116000Y0148400D01*
X0126000Y0148400D02*
X0126000Y0153600D01*
X0136000Y0153600D02*
X0136000Y0148400D01*
X0146000Y0148400D02*
X0146000Y0153600D01*
X0156000Y0153600D02*
X0156000Y0148400D01*
X0166000Y0148400D02*
X0166000Y0153600D01*
X0166000Y0178400D02*
X0166000Y0183600D01*
X0156000Y0183600D02*
X0156000Y0178400D01*
X0146000Y0178400D02*
X0146000Y0183600D01*
X0136000Y0183600D02*
X0136000Y0178400D01*
X0126000Y0178400D02*
X0126000Y0183600D01*
X0116000Y0183600D02*
X0116000Y0178400D01*
X0106000Y0178400D02*
X0106000Y0183600D01*
X0121000Y0193400D02*
X0121000Y0198600D01*
X0131000Y0198600D02*
X0131000Y0193400D01*
X0141000Y0193400D02*
X0141000Y0198600D01*
X0151000Y0198600D02*
X0151000Y0193400D01*
X0161000Y0193400D02*
X0161000Y0198600D01*
X0171000Y0198600D02*
X0171000Y0193400D01*
X0181000Y0193400D02*
X0181000Y0198600D01*
X0196000Y0208400D02*
X0196000Y0213600D01*
X0206000Y0213600D02*
X0206000Y0208400D01*
X0216000Y0208400D02*
X0216000Y0213600D01*
X0226000Y0213600D02*
X0226000Y0208400D01*
X0236000Y0208400D02*
X0236000Y0213600D01*
X0246000Y0213600D02*
X0246000Y0208400D01*
X0256000Y0208400D02*
X0256000Y0213600D01*
X0266000Y0213600D02*
X0266000Y0208400D01*
X0276000Y0208400D02*
X0276000Y0213600D01*
X0286000Y0213600D02*
X0286000Y0208400D01*
X0296000Y0208400D02*
X0296000Y0213600D01*
X0306000Y0213600D02*
X0306000Y0208400D01*
X0316000Y0208400D02*
X0316000Y0213600D01*
X0326000Y0213600D02*
X0326000Y0208400D01*
X0336000Y0208400D02*
X0336000Y0213600D01*
X0346000Y0213600D02*
X0346000Y0208400D01*
X0356000Y0208400D02*
X0356000Y0213600D01*
X0366000Y0213600D02*
X0366000Y0208400D01*
X0376000Y0208400D02*
X0376000Y0213600D01*
X0386000Y0213600D02*
X0386000Y0208400D01*
X0376000Y0233400D02*
X0376000Y0238600D01*
X0366000Y0238600D02*
X0366000Y0233400D01*
X0356000Y0233400D02*
X0356000Y0238600D01*
X0346000Y0238600D02*
X0346000Y0233400D01*
X0336000Y0233400D02*
X0336000Y0238600D01*
X0326000Y0238600D02*
X0326000Y0233400D01*
X0316000Y0233400D02*
X0316000Y0238600D01*
X0306000Y0238600D02*
X0306000Y0233400D01*
X0296000Y0233400D02*
X0296000Y0238600D01*
X0286000Y0238600D02*
X0286000Y0233400D01*
X0276000Y0233400D02*
X0276000Y0238600D01*
X0266000Y0238600D02*
X0266000Y0233400D01*
X0231000Y0238400D02*
X0231000Y0243600D01*
X0221000Y0243600D02*
X0221000Y0238400D01*
X0211000Y0238400D02*
X0211000Y0243600D01*
X0201000Y0243600D02*
X0201000Y0238400D01*
X0191000Y0238400D02*
X0191000Y0243600D01*
X0181000Y0243600D02*
X0181000Y0238400D01*
X0171000Y0238400D02*
X0171000Y0243600D01*
X0161000Y0243600D02*
X0161000Y0238400D01*
X0151000Y0238400D02*
X0151000Y0243600D01*
X0141000Y0243600D02*
X0141000Y0238400D01*
X0131000Y0238400D02*
X0131000Y0243600D01*
X0121000Y0243600D02*
X0121000Y0238400D01*
X0121000Y0228600D02*
X0121000Y0223400D01*
X0131000Y0223400D02*
X0131000Y0228600D01*
X0141000Y0228600D02*
X0141000Y0223400D01*
X0151000Y0223400D02*
X0151000Y0228600D01*
X0161000Y0228600D02*
X0161000Y0223400D01*
X0171000Y0223400D02*
X0171000Y0228600D01*
X0181000Y0228600D02*
X0181000Y0223400D01*
X0196000Y0153600D02*
X0196000Y0148400D01*
X0206000Y0148400D02*
X0206000Y0153600D01*
X0216000Y0153600D02*
X0216000Y0148400D01*
X0226000Y0148400D02*
X0226000Y0153600D01*
X0236000Y0153600D02*
X0236000Y0148400D01*
X0246000Y0148400D02*
X0246000Y0153600D01*
X0256000Y0153600D02*
X0256000Y0148400D01*
X0266000Y0148400D02*
X0266000Y0153600D01*
X0276000Y0153600D02*
X0276000Y0148400D01*
X0286000Y0148400D02*
X0286000Y0153600D01*
X0296000Y0153600D02*
X0296000Y0148400D01*
X0306000Y0148400D02*
X0306000Y0153600D01*
X0316000Y0153600D02*
X0316000Y0148400D01*
X0326000Y0148400D02*
X0326000Y0153600D01*
X0336000Y0153600D02*
X0336000Y0148400D01*
X0346000Y0148400D02*
X0346000Y0153600D01*
X0356000Y0153600D02*
X0356000Y0148400D01*
X0366000Y0148400D02*
X0366000Y0153600D01*
X0376000Y0153600D02*
X0376000Y0148400D01*
X0386000Y0148400D02*
X0386000Y0153600D01*
X0376000Y0293400D02*
X0376000Y0298600D01*
X0366000Y0298600D02*
X0366000Y0293400D01*
X0356000Y0293400D02*
X0356000Y0298600D01*
X0346000Y0298600D02*
X0346000Y0293400D01*
X0336000Y0293400D02*
X0336000Y0298600D01*
X0326000Y0298600D02*
X0326000Y0293400D01*
X0316000Y0293400D02*
X0316000Y0298600D01*
X0306000Y0298600D02*
X0306000Y0293400D01*
X0296000Y0293400D02*
X0296000Y0298600D01*
X0286000Y0298600D02*
X0286000Y0293400D01*
X0276000Y0293400D02*
X0276000Y0298600D01*
X0266000Y0298600D02*
X0266000Y0293400D01*
X0231000Y0298400D02*
X0231000Y0303600D01*
X0221000Y0303600D02*
X0221000Y0298400D01*
X0211000Y0298400D02*
X0211000Y0303600D01*
X0201000Y0303600D02*
X0201000Y0298400D01*
X0191000Y0298400D02*
X0191000Y0303600D01*
X0181000Y0303600D02*
X0181000Y0298400D01*
X0171000Y0298400D02*
X0171000Y0303600D01*
X0161000Y0303600D02*
X0161000Y0298400D01*
X0151000Y0298400D02*
X0151000Y0303600D01*
X0141000Y0303600D02*
X0141000Y0298400D01*
X0131000Y0298400D02*
X0131000Y0303600D01*
X0121000Y0303600D02*
X0121000Y0298400D01*
X0088600Y0171000D02*
X0083400Y0171000D01*
X0058600Y0171000D02*
X0053400Y0171000D01*
D11*
X0051000Y0191000D03*
X0041000Y0191000D03*
X0031000Y0191000D03*
X0021000Y0191000D03*
X0021000Y0221000D03*
X0031000Y0221000D03*
X0041000Y0221000D03*
X0051000Y0221000D03*
D12*
X0046000Y0236000D03*
X0036000Y0236000D03*
X0021000Y0236000D03*
X0011000Y0236000D03*
X0061000Y0236000D03*
X0071000Y0236000D03*
X0091000Y0221000D03*
X0101000Y0221000D03*
X0076000Y0206000D03*
X0066000Y0206000D03*
X0066000Y0186000D03*
X0076000Y0186000D03*
X0091000Y0191000D03*
X0101000Y0191000D03*
D13*
X0038500Y0158500D03*
X0028559Y0168480D03*
X0013500Y0163500D03*
D14*
X0011000Y0293031D02*
X0011000Y0298969D01*
X0021000Y0298969D02*
X0021000Y0293031D01*
D15*
X0041000Y0291000D03*
X0041000Y0261000D03*
X0101000Y0261000D03*
X0101000Y0291000D03*
D16*
X0065200Y0027400D03*
X0085600Y0025000D03*
X0092800Y0013000D03*
X0106600Y0021400D03*
X0116200Y0025000D03*
X0092800Y0041800D03*
X0082000Y0064000D03*
X0065200Y0066400D03*
X0089800Y0080800D03*
X0085000Y0089200D03*
X0080800Y0106600D03*
X0074800Y0112600D03*
X0059200Y0092800D03*
X0027400Y0077800D03*
X0025600Y0119800D03*
X0037000Y0120400D03*
X0052000Y0136000D03*
X0082000Y0161200D03*
X0095800Y0169000D03*
X0096400Y0173800D03*
X0106600Y0160600D03*
X0116800Y0140200D03*
X0130600Y0130000D03*
X0133000Y0112600D03*
X0131200Y0103000D03*
X0122200Y0106600D03*
X0112600Y0103000D03*
X0116200Y0082600D03*
X0138400Y0060400D03*
X0137200Y0055600D03*
X0151000Y0045400D03*
X0176800Y0039400D03*
X0193000Y0043600D03*
X0201400Y0039400D03*
X0197200Y0050800D03*
X0193000Y0053800D03*
X0218200Y0060400D03*
X0227800Y0056800D03*
X0205600Y0079000D03*
X0210400Y0085000D03*
X0201400Y0089200D03*
X0197200Y0092800D03*
X0176800Y0085600D03*
X0175600Y0107800D03*
X0203200Y0131800D03*
X0188800Y0134800D03*
X0170200Y0134800D03*
X0147400Y0159400D03*
X0130600Y0168400D03*
X0115600Y0189400D03*
X0088600Y0206200D03*
X0091600Y0215200D03*
X0086800Y0194800D03*
X0082000Y0195400D03*
X0078400Y0191200D03*
X0059800Y0181600D03*
X0064600Y0173200D03*
X0043000Y0175000D03*
X0037600Y0175000D03*
X0025000Y0177400D03*
X0013000Y0190600D03*
X0017800Y0156400D03*
X0011800Y0130000D03*
X0009400Y0119800D03*
X0069400Y0215800D03*
X0088600Y0244600D03*
X0104800Y0237400D03*
X0113200Y0235000D03*
X0146800Y0215200D03*
X0166000Y0215800D03*
X0180400Y0205600D03*
X0189400Y0208000D03*
X0205000Y0222400D03*
X0191200Y0229600D03*
X0167800Y0233200D03*
X0174400Y0249400D03*
X0174400Y0254200D03*
X0180400Y0260200D03*
X0185200Y0257800D03*
X0173200Y0267400D03*
X0167200Y0269800D03*
X0177400Y0275200D03*
X0164800Y0286600D03*
X0160600Y0280000D03*
X0151600Y0284800D03*
X0156400Y0295000D03*
X0146200Y0307000D03*
X0166600Y0307000D03*
X0179200Y0290200D03*
X0194800Y0286600D03*
X0221200Y0277000D03*
X0228400Y0260800D03*
X0228400Y0256000D03*
X0235000Y0260800D03*
X0245200Y0263800D03*
X0259600Y0248800D03*
X0263200Y0252400D03*
X0252400Y0238600D03*
X0245200Y0235000D03*
X0254800Y0226600D03*
X0250600Y0217600D03*
X0232600Y0218800D03*
X0218200Y0218800D03*
X0229000Y0230200D03*
X0231400Y0197800D03*
X0221800Y0198400D03*
X0236200Y0181600D03*
X0241000Y0182800D03*
X0227200Y0178600D03*
X0221800Y0172600D03*
X0218200Y0163600D03*
X0233800Y0166000D03*
X0248200Y0166600D03*
X0251800Y0172000D03*
X0261400Y0165400D03*
X0263200Y0176800D03*
X0270400Y0185200D03*
X0275200Y0184600D03*
X0284200Y0188200D03*
X0274000Y0171400D03*
X0285400Y0160600D03*
X0290200Y0161200D03*
X0304000Y0177400D03*
X0304600Y0187000D03*
X0310000Y0187000D03*
X0322000Y0177400D03*
X0325000Y0169000D03*
X0335200Y0165400D03*
X0344800Y0169000D03*
X0347200Y0161200D03*
X0368200Y0172000D03*
X0380200Y0178000D03*
X0380200Y0184000D03*
X0376600Y0187600D03*
X0366400Y0191800D03*
X0350200Y0194800D03*
X0344200Y0186400D03*
X0344200Y0181600D03*
X0329800Y0187000D03*
X0314200Y0171400D03*
X0315400Y0142600D03*
X0342400Y0132400D03*
X0346000Y0136000D03*
X0365800Y0137200D03*
X0378400Y0135400D03*
X0381400Y0139600D03*
X0371200Y0108400D03*
X0380800Y0098200D03*
X0356200Y0084400D03*
X0343600Y0070000D03*
X0332800Y0073600D03*
X0340000Y0080800D03*
X0336400Y0097600D03*
X0334000Y0107800D03*
X0323200Y0104200D03*
X0317800Y0107800D03*
X0307600Y0101800D03*
X0313000Y0096400D03*
X0316600Y0087400D03*
X0306400Y0077200D03*
X0296800Y0062200D03*
X0300400Y0054400D03*
X0300400Y0039400D03*
X0361600Y0050200D03*
X0295000Y0098200D03*
X0268600Y0129400D03*
X0278200Y0142600D03*
X0286000Y0140200D03*
X0251200Y0129400D03*
X0233200Y0113200D03*
X0225400Y0131800D03*
X0170800Y0170200D03*
X0187600Y0178000D03*
X0185800Y0190000D03*
X0246400Y0198400D03*
X0256600Y0188800D03*
X0271600Y0229600D03*
X0308800Y0267400D03*
X0323800Y0267400D03*
X0324400Y0251800D03*
X0337000Y0252400D03*
X0362200Y0267400D03*
X0355000Y0286000D03*
X0319600Y0304000D03*
X0304600Y0307600D03*
X0299800Y0307000D03*
X0288400Y0287800D03*
X0288400Y0271000D03*
X0346600Y0227800D03*
X0341800Y0220000D03*
X0381400Y0248200D03*
X0236200Y0084400D03*
X0166600Y0021400D03*
X0194800Y0017800D03*
X0168400Y0259000D03*
X0162400Y0262600D03*
X0151600Y0266200D03*
X0073000Y0280000D03*
X0067000Y0268600D03*
M02*
