G75*
%MOIN*%
%OFA0B0*%
%FSLAX25Y25*%
%IPPOS*%
%LPD*%
%AMOC8*
5,1,8,0,0,1.08239X$1,22.5*
%
%ADD10C,0.00000*%
%ADD11C,0.00600*%
%ADD12C,0.00700*%
%ADD13C,0.00500*%
%ADD14C,0.01200*%
%ADD15R,0.02000X0.08000*%
%ADD16R,0.02500X0.02000*%
%ADD17C,0.02000*%
%ADD18C,0.00800*%
%ADD19C,0.00400*%
%ADD20C,0.01000*%
%ADD21R,0.80000X0.50000*%
D10*
X0001000Y0001000D02*
X0001000Y0315961D01*
X0394701Y0315961D01*
X0394701Y0001000D01*
X0001000Y0001000D01*
D11*
X0019500Y0051000D02*
X0042500Y0051000D01*
X0042500Y0121000D01*
X0035000Y0121000D01*
X0034998Y0120874D01*
X0034992Y0120749D01*
X0034982Y0120624D01*
X0034968Y0120499D01*
X0034951Y0120374D01*
X0034929Y0120250D01*
X0034904Y0120127D01*
X0034874Y0120005D01*
X0034841Y0119884D01*
X0034804Y0119764D01*
X0034764Y0119645D01*
X0034719Y0119528D01*
X0034671Y0119411D01*
X0034619Y0119297D01*
X0034564Y0119184D01*
X0034505Y0119073D01*
X0034443Y0118964D01*
X0034377Y0118857D01*
X0034308Y0118752D01*
X0034236Y0118649D01*
X0034161Y0118548D01*
X0034082Y0118450D01*
X0034000Y0118355D01*
X0033916Y0118262D01*
X0033828Y0118172D01*
X0033738Y0118084D01*
X0033645Y0118000D01*
X0033550Y0117918D01*
X0033452Y0117839D01*
X0033351Y0117764D01*
X0033248Y0117692D01*
X0033143Y0117623D01*
X0033036Y0117557D01*
X0032927Y0117495D01*
X0032816Y0117436D01*
X0032703Y0117381D01*
X0032589Y0117329D01*
X0032472Y0117281D01*
X0032355Y0117236D01*
X0032236Y0117196D01*
X0032116Y0117159D01*
X0031995Y0117126D01*
X0031873Y0117096D01*
X0031750Y0117071D01*
X0031626Y0117049D01*
X0031501Y0117032D01*
X0031376Y0117018D01*
X0031251Y0117008D01*
X0031126Y0117002D01*
X0031000Y0117000D01*
X0030874Y0117002D01*
X0030749Y0117008D01*
X0030624Y0117018D01*
X0030499Y0117032D01*
X0030374Y0117049D01*
X0030250Y0117071D01*
X0030127Y0117096D01*
X0030005Y0117126D01*
X0029884Y0117159D01*
X0029764Y0117196D01*
X0029645Y0117236D01*
X0029528Y0117281D01*
X0029411Y0117329D01*
X0029297Y0117381D01*
X0029184Y0117436D01*
X0029073Y0117495D01*
X0028964Y0117557D01*
X0028857Y0117623D01*
X0028752Y0117692D01*
X0028649Y0117764D01*
X0028548Y0117839D01*
X0028450Y0117918D01*
X0028355Y0118000D01*
X0028262Y0118084D01*
X0028172Y0118172D01*
X0028084Y0118262D01*
X0028000Y0118355D01*
X0027918Y0118450D01*
X0027839Y0118548D01*
X0027764Y0118649D01*
X0027692Y0118752D01*
X0027623Y0118857D01*
X0027557Y0118964D01*
X0027495Y0119073D01*
X0027436Y0119184D01*
X0027381Y0119297D01*
X0027329Y0119411D01*
X0027281Y0119528D01*
X0027236Y0119645D01*
X0027196Y0119764D01*
X0027159Y0119884D01*
X0027126Y0120005D01*
X0027096Y0120127D01*
X0027071Y0120250D01*
X0027049Y0120374D01*
X0027032Y0120499D01*
X0027018Y0120624D01*
X0027008Y0120749D01*
X0027002Y0120874D01*
X0027000Y0121000D01*
X0019500Y0121000D01*
X0019500Y0051000D01*
X0066000Y0035000D02*
X0386000Y0035000D01*
X0386000Y0117000D01*
X0066000Y0117000D01*
X0066000Y0081000D01*
X0066140Y0080998D01*
X0066280Y0080992D01*
X0066420Y0080982D01*
X0066560Y0080969D01*
X0066699Y0080951D01*
X0066838Y0080929D01*
X0066975Y0080904D01*
X0067113Y0080875D01*
X0067249Y0080842D01*
X0067384Y0080805D01*
X0067518Y0080764D01*
X0067651Y0080719D01*
X0067783Y0080671D01*
X0067913Y0080619D01*
X0068042Y0080564D01*
X0068169Y0080505D01*
X0068295Y0080442D01*
X0068419Y0080376D01*
X0068540Y0080307D01*
X0068660Y0080234D01*
X0068778Y0080157D01*
X0068893Y0080078D01*
X0069007Y0079995D01*
X0069117Y0079909D01*
X0069226Y0079820D01*
X0069332Y0079728D01*
X0069435Y0079633D01*
X0069536Y0079536D01*
X0069633Y0079435D01*
X0069728Y0079332D01*
X0069820Y0079226D01*
X0069909Y0079117D01*
X0069995Y0079007D01*
X0070078Y0078893D01*
X0070157Y0078778D01*
X0070234Y0078660D01*
X0070307Y0078540D01*
X0070376Y0078419D01*
X0070442Y0078295D01*
X0070505Y0078169D01*
X0070564Y0078042D01*
X0070619Y0077913D01*
X0070671Y0077783D01*
X0070719Y0077651D01*
X0070764Y0077518D01*
X0070805Y0077384D01*
X0070842Y0077249D01*
X0070875Y0077113D01*
X0070904Y0076975D01*
X0070929Y0076838D01*
X0070951Y0076699D01*
X0070969Y0076560D01*
X0070982Y0076420D01*
X0070992Y0076280D01*
X0070998Y0076140D01*
X0071000Y0076000D01*
X0070998Y0075860D01*
X0070992Y0075720D01*
X0070982Y0075580D01*
X0070969Y0075440D01*
X0070951Y0075301D01*
X0070929Y0075162D01*
X0070904Y0075025D01*
X0070875Y0074887D01*
X0070842Y0074751D01*
X0070805Y0074616D01*
X0070764Y0074482D01*
X0070719Y0074349D01*
X0070671Y0074217D01*
X0070619Y0074087D01*
X0070564Y0073958D01*
X0070505Y0073831D01*
X0070442Y0073705D01*
X0070376Y0073581D01*
X0070307Y0073460D01*
X0070234Y0073340D01*
X0070157Y0073222D01*
X0070078Y0073107D01*
X0069995Y0072993D01*
X0069909Y0072883D01*
X0069820Y0072774D01*
X0069728Y0072668D01*
X0069633Y0072565D01*
X0069536Y0072464D01*
X0069435Y0072367D01*
X0069332Y0072272D01*
X0069226Y0072180D01*
X0069117Y0072091D01*
X0069007Y0072005D01*
X0068893Y0071922D01*
X0068778Y0071843D01*
X0068660Y0071766D01*
X0068540Y0071693D01*
X0068419Y0071624D01*
X0068295Y0071558D01*
X0068169Y0071495D01*
X0068042Y0071436D01*
X0067913Y0071381D01*
X0067783Y0071329D01*
X0067651Y0071281D01*
X0067518Y0071236D01*
X0067384Y0071195D01*
X0067249Y0071158D01*
X0067113Y0071125D01*
X0066975Y0071096D01*
X0066838Y0071071D01*
X0066699Y0071049D01*
X0066560Y0071031D01*
X0066420Y0071018D01*
X0066280Y0071008D01*
X0066140Y0071002D01*
X0066000Y0071000D01*
X0066000Y0035000D01*
X0101000Y0154500D02*
X0101000Y0162000D01*
X0101126Y0162002D01*
X0101251Y0162008D01*
X0101376Y0162018D01*
X0101501Y0162032D01*
X0101626Y0162049D01*
X0101750Y0162071D01*
X0101873Y0162096D01*
X0101995Y0162126D01*
X0102116Y0162159D01*
X0102236Y0162196D01*
X0102355Y0162236D01*
X0102472Y0162281D01*
X0102589Y0162329D01*
X0102703Y0162381D01*
X0102816Y0162436D01*
X0102927Y0162495D01*
X0103036Y0162557D01*
X0103143Y0162623D01*
X0103248Y0162692D01*
X0103351Y0162764D01*
X0103452Y0162839D01*
X0103550Y0162918D01*
X0103645Y0163000D01*
X0103738Y0163084D01*
X0103828Y0163172D01*
X0103916Y0163262D01*
X0104000Y0163355D01*
X0104082Y0163450D01*
X0104161Y0163548D01*
X0104236Y0163649D01*
X0104308Y0163752D01*
X0104377Y0163857D01*
X0104443Y0163964D01*
X0104505Y0164073D01*
X0104564Y0164184D01*
X0104619Y0164297D01*
X0104671Y0164411D01*
X0104719Y0164528D01*
X0104764Y0164645D01*
X0104804Y0164764D01*
X0104841Y0164884D01*
X0104874Y0165005D01*
X0104904Y0165127D01*
X0104929Y0165250D01*
X0104951Y0165374D01*
X0104968Y0165499D01*
X0104982Y0165624D01*
X0104992Y0165749D01*
X0104998Y0165874D01*
X0105000Y0166000D01*
X0104998Y0166126D01*
X0104992Y0166251D01*
X0104982Y0166376D01*
X0104968Y0166501D01*
X0104951Y0166626D01*
X0104929Y0166750D01*
X0104904Y0166873D01*
X0104874Y0166995D01*
X0104841Y0167116D01*
X0104804Y0167236D01*
X0104764Y0167355D01*
X0104719Y0167472D01*
X0104671Y0167589D01*
X0104619Y0167703D01*
X0104564Y0167816D01*
X0104505Y0167927D01*
X0104443Y0168036D01*
X0104377Y0168143D01*
X0104308Y0168248D01*
X0104236Y0168351D01*
X0104161Y0168452D01*
X0104082Y0168550D01*
X0104000Y0168645D01*
X0103916Y0168738D01*
X0103828Y0168828D01*
X0103738Y0168916D01*
X0103645Y0169000D01*
X0103550Y0169082D01*
X0103452Y0169161D01*
X0103351Y0169236D01*
X0103248Y0169308D01*
X0103143Y0169377D01*
X0103036Y0169443D01*
X0102927Y0169505D01*
X0102816Y0169564D01*
X0102703Y0169619D01*
X0102589Y0169671D01*
X0102472Y0169719D01*
X0102355Y0169764D01*
X0102236Y0169804D01*
X0102116Y0169841D01*
X0101995Y0169874D01*
X0101873Y0169904D01*
X0101750Y0169929D01*
X0101626Y0169951D01*
X0101501Y0169968D01*
X0101376Y0169982D01*
X0101251Y0169992D01*
X0101126Y0169998D01*
X0101000Y0170000D01*
X0101000Y0177500D01*
X0171000Y0177500D01*
X0171000Y0154500D01*
X0101000Y0154500D01*
X0080000Y0168000D02*
X0080000Y0174000D01*
X0079998Y0174060D01*
X0079993Y0174121D01*
X0079984Y0174180D01*
X0079971Y0174239D01*
X0079955Y0174298D01*
X0079935Y0174355D01*
X0079912Y0174410D01*
X0079885Y0174465D01*
X0079856Y0174517D01*
X0079823Y0174568D01*
X0079787Y0174617D01*
X0079749Y0174663D01*
X0079707Y0174707D01*
X0079663Y0174749D01*
X0079617Y0174787D01*
X0079568Y0174823D01*
X0079517Y0174856D01*
X0079465Y0174885D01*
X0079410Y0174912D01*
X0079355Y0174935D01*
X0079298Y0174955D01*
X0079239Y0174971D01*
X0079180Y0174984D01*
X0079121Y0174993D01*
X0079060Y0174998D01*
X0079000Y0175000D01*
X0063000Y0175000D01*
X0062940Y0174998D01*
X0062879Y0174993D01*
X0062820Y0174984D01*
X0062761Y0174971D01*
X0062702Y0174955D01*
X0062645Y0174935D01*
X0062590Y0174912D01*
X0062535Y0174885D01*
X0062483Y0174856D01*
X0062432Y0174823D01*
X0062383Y0174787D01*
X0062337Y0174749D01*
X0062293Y0174707D01*
X0062251Y0174663D01*
X0062213Y0174617D01*
X0062177Y0174568D01*
X0062144Y0174517D01*
X0062115Y0174465D01*
X0062088Y0174410D01*
X0062065Y0174355D01*
X0062045Y0174298D01*
X0062029Y0174239D01*
X0062016Y0174180D01*
X0062007Y0174121D01*
X0062002Y0174060D01*
X0062000Y0174000D01*
X0062000Y0168000D01*
X0062002Y0167940D01*
X0062007Y0167879D01*
X0062016Y0167820D01*
X0062029Y0167761D01*
X0062045Y0167702D01*
X0062065Y0167645D01*
X0062088Y0167590D01*
X0062115Y0167535D01*
X0062144Y0167483D01*
X0062177Y0167432D01*
X0062213Y0167383D01*
X0062251Y0167337D01*
X0062293Y0167293D01*
X0062337Y0167251D01*
X0062383Y0167213D01*
X0062432Y0167177D01*
X0062483Y0167144D01*
X0062535Y0167115D01*
X0062590Y0167088D01*
X0062645Y0167065D01*
X0062702Y0167045D01*
X0062761Y0167029D01*
X0062820Y0167016D01*
X0062879Y0167007D01*
X0062940Y0167002D01*
X0063000Y0167000D01*
X0079000Y0167000D01*
X0079060Y0167002D01*
X0079121Y0167007D01*
X0079180Y0167016D01*
X0079239Y0167029D01*
X0079298Y0167045D01*
X0079355Y0167065D01*
X0079410Y0167088D01*
X0079465Y0167115D01*
X0079517Y0167144D01*
X0079568Y0167177D01*
X0079617Y0167213D01*
X0079663Y0167251D01*
X0079707Y0167293D01*
X0079749Y0167337D01*
X0079787Y0167383D01*
X0079823Y0167432D01*
X0079856Y0167483D01*
X0079885Y0167535D01*
X0079912Y0167590D01*
X0079935Y0167645D01*
X0079955Y0167702D01*
X0079971Y0167761D01*
X0079984Y0167820D01*
X0079993Y0167879D01*
X0079998Y0167940D01*
X0080000Y0168000D01*
X0077000Y0171000D02*
X0071000Y0171000D01*
X0071000Y0168500D01*
X0071000Y0171000D02*
X0071000Y0173500D01*
X0071000Y0171000D02*
X0075000Y0173500D01*
X0075000Y0168500D01*
X0071000Y0171000D01*
X0068500Y0171000D01*
X0056000Y0194500D02*
X0056000Y0217500D01*
X0016000Y0217500D01*
X0016000Y0210000D01*
X0016126Y0209998D01*
X0016251Y0209992D01*
X0016376Y0209982D01*
X0016501Y0209968D01*
X0016626Y0209951D01*
X0016750Y0209929D01*
X0016873Y0209904D01*
X0016995Y0209874D01*
X0017116Y0209841D01*
X0017236Y0209804D01*
X0017355Y0209764D01*
X0017472Y0209719D01*
X0017589Y0209671D01*
X0017703Y0209619D01*
X0017816Y0209564D01*
X0017927Y0209505D01*
X0018036Y0209443D01*
X0018143Y0209377D01*
X0018248Y0209308D01*
X0018351Y0209236D01*
X0018452Y0209161D01*
X0018550Y0209082D01*
X0018645Y0209000D01*
X0018738Y0208916D01*
X0018828Y0208828D01*
X0018916Y0208738D01*
X0019000Y0208645D01*
X0019082Y0208550D01*
X0019161Y0208452D01*
X0019236Y0208351D01*
X0019308Y0208248D01*
X0019377Y0208143D01*
X0019443Y0208036D01*
X0019505Y0207927D01*
X0019564Y0207816D01*
X0019619Y0207703D01*
X0019671Y0207589D01*
X0019719Y0207472D01*
X0019764Y0207355D01*
X0019804Y0207236D01*
X0019841Y0207116D01*
X0019874Y0206995D01*
X0019904Y0206873D01*
X0019929Y0206750D01*
X0019951Y0206626D01*
X0019968Y0206501D01*
X0019982Y0206376D01*
X0019992Y0206251D01*
X0019998Y0206126D01*
X0020000Y0206000D01*
X0019998Y0205874D01*
X0019992Y0205749D01*
X0019982Y0205624D01*
X0019968Y0205499D01*
X0019951Y0205374D01*
X0019929Y0205250D01*
X0019904Y0205127D01*
X0019874Y0205005D01*
X0019841Y0204884D01*
X0019804Y0204764D01*
X0019764Y0204645D01*
X0019719Y0204528D01*
X0019671Y0204411D01*
X0019619Y0204297D01*
X0019564Y0204184D01*
X0019505Y0204073D01*
X0019443Y0203964D01*
X0019377Y0203857D01*
X0019308Y0203752D01*
X0019236Y0203649D01*
X0019161Y0203548D01*
X0019082Y0203450D01*
X0019000Y0203355D01*
X0018916Y0203262D01*
X0018828Y0203172D01*
X0018738Y0203084D01*
X0018645Y0203000D01*
X0018550Y0202918D01*
X0018452Y0202839D01*
X0018351Y0202764D01*
X0018248Y0202692D01*
X0018143Y0202623D01*
X0018036Y0202557D01*
X0017927Y0202495D01*
X0017816Y0202436D01*
X0017703Y0202381D01*
X0017589Y0202329D01*
X0017472Y0202281D01*
X0017355Y0202236D01*
X0017236Y0202196D01*
X0017116Y0202159D01*
X0016995Y0202126D01*
X0016873Y0202096D01*
X0016750Y0202071D01*
X0016626Y0202049D01*
X0016501Y0202032D01*
X0016376Y0202018D01*
X0016251Y0202008D01*
X0016126Y0202002D01*
X0016000Y0202000D01*
X0016000Y0194500D01*
X0056000Y0194500D01*
X0064500Y0201500D02*
X0077500Y0201500D01*
X0077587Y0201502D01*
X0077674Y0201508D01*
X0077761Y0201517D01*
X0077847Y0201530D01*
X0077933Y0201547D01*
X0078018Y0201568D01*
X0078101Y0201593D01*
X0078184Y0201621D01*
X0078265Y0201652D01*
X0078345Y0201687D01*
X0078423Y0201726D01*
X0078500Y0201768D01*
X0078575Y0201813D01*
X0078647Y0201862D01*
X0078718Y0201913D01*
X0078786Y0201968D01*
X0078851Y0202025D01*
X0078914Y0202086D01*
X0078975Y0202149D01*
X0079032Y0202214D01*
X0079087Y0202282D01*
X0079138Y0202353D01*
X0079187Y0202425D01*
X0079232Y0202500D01*
X0079274Y0202577D01*
X0079313Y0202655D01*
X0079348Y0202735D01*
X0079379Y0202816D01*
X0079407Y0202899D01*
X0079432Y0202982D01*
X0079453Y0203067D01*
X0079470Y0203153D01*
X0079483Y0203239D01*
X0079492Y0203326D01*
X0079498Y0203413D01*
X0079500Y0203500D01*
X0079500Y0208500D01*
X0079498Y0208587D01*
X0079492Y0208674D01*
X0079483Y0208761D01*
X0079470Y0208847D01*
X0079453Y0208933D01*
X0079432Y0209018D01*
X0079407Y0209101D01*
X0079379Y0209184D01*
X0079348Y0209265D01*
X0079313Y0209345D01*
X0079274Y0209423D01*
X0079232Y0209500D01*
X0079187Y0209575D01*
X0079138Y0209647D01*
X0079087Y0209718D01*
X0079032Y0209786D01*
X0078975Y0209851D01*
X0078914Y0209914D01*
X0078851Y0209975D01*
X0078786Y0210032D01*
X0078718Y0210087D01*
X0078647Y0210138D01*
X0078575Y0210187D01*
X0078500Y0210232D01*
X0078423Y0210274D01*
X0078345Y0210313D01*
X0078265Y0210348D01*
X0078184Y0210379D01*
X0078101Y0210407D01*
X0078018Y0210432D01*
X0077933Y0210453D01*
X0077847Y0210470D01*
X0077761Y0210483D01*
X0077674Y0210492D01*
X0077587Y0210498D01*
X0077500Y0210500D01*
X0064500Y0210500D01*
X0064413Y0210498D01*
X0064326Y0210492D01*
X0064239Y0210483D01*
X0064153Y0210470D01*
X0064067Y0210453D01*
X0063982Y0210432D01*
X0063899Y0210407D01*
X0063816Y0210379D01*
X0063735Y0210348D01*
X0063655Y0210313D01*
X0063577Y0210274D01*
X0063500Y0210232D01*
X0063425Y0210187D01*
X0063353Y0210138D01*
X0063282Y0210087D01*
X0063214Y0210032D01*
X0063149Y0209975D01*
X0063086Y0209914D01*
X0063025Y0209851D01*
X0062968Y0209786D01*
X0062913Y0209718D01*
X0062862Y0209647D01*
X0062813Y0209575D01*
X0062768Y0209500D01*
X0062726Y0209423D01*
X0062687Y0209345D01*
X0062652Y0209265D01*
X0062621Y0209184D01*
X0062593Y0209101D01*
X0062568Y0209018D01*
X0062547Y0208933D01*
X0062530Y0208847D01*
X0062517Y0208761D01*
X0062508Y0208674D01*
X0062502Y0208587D01*
X0062500Y0208500D01*
X0062500Y0203500D01*
X0062502Y0203413D01*
X0062508Y0203326D01*
X0062517Y0203239D01*
X0062530Y0203153D01*
X0062547Y0203067D01*
X0062568Y0202982D01*
X0062593Y0202899D01*
X0062621Y0202816D01*
X0062652Y0202735D01*
X0062687Y0202655D01*
X0062726Y0202577D01*
X0062768Y0202500D01*
X0062813Y0202425D01*
X0062862Y0202353D01*
X0062913Y0202282D01*
X0062968Y0202214D01*
X0063025Y0202149D01*
X0063086Y0202086D01*
X0063149Y0202025D01*
X0063214Y0201968D01*
X0063282Y0201913D01*
X0063353Y0201862D01*
X0063425Y0201813D01*
X0063500Y0201768D01*
X0063577Y0201726D01*
X0063655Y0201687D01*
X0063735Y0201652D01*
X0063816Y0201621D01*
X0063899Y0201593D01*
X0063982Y0201568D01*
X0064067Y0201547D01*
X0064153Y0201530D01*
X0064239Y0201517D01*
X0064326Y0201508D01*
X0064413Y0201502D01*
X0064500Y0201500D01*
X0059500Y0231500D02*
X0072500Y0231500D01*
X0072587Y0231502D01*
X0072674Y0231508D01*
X0072761Y0231517D01*
X0072847Y0231530D01*
X0072933Y0231547D01*
X0073018Y0231568D01*
X0073101Y0231593D01*
X0073184Y0231621D01*
X0073265Y0231652D01*
X0073345Y0231687D01*
X0073423Y0231726D01*
X0073500Y0231768D01*
X0073575Y0231813D01*
X0073647Y0231862D01*
X0073718Y0231913D01*
X0073786Y0231968D01*
X0073851Y0232025D01*
X0073914Y0232086D01*
X0073975Y0232149D01*
X0074032Y0232214D01*
X0074087Y0232282D01*
X0074138Y0232353D01*
X0074187Y0232425D01*
X0074232Y0232500D01*
X0074274Y0232577D01*
X0074313Y0232655D01*
X0074348Y0232735D01*
X0074379Y0232816D01*
X0074407Y0232899D01*
X0074432Y0232982D01*
X0074453Y0233067D01*
X0074470Y0233153D01*
X0074483Y0233239D01*
X0074492Y0233326D01*
X0074498Y0233413D01*
X0074500Y0233500D01*
X0074500Y0238500D01*
X0074498Y0238587D01*
X0074492Y0238674D01*
X0074483Y0238761D01*
X0074470Y0238847D01*
X0074453Y0238933D01*
X0074432Y0239018D01*
X0074407Y0239101D01*
X0074379Y0239184D01*
X0074348Y0239265D01*
X0074313Y0239345D01*
X0074274Y0239423D01*
X0074232Y0239500D01*
X0074187Y0239575D01*
X0074138Y0239647D01*
X0074087Y0239718D01*
X0074032Y0239786D01*
X0073975Y0239851D01*
X0073914Y0239914D01*
X0073851Y0239975D01*
X0073786Y0240032D01*
X0073718Y0240087D01*
X0073647Y0240138D01*
X0073575Y0240187D01*
X0073500Y0240232D01*
X0073423Y0240274D01*
X0073345Y0240313D01*
X0073265Y0240348D01*
X0073184Y0240379D01*
X0073101Y0240407D01*
X0073018Y0240432D01*
X0072933Y0240453D01*
X0072847Y0240470D01*
X0072761Y0240483D01*
X0072674Y0240492D01*
X0072587Y0240498D01*
X0072500Y0240500D01*
X0059500Y0240500D01*
X0059413Y0240498D01*
X0059326Y0240492D01*
X0059239Y0240483D01*
X0059153Y0240470D01*
X0059067Y0240453D01*
X0058982Y0240432D01*
X0058899Y0240407D01*
X0058816Y0240379D01*
X0058735Y0240348D01*
X0058655Y0240313D01*
X0058577Y0240274D01*
X0058500Y0240232D01*
X0058425Y0240187D01*
X0058353Y0240138D01*
X0058282Y0240087D01*
X0058214Y0240032D01*
X0058149Y0239975D01*
X0058086Y0239914D01*
X0058025Y0239851D01*
X0057968Y0239786D01*
X0057913Y0239718D01*
X0057862Y0239647D01*
X0057813Y0239575D01*
X0057768Y0239500D01*
X0057726Y0239423D01*
X0057687Y0239345D01*
X0057652Y0239265D01*
X0057621Y0239184D01*
X0057593Y0239101D01*
X0057568Y0239018D01*
X0057547Y0238933D01*
X0057530Y0238847D01*
X0057517Y0238761D01*
X0057508Y0238674D01*
X0057502Y0238587D01*
X0057500Y0238500D01*
X0057500Y0233500D01*
X0057502Y0233413D01*
X0057508Y0233326D01*
X0057517Y0233239D01*
X0057530Y0233153D01*
X0057547Y0233067D01*
X0057568Y0232982D01*
X0057593Y0232899D01*
X0057621Y0232816D01*
X0057652Y0232735D01*
X0057687Y0232655D01*
X0057726Y0232577D01*
X0057768Y0232500D01*
X0057813Y0232425D01*
X0057862Y0232353D01*
X0057913Y0232282D01*
X0057968Y0232214D01*
X0058025Y0232149D01*
X0058086Y0232086D01*
X0058149Y0232025D01*
X0058214Y0231968D01*
X0058282Y0231913D01*
X0058353Y0231862D01*
X0058425Y0231813D01*
X0058500Y0231768D01*
X0058577Y0231726D01*
X0058655Y0231687D01*
X0058735Y0231652D01*
X0058816Y0231621D01*
X0058899Y0231593D01*
X0058982Y0231568D01*
X0059067Y0231547D01*
X0059153Y0231530D01*
X0059239Y0231517D01*
X0059326Y0231508D01*
X0059413Y0231502D01*
X0059500Y0231500D01*
X0049500Y0233500D02*
X0049500Y0238500D01*
X0049498Y0238587D01*
X0049492Y0238674D01*
X0049483Y0238761D01*
X0049470Y0238847D01*
X0049453Y0238933D01*
X0049432Y0239018D01*
X0049407Y0239101D01*
X0049379Y0239184D01*
X0049348Y0239265D01*
X0049313Y0239345D01*
X0049274Y0239423D01*
X0049232Y0239500D01*
X0049187Y0239575D01*
X0049138Y0239647D01*
X0049087Y0239718D01*
X0049032Y0239786D01*
X0048975Y0239851D01*
X0048914Y0239914D01*
X0048851Y0239975D01*
X0048786Y0240032D01*
X0048718Y0240087D01*
X0048647Y0240138D01*
X0048575Y0240187D01*
X0048500Y0240232D01*
X0048423Y0240274D01*
X0048345Y0240313D01*
X0048265Y0240348D01*
X0048184Y0240379D01*
X0048101Y0240407D01*
X0048018Y0240432D01*
X0047933Y0240453D01*
X0047847Y0240470D01*
X0047761Y0240483D01*
X0047674Y0240492D01*
X0047587Y0240498D01*
X0047500Y0240500D01*
X0034500Y0240500D01*
X0034413Y0240498D01*
X0034326Y0240492D01*
X0034239Y0240483D01*
X0034153Y0240470D01*
X0034067Y0240453D01*
X0033982Y0240432D01*
X0033899Y0240407D01*
X0033816Y0240379D01*
X0033735Y0240348D01*
X0033655Y0240313D01*
X0033577Y0240274D01*
X0033500Y0240232D01*
X0033425Y0240187D01*
X0033353Y0240138D01*
X0033282Y0240087D01*
X0033214Y0240032D01*
X0033149Y0239975D01*
X0033086Y0239914D01*
X0033025Y0239851D01*
X0032968Y0239786D01*
X0032913Y0239718D01*
X0032862Y0239647D01*
X0032813Y0239575D01*
X0032768Y0239500D01*
X0032726Y0239423D01*
X0032687Y0239345D01*
X0032652Y0239265D01*
X0032621Y0239184D01*
X0032593Y0239101D01*
X0032568Y0239018D01*
X0032547Y0238933D01*
X0032530Y0238847D01*
X0032517Y0238761D01*
X0032508Y0238674D01*
X0032502Y0238587D01*
X0032500Y0238500D01*
X0032500Y0233500D01*
X0032502Y0233413D01*
X0032508Y0233326D01*
X0032517Y0233239D01*
X0032530Y0233153D01*
X0032547Y0233067D01*
X0032568Y0232982D01*
X0032593Y0232899D01*
X0032621Y0232816D01*
X0032652Y0232735D01*
X0032687Y0232655D01*
X0032726Y0232577D01*
X0032768Y0232500D01*
X0032813Y0232425D01*
X0032862Y0232353D01*
X0032913Y0232282D01*
X0032968Y0232214D01*
X0033025Y0232149D01*
X0033086Y0232086D01*
X0033149Y0232025D01*
X0033214Y0231968D01*
X0033282Y0231913D01*
X0033353Y0231862D01*
X0033425Y0231813D01*
X0033500Y0231768D01*
X0033577Y0231726D01*
X0033655Y0231687D01*
X0033735Y0231652D01*
X0033816Y0231621D01*
X0033899Y0231593D01*
X0033982Y0231568D01*
X0034067Y0231547D01*
X0034153Y0231530D01*
X0034239Y0231517D01*
X0034326Y0231508D01*
X0034413Y0231502D01*
X0034500Y0231500D01*
X0047500Y0231500D01*
X0047587Y0231502D01*
X0047674Y0231508D01*
X0047761Y0231517D01*
X0047847Y0231530D01*
X0047933Y0231547D01*
X0048018Y0231568D01*
X0048101Y0231593D01*
X0048184Y0231621D01*
X0048265Y0231652D01*
X0048345Y0231687D01*
X0048423Y0231726D01*
X0048500Y0231768D01*
X0048575Y0231813D01*
X0048647Y0231862D01*
X0048718Y0231913D01*
X0048786Y0231968D01*
X0048851Y0232025D01*
X0048914Y0232086D01*
X0048975Y0232149D01*
X0049032Y0232214D01*
X0049087Y0232282D01*
X0049138Y0232353D01*
X0049187Y0232425D01*
X0049232Y0232500D01*
X0049274Y0232577D01*
X0049313Y0232655D01*
X0049348Y0232735D01*
X0049379Y0232816D01*
X0049407Y0232899D01*
X0049432Y0232982D01*
X0049453Y0233067D01*
X0049470Y0233153D01*
X0049483Y0233239D01*
X0049492Y0233326D01*
X0049498Y0233413D01*
X0049500Y0233500D01*
X0116000Y0222500D02*
X0116000Y0215000D01*
X0116126Y0214998D01*
X0116251Y0214992D01*
X0116376Y0214982D01*
X0116501Y0214968D01*
X0116626Y0214951D01*
X0116750Y0214929D01*
X0116873Y0214904D01*
X0116995Y0214874D01*
X0117116Y0214841D01*
X0117236Y0214804D01*
X0117355Y0214764D01*
X0117472Y0214719D01*
X0117589Y0214671D01*
X0117703Y0214619D01*
X0117816Y0214564D01*
X0117927Y0214505D01*
X0118036Y0214443D01*
X0118143Y0214377D01*
X0118248Y0214308D01*
X0118351Y0214236D01*
X0118452Y0214161D01*
X0118550Y0214082D01*
X0118645Y0214000D01*
X0118738Y0213916D01*
X0118828Y0213828D01*
X0118916Y0213738D01*
X0119000Y0213645D01*
X0119082Y0213550D01*
X0119161Y0213452D01*
X0119236Y0213351D01*
X0119308Y0213248D01*
X0119377Y0213143D01*
X0119443Y0213036D01*
X0119505Y0212927D01*
X0119564Y0212816D01*
X0119619Y0212703D01*
X0119671Y0212589D01*
X0119719Y0212472D01*
X0119764Y0212355D01*
X0119804Y0212236D01*
X0119841Y0212116D01*
X0119874Y0211995D01*
X0119904Y0211873D01*
X0119929Y0211750D01*
X0119951Y0211626D01*
X0119968Y0211501D01*
X0119982Y0211376D01*
X0119992Y0211251D01*
X0119998Y0211126D01*
X0120000Y0211000D01*
X0119998Y0210874D01*
X0119992Y0210749D01*
X0119982Y0210624D01*
X0119968Y0210499D01*
X0119951Y0210374D01*
X0119929Y0210250D01*
X0119904Y0210127D01*
X0119874Y0210005D01*
X0119841Y0209884D01*
X0119804Y0209764D01*
X0119764Y0209645D01*
X0119719Y0209528D01*
X0119671Y0209411D01*
X0119619Y0209297D01*
X0119564Y0209184D01*
X0119505Y0209073D01*
X0119443Y0208964D01*
X0119377Y0208857D01*
X0119308Y0208752D01*
X0119236Y0208649D01*
X0119161Y0208548D01*
X0119082Y0208450D01*
X0119000Y0208355D01*
X0118916Y0208262D01*
X0118828Y0208172D01*
X0118738Y0208084D01*
X0118645Y0208000D01*
X0118550Y0207918D01*
X0118452Y0207839D01*
X0118351Y0207764D01*
X0118248Y0207692D01*
X0118143Y0207623D01*
X0118036Y0207557D01*
X0117927Y0207495D01*
X0117816Y0207436D01*
X0117703Y0207381D01*
X0117589Y0207329D01*
X0117472Y0207281D01*
X0117355Y0207236D01*
X0117236Y0207196D01*
X0117116Y0207159D01*
X0116995Y0207126D01*
X0116873Y0207096D01*
X0116750Y0207071D01*
X0116626Y0207049D01*
X0116501Y0207032D01*
X0116376Y0207018D01*
X0116251Y0207008D01*
X0116126Y0207002D01*
X0116000Y0207000D01*
X0116000Y0199500D01*
X0186000Y0199500D01*
X0186000Y0222500D01*
X0116000Y0222500D01*
X0116000Y0244500D02*
X0236000Y0244500D01*
X0236000Y0297500D01*
X0116000Y0297500D01*
X0116000Y0275000D01*
X0116126Y0274998D01*
X0116251Y0274992D01*
X0116376Y0274982D01*
X0116501Y0274968D01*
X0116626Y0274951D01*
X0116750Y0274929D01*
X0116873Y0274904D01*
X0116995Y0274874D01*
X0117116Y0274841D01*
X0117236Y0274804D01*
X0117355Y0274764D01*
X0117472Y0274719D01*
X0117589Y0274671D01*
X0117703Y0274619D01*
X0117816Y0274564D01*
X0117927Y0274505D01*
X0118036Y0274443D01*
X0118143Y0274377D01*
X0118248Y0274308D01*
X0118351Y0274236D01*
X0118452Y0274161D01*
X0118550Y0274082D01*
X0118645Y0274000D01*
X0118738Y0273916D01*
X0118828Y0273828D01*
X0118916Y0273738D01*
X0119000Y0273645D01*
X0119082Y0273550D01*
X0119161Y0273452D01*
X0119236Y0273351D01*
X0119308Y0273248D01*
X0119377Y0273143D01*
X0119443Y0273036D01*
X0119505Y0272927D01*
X0119564Y0272816D01*
X0119619Y0272703D01*
X0119671Y0272589D01*
X0119719Y0272472D01*
X0119764Y0272355D01*
X0119804Y0272236D01*
X0119841Y0272116D01*
X0119874Y0271995D01*
X0119904Y0271873D01*
X0119929Y0271750D01*
X0119951Y0271626D01*
X0119968Y0271501D01*
X0119982Y0271376D01*
X0119992Y0271251D01*
X0119998Y0271126D01*
X0120000Y0271000D01*
X0119998Y0270874D01*
X0119992Y0270749D01*
X0119982Y0270624D01*
X0119968Y0270499D01*
X0119951Y0270374D01*
X0119929Y0270250D01*
X0119904Y0270127D01*
X0119874Y0270005D01*
X0119841Y0269884D01*
X0119804Y0269764D01*
X0119764Y0269645D01*
X0119719Y0269528D01*
X0119671Y0269411D01*
X0119619Y0269297D01*
X0119564Y0269184D01*
X0119505Y0269073D01*
X0119443Y0268964D01*
X0119377Y0268857D01*
X0119308Y0268752D01*
X0119236Y0268649D01*
X0119161Y0268548D01*
X0119082Y0268450D01*
X0119000Y0268355D01*
X0118916Y0268262D01*
X0118828Y0268172D01*
X0118738Y0268084D01*
X0118645Y0268000D01*
X0118550Y0267918D01*
X0118452Y0267839D01*
X0118351Y0267764D01*
X0118248Y0267692D01*
X0118143Y0267623D01*
X0118036Y0267557D01*
X0117927Y0267495D01*
X0117816Y0267436D01*
X0117703Y0267381D01*
X0117589Y0267329D01*
X0117472Y0267281D01*
X0117355Y0267236D01*
X0117236Y0267196D01*
X0117116Y0267159D01*
X0116995Y0267126D01*
X0116873Y0267096D01*
X0116750Y0267071D01*
X0116626Y0267049D01*
X0116501Y0267032D01*
X0116376Y0267018D01*
X0116251Y0267008D01*
X0116126Y0267002D01*
X0116000Y0267000D01*
X0116000Y0244500D01*
X0182295Y0203621D02*
X0182295Y0200418D01*
X0188700Y0200418D01*
X0188700Y0203621D01*
X0187632Y0204689D01*
X0183362Y0204689D01*
X0182295Y0203621D01*
X0183362Y0198243D02*
X0182295Y0197176D01*
X0182295Y0193973D01*
X0188700Y0193973D01*
X0188700Y0197176D01*
X0187632Y0198243D01*
X0183362Y0198243D01*
X0183362Y0191798D02*
X0182295Y0190730D01*
X0182295Y0188595D01*
X0183362Y0187527D01*
X0187632Y0187527D01*
X0188700Y0188595D01*
X0188700Y0190730D01*
X0187632Y0191798D01*
X0183362Y0191798D01*
X0189768Y0185352D02*
X0189768Y0181082D01*
X0191000Y0184500D02*
X0191126Y0184498D01*
X0191251Y0184492D01*
X0191376Y0184482D01*
X0191501Y0184468D01*
X0191626Y0184451D01*
X0191750Y0184429D01*
X0191873Y0184404D01*
X0191995Y0184374D01*
X0192116Y0184341D01*
X0192236Y0184304D01*
X0192355Y0184264D01*
X0192472Y0184219D01*
X0192589Y0184171D01*
X0192703Y0184119D01*
X0192816Y0184064D01*
X0192927Y0184005D01*
X0193036Y0183943D01*
X0193143Y0183877D01*
X0193248Y0183808D01*
X0193351Y0183736D01*
X0193452Y0183661D01*
X0193550Y0183582D01*
X0193645Y0183500D01*
X0193738Y0183416D01*
X0193828Y0183328D01*
X0193916Y0183238D01*
X0194000Y0183145D01*
X0194082Y0183050D01*
X0194161Y0182952D01*
X0194236Y0182851D01*
X0194308Y0182748D01*
X0194377Y0182643D01*
X0194443Y0182536D01*
X0194505Y0182427D01*
X0194564Y0182316D01*
X0194619Y0182203D01*
X0194671Y0182089D01*
X0194719Y0181972D01*
X0194764Y0181855D01*
X0194804Y0181736D01*
X0194841Y0181616D01*
X0194874Y0181495D01*
X0194904Y0181373D01*
X0194929Y0181250D01*
X0194951Y0181126D01*
X0194968Y0181001D01*
X0194982Y0180876D01*
X0194992Y0180751D01*
X0194998Y0180626D01*
X0195000Y0180500D01*
X0194998Y0180374D01*
X0194992Y0180249D01*
X0194982Y0180124D01*
X0194968Y0179999D01*
X0194951Y0179874D01*
X0194929Y0179750D01*
X0194904Y0179627D01*
X0194874Y0179505D01*
X0194841Y0179384D01*
X0194804Y0179264D01*
X0194764Y0179145D01*
X0194719Y0179028D01*
X0194671Y0178911D01*
X0194619Y0178797D01*
X0194564Y0178684D01*
X0194505Y0178573D01*
X0194443Y0178464D01*
X0194377Y0178357D01*
X0194308Y0178252D01*
X0194236Y0178149D01*
X0194161Y0178048D01*
X0194082Y0177950D01*
X0194000Y0177855D01*
X0193916Y0177762D01*
X0193828Y0177672D01*
X0193738Y0177584D01*
X0193645Y0177500D01*
X0193550Y0177418D01*
X0193452Y0177339D01*
X0193351Y0177264D01*
X0193248Y0177192D01*
X0193143Y0177123D01*
X0193036Y0177057D01*
X0192927Y0176995D01*
X0192816Y0176936D01*
X0192703Y0176881D01*
X0192589Y0176829D01*
X0192472Y0176781D01*
X0192355Y0176736D01*
X0192236Y0176696D01*
X0192116Y0176659D01*
X0191995Y0176626D01*
X0191873Y0176596D01*
X0191750Y0176571D01*
X0191626Y0176549D01*
X0191501Y0176532D01*
X0191376Y0176518D01*
X0191251Y0176508D01*
X0191126Y0176502D01*
X0191000Y0176500D01*
X0191000Y0154500D01*
X0391000Y0154500D01*
X0391000Y0207500D01*
X0191000Y0207500D01*
X0191000Y0184500D01*
X0188700Y0178907D02*
X0188700Y0174636D01*
X0188700Y0176772D02*
X0182295Y0176772D01*
X0184430Y0174636D01*
X0184430Y0172461D02*
X0183362Y0172461D01*
X0182295Y0171394D01*
X0182295Y0169259D01*
X0183362Y0168191D01*
X0183362Y0166016D02*
X0184430Y0166016D01*
X0185497Y0164948D01*
X0185497Y0162813D01*
X0184430Y0161745D01*
X0183362Y0161745D01*
X0182295Y0162813D01*
X0182295Y0164948D01*
X0183362Y0166016D01*
X0185497Y0164948D02*
X0186565Y0166016D01*
X0187632Y0166016D01*
X0188700Y0164948D01*
X0188700Y0162813D01*
X0187632Y0161745D01*
X0186565Y0161745D01*
X0185497Y0162813D01*
X0186565Y0159570D02*
X0185497Y0158503D01*
X0185497Y0155300D01*
X0187632Y0155300D01*
X0188700Y0156368D01*
X0188700Y0158503D01*
X0187632Y0159570D01*
X0186565Y0159570D01*
X0183362Y0157435D02*
X0185497Y0155300D01*
X0183362Y0157435D02*
X0182295Y0159570D01*
X0188700Y0168191D02*
X0184430Y0172461D01*
X0188700Y0172461D02*
X0188700Y0168191D01*
X0261000Y0239500D02*
X0381000Y0239500D01*
X0381000Y0292500D01*
X0261000Y0292500D01*
X0261000Y0270000D01*
X0261126Y0269998D01*
X0261251Y0269992D01*
X0261376Y0269982D01*
X0261501Y0269968D01*
X0261626Y0269951D01*
X0261750Y0269929D01*
X0261873Y0269904D01*
X0261995Y0269874D01*
X0262116Y0269841D01*
X0262236Y0269804D01*
X0262355Y0269764D01*
X0262472Y0269719D01*
X0262589Y0269671D01*
X0262703Y0269619D01*
X0262816Y0269564D01*
X0262927Y0269505D01*
X0263036Y0269443D01*
X0263143Y0269377D01*
X0263248Y0269308D01*
X0263351Y0269236D01*
X0263452Y0269161D01*
X0263550Y0269082D01*
X0263645Y0269000D01*
X0263738Y0268916D01*
X0263828Y0268828D01*
X0263916Y0268738D01*
X0264000Y0268645D01*
X0264082Y0268550D01*
X0264161Y0268452D01*
X0264236Y0268351D01*
X0264308Y0268248D01*
X0264377Y0268143D01*
X0264443Y0268036D01*
X0264505Y0267927D01*
X0264564Y0267816D01*
X0264619Y0267703D01*
X0264671Y0267589D01*
X0264719Y0267472D01*
X0264764Y0267355D01*
X0264804Y0267236D01*
X0264841Y0267116D01*
X0264874Y0266995D01*
X0264904Y0266873D01*
X0264929Y0266750D01*
X0264951Y0266626D01*
X0264968Y0266501D01*
X0264982Y0266376D01*
X0264992Y0266251D01*
X0264998Y0266126D01*
X0265000Y0266000D01*
X0264998Y0265874D01*
X0264992Y0265749D01*
X0264982Y0265624D01*
X0264968Y0265499D01*
X0264951Y0265374D01*
X0264929Y0265250D01*
X0264904Y0265127D01*
X0264874Y0265005D01*
X0264841Y0264884D01*
X0264804Y0264764D01*
X0264764Y0264645D01*
X0264719Y0264528D01*
X0264671Y0264411D01*
X0264619Y0264297D01*
X0264564Y0264184D01*
X0264505Y0264073D01*
X0264443Y0263964D01*
X0264377Y0263857D01*
X0264308Y0263752D01*
X0264236Y0263649D01*
X0264161Y0263548D01*
X0264082Y0263450D01*
X0264000Y0263355D01*
X0263916Y0263262D01*
X0263828Y0263172D01*
X0263738Y0263084D01*
X0263645Y0263000D01*
X0263550Y0262918D01*
X0263452Y0262839D01*
X0263351Y0262764D01*
X0263248Y0262692D01*
X0263143Y0262623D01*
X0263036Y0262557D01*
X0262927Y0262495D01*
X0262816Y0262436D01*
X0262703Y0262381D01*
X0262589Y0262329D01*
X0262472Y0262281D01*
X0262355Y0262236D01*
X0262236Y0262196D01*
X0262116Y0262159D01*
X0261995Y0262126D01*
X0261873Y0262096D01*
X0261750Y0262071D01*
X0261626Y0262049D01*
X0261501Y0262032D01*
X0261376Y0262018D01*
X0261251Y0262008D01*
X0261126Y0262002D01*
X0261000Y0262000D01*
X0261000Y0239500D01*
D12*
X0259650Y0239850D02*
X0255446Y0244054D01*
X0254396Y0244054D01*
X0253345Y0243003D01*
X0253345Y0240901D01*
X0254396Y0239850D01*
X0259650Y0239850D02*
X0259650Y0244054D01*
X0259650Y0246295D02*
X0258599Y0246295D01*
X0254396Y0250499D01*
X0253345Y0250499D01*
X0253345Y0246295D01*
X0254396Y0252741D02*
X0253345Y0253792D01*
X0253345Y0255894D01*
X0254396Y0256945D01*
X0255446Y0256945D01*
X0256497Y0255894D01*
X0257548Y0256945D01*
X0258599Y0256945D01*
X0259650Y0255894D01*
X0259650Y0253792D01*
X0258599Y0252741D01*
X0256497Y0254843D02*
X0256497Y0255894D01*
X0254396Y0259186D02*
X0253345Y0260237D01*
X0253345Y0262339D01*
X0254396Y0263390D01*
X0255446Y0263390D01*
X0259650Y0259186D01*
X0259650Y0263390D01*
X0260701Y0265632D02*
X0260701Y0269836D01*
X0258599Y0272077D02*
X0259650Y0273128D01*
X0259650Y0275230D01*
X0258599Y0276281D01*
X0254396Y0276281D01*
X0253345Y0275230D01*
X0253345Y0273128D01*
X0254396Y0272077D01*
X0258599Y0272077D01*
X0259650Y0278523D02*
X0253345Y0278523D01*
X0253345Y0281676D01*
X0254396Y0282727D01*
X0258599Y0282727D01*
X0259650Y0281676D01*
X0259650Y0278523D01*
X0259650Y0284968D02*
X0253345Y0284968D01*
X0253345Y0288121D01*
X0254396Y0289172D01*
X0258599Y0289172D01*
X0259650Y0288121D01*
X0259650Y0284968D01*
X0115701Y0274836D02*
X0115701Y0270632D01*
X0114650Y0268390D02*
X0114650Y0264186D01*
X0110446Y0268390D01*
X0109396Y0268390D01*
X0108345Y0267339D01*
X0108345Y0265237D01*
X0109396Y0264186D01*
X0109396Y0261945D02*
X0110446Y0261945D01*
X0111497Y0260894D01*
X0112548Y0261945D01*
X0113599Y0261945D01*
X0114650Y0260894D01*
X0114650Y0258792D01*
X0113599Y0257741D01*
X0111497Y0259843D02*
X0111497Y0260894D01*
X0109396Y0261945D02*
X0108345Y0260894D01*
X0108345Y0258792D01*
X0109396Y0257741D01*
X0109396Y0255499D02*
X0113599Y0251295D01*
X0114650Y0251295D01*
X0114650Y0249054D02*
X0114650Y0244850D01*
X0110446Y0249054D01*
X0109396Y0249054D01*
X0108345Y0248003D01*
X0108345Y0245901D01*
X0109396Y0244850D01*
X0108345Y0251295D02*
X0108345Y0255499D01*
X0109396Y0255499D01*
X0108345Y0277077D02*
X0114650Y0277077D01*
X0114650Y0281281D01*
X0112548Y0283523D02*
X0108345Y0283523D01*
X0108345Y0281281D02*
X0108345Y0277077D01*
X0111497Y0277077D02*
X0111497Y0279179D01*
X0112548Y0283523D02*
X0114650Y0285625D01*
X0112548Y0287727D01*
X0108345Y0287727D01*
X0108345Y0289968D02*
X0114650Y0289968D01*
X0114650Y0294172D01*
X0114650Y0296414D02*
X0108345Y0296414D01*
X0114650Y0300618D01*
X0108345Y0300618D01*
X0108345Y0294172D02*
X0108345Y0289968D01*
X0111497Y0289968D02*
X0111497Y0292070D01*
X0062099Y0079227D02*
X0057896Y0079227D01*
X0062099Y0075023D01*
X0063150Y0076074D01*
X0063150Y0078176D01*
X0062099Y0079227D01*
X0057896Y0079227D02*
X0056845Y0078176D01*
X0056845Y0076074D01*
X0057896Y0075023D01*
X0062099Y0075023D01*
X0062099Y0072781D02*
X0057896Y0072781D01*
X0062099Y0068577D01*
X0063150Y0069628D01*
X0063150Y0071730D01*
X0062099Y0072781D01*
X0057896Y0072781D02*
X0056845Y0071730D01*
X0056845Y0069628D01*
X0057896Y0068577D01*
X0062099Y0068577D01*
X0062099Y0066336D02*
X0057896Y0066336D01*
X0062099Y0062132D01*
X0063150Y0063183D01*
X0063150Y0065285D01*
X0062099Y0066336D01*
X0057896Y0066336D02*
X0056845Y0065285D01*
X0056845Y0063183D01*
X0057896Y0062132D01*
X0062099Y0062132D01*
X0062099Y0059890D02*
X0063150Y0058839D01*
X0063150Y0056737D01*
X0062099Y0055686D01*
X0061048Y0055686D01*
X0059997Y0056737D01*
X0059997Y0058839D01*
X0061048Y0059890D01*
X0062099Y0059890D01*
X0059997Y0058839D02*
X0058946Y0059890D01*
X0057896Y0059890D01*
X0056845Y0058839D01*
X0056845Y0056737D01*
X0057896Y0055686D01*
X0058946Y0055686D01*
X0059997Y0056737D01*
X0061048Y0053445D02*
X0059997Y0052394D01*
X0059997Y0049241D01*
X0062099Y0049241D01*
X0063150Y0050292D01*
X0063150Y0052394D01*
X0062099Y0053445D01*
X0061048Y0053445D01*
X0057896Y0051343D02*
X0059997Y0049241D01*
X0057896Y0051343D02*
X0056845Y0053445D01*
X0057896Y0046999D02*
X0056845Y0045948D01*
X0056845Y0043846D01*
X0057896Y0042795D01*
X0062099Y0042795D01*
X0063150Y0043846D01*
X0063150Y0045948D01*
X0062099Y0046999D01*
X0063150Y0040554D02*
X0056845Y0040554D01*
X0058946Y0038452D01*
X0056845Y0036350D01*
X0063150Y0036350D01*
D13*
X0029926Y0122750D02*
X0026923Y0122750D01*
X0028424Y0122750D02*
X0028424Y0127254D01*
X0026923Y0125753D01*
X0025322Y0126503D02*
X0024571Y0127254D01*
X0023070Y0127254D01*
X0022319Y0126503D01*
X0022319Y0123501D01*
X0023070Y0122750D01*
X0024571Y0122750D01*
X0025322Y0123501D01*
X0020751Y0122750D02*
X0019250Y0122750D01*
X0020001Y0122750D02*
X0020001Y0127254D01*
X0020751Y0127254D02*
X0019250Y0127254D01*
X0062250Y0176250D02*
X0064502Y0176250D01*
X0065253Y0177001D01*
X0065253Y0180003D01*
X0064502Y0180754D01*
X0062250Y0180754D01*
X0062250Y0176250D01*
X0066854Y0176250D02*
X0069856Y0176250D01*
X0068355Y0176250D02*
X0068355Y0180754D01*
X0066854Y0179253D01*
X0065853Y0190850D02*
X0064351Y0192351D01*
X0065102Y0192351D02*
X0062850Y0192351D01*
X0062850Y0190850D02*
X0062850Y0195354D01*
X0065102Y0195354D01*
X0065853Y0194603D01*
X0065853Y0193102D01*
X0065102Y0192351D01*
X0065751Y0211750D02*
X0067253Y0213251D01*
X0067253Y0216254D01*
X0068854Y0215503D02*
X0068854Y0212501D01*
X0069605Y0211750D01*
X0071106Y0211750D01*
X0071856Y0212501D01*
X0071856Y0215503D02*
X0071106Y0216254D01*
X0069605Y0216254D01*
X0068854Y0215503D01*
X0064250Y0216254D02*
X0064250Y0213251D01*
X0065751Y0211750D01*
X0087850Y0200354D02*
X0087850Y0195850D01*
X0087850Y0197351D02*
X0090102Y0197351D01*
X0090853Y0198102D01*
X0090853Y0199603D01*
X0090102Y0200354D01*
X0087850Y0200354D01*
X0089351Y0197351D02*
X0090853Y0195850D01*
X0092454Y0195850D02*
X0095456Y0198853D01*
X0095456Y0199603D01*
X0094706Y0200354D01*
X0093205Y0200354D01*
X0092454Y0199603D01*
X0092454Y0195850D02*
X0095456Y0195850D01*
X0109746Y0199250D02*
X0109746Y0200751D01*
X0109746Y0200001D02*
X0114250Y0200001D01*
X0114250Y0200751D02*
X0114250Y0199250D01*
X0113499Y0202319D02*
X0110497Y0202319D01*
X0109746Y0203070D01*
X0109746Y0204571D01*
X0110497Y0205322D01*
X0110497Y0206923D02*
X0109746Y0207674D01*
X0109746Y0209175D01*
X0110497Y0209926D01*
X0111247Y0209926D01*
X0111998Y0209175D01*
X0112749Y0209926D01*
X0113499Y0209926D01*
X0114250Y0209175D01*
X0114250Y0207674D01*
X0113499Y0206923D01*
X0113499Y0205322D02*
X0114250Y0204571D01*
X0114250Y0203070D01*
X0113499Y0202319D01*
X0111998Y0208424D02*
X0111998Y0209175D01*
X0094706Y0225850D02*
X0093205Y0225850D01*
X0092454Y0226601D01*
X0090853Y0225850D02*
X0089351Y0227351D01*
X0090102Y0227351D02*
X0087850Y0227351D01*
X0087850Y0225850D02*
X0087850Y0230354D01*
X0090102Y0230354D01*
X0090853Y0229603D01*
X0090853Y0228102D01*
X0090102Y0227351D01*
X0092454Y0229603D02*
X0093205Y0230354D01*
X0094706Y0230354D01*
X0095456Y0229603D01*
X0095456Y0228853D01*
X0094706Y0228102D01*
X0095456Y0227351D01*
X0095456Y0226601D01*
X0094706Y0225850D01*
X0094706Y0228102D02*
X0093955Y0228102D01*
X0066856Y0241750D02*
X0063854Y0241750D01*
X0066856Y0244753D01*
X0066856Y0245503D01*
X0066106Y0246254D01*
X0064605Y0246254D01*
X0063854Y0245503D01*
X0062253Y0245503D02*
X0061502Y0246254D01*
X0060001Y0246254D01*
X0059250Y0245503D01*
X0059250Y0242501D01*
X0060001Y0241750D01*
X0061502Y0241750D01*
X0062253Y0242501D01*
X0037253Y0242501D02*
X0036502Y0241750D01*
X0035001Y0241750D01*
X0034250Y0242501D01*
X0034250Y0245503D01*
X0035001Y0246254D01*
X0036502Y0246254D01*
X0037253Y0245503D01*
X0015456Y0243853D02*
X0015456Y0240850D01*
X0015456Y0243102D02*
X0012454Y0243102D01*
X0012454Y0243853D02*
X0013955Y0245354D01*
X0015456Y0243853D01*
X0012454Y0243853D02*
X0012454Y0240850D01*
X0010853Y0240850D02*
X0009351Y0242351D01*
X0010102Y0242351D02*
X0007850Y0242351D01*
X0007850Y0240850D02*
X0007850Y0245354D01*
X0010102Y0245354D01*
X0010853Y0244603D01*
X0010853Y0243102D01*
X0010102Y0242351D01*
X0010997Y0228445D02*
X0012498Y0228445D01*
X0013249Y0227695D01*
X0013249Y0225443D01*
X0014750Y0225443D02*
X0010246Y0225443D01*
X0010246Y0227695D01*
X0010997Y0228445D01*
X0013249Y0226944D02*
X0014750Y0228445D01*
X0014750Y0223841D02*
X0014750Y0220839D01*
X0010246Y0220839D01*
X0010246Y0223841D01*
X0012498Y0222340D02*
X0012498Y0220839D01*
X0010246Y0219238D02*
X0014750Y0219238D01*
X0014750Y0216235D02*
X0010246Y0216235D01*
X0011747Y0217736D01*
X0010246Y0219238D01*
X0010246Y0214667D02*
X0010246Y0213166D01*
X0010246Y0213916D02*
X0014750Y0213916D01*
X0014750Y0213166D02*
X0014750Y0214667D01*
X0014750Y0210063D02*
X0010246Y0210063D01*
X0010246Y0208562D02*
X0010246Y0211564D01*
X0010246Y0206960D02*
X0010246Y0203958D01*
X0012498Y0203958D01*
X0011747Y0205459D01*
X0011747Y0206210D01*
X0012498Y0206960D01*
X0013999Y0206960D01*
X0014750Y0206210D01*
X0014750Y0204708D01*
X0013999Y0203958D01*
X0013999Y0202356D02*
X0014750Y0201606D01*
X0014750Y0200105D01*
X0013999Y0199354D01*
X0012498Y0199354D02*
X0011747Y0200855D01*
X0011747Y0201606D01*
X0012498Y0202356D01*
X0013999Y0202356D01*
X0012498Y0199354D02*
X0010246Y0199354D01*
X0010246Y0202356D01*
X0010246Y0197753D02*
X0010246Y0194750D01*
X0012498Y0194750D01*
X0011747Y0196251D01*
X0011747Y0197002D01*
X0012498Y0197753D01*
X0013999Y0197753D01*
X0014750Y0197002D01*
X0014750Y0195501D01*
X0013999Y0194750D01*
X0094746Y0164175D02*
X0094746Y0162674D01*
X0095497Y0161923D01*
X0095497Y0160322D02*
X0094746Y0159571D01*
X0094746Y0158070D01*
X0095497Y0157319D01*
X0098499Y0157319D01*
X0099250Y0158070D01*
X0099250Y0159571D01*
X0098499Y0160322D01*
X0099250Y0161923D02*
X0096247Y0164926D01*
X0095497Y0164926D01*
X0094746Y0164175D01*
X0099250Y0164926D02*
X0099250Y0161923D01*
X0099250Y0155751D02*
X0099250Y0154250D01*
X0099250Y0155001D02*
X0094746Y0155001D01*
X0094746Y0155751D02*
X0094746Y0154250D01*
D14*
X0072300Y0203000D02*
X0072300Y0209000D01*
X0069800Y0209000D02*
X0069800Y0203000D01*
X0067300Y0233000D02*
X0067300Y0239000D01*
X0064800Y0239000D02*
X0064800Y0233000D01*
X0042300Y0233000D02*
X0042300Y0239000D01*
X0039800Y0239000D02*
X0039800Y0233000D01*
D15*
X0064500Y0171000D03*
D16*
X0060750Y0171000D03*
X0081250Y0171000D03*
D17*
X0071500Y0186000D02*
X0070500Y0186000D01*
X0095500Y0191000D02*
X0096500Y0191000D01*
X0096500Y0221000D02*
X0095500Y0221000D01*
X0016500Y0236000D02*
X0015500Y0236000D01*
D18*
X0008677Y0180094D02*
X0006906Y0178323D01*
X0006906Y0143677D01*
X0008677Y0141906D01*
X0043323Y0141906D01*
X0045094Y0143677D01*
X0045094Y0178323D01*
X0043323Y0180094D01*
X0008677Y0180094D01*
X0011433Y0177339D02*
X0009661Y0175567D01*
X0009661Y0146433D01*
X0011433Y0144661D01*
X0040567Y0144661D01*
X0042339Y0146433D01*
X0042339Y0175567D01*
X0040567Y0177339D01*
X0011433Y0177339D01*
D19*
X0011200Y0175804D02*
X0013502Y0175804D01*
X0014269Y0175037D01*
X0014269Y0173502D01*
X0013502Y0172735D01*
X0011200Y0172735D01*
X0012735Y0172735D02*
X0014269Y0171200D01*
X0015804Y0171200D02*
X0018873Y0171200D01*
X0020408Y0171967D02*
X0021175Y0171200D01*
X0022710Y0171200D01*
X0023477Y0171967D01*
X0023477Y0172735D01*
X0022710Y0173502D01*
X0021175Y0173502D01*
X0020408Y0174269D01*
X0020408Y0175037D01*
X0021175Y0175804D01*
X0022710Y0175804D01*
X0023477Y0175037D01*
X0025012Y0175804D02*
X0025012Y0171200D01*
X0028081Y0171200D01*
X0026546Y0173502D02*
X0025012Y0173502D01*
X0025012Y0175804D02*
X0028081Y0175804D01*
X0029616Y0175804D02*
X0032685Y0175804D01*
X0031150Y0175804D02*
X0031150Y0171200D01*
X0034220Y0170433D02*
X0037289Y0170433D01*
X0038824Y0171967D02*
X0039591Y0171200D01*
X0041126Y0171200D01*
X0041893Y0171967D01*
X0041893Y0172735D01*
X0041126Y0173502D01*
X0039591Y0173502D01*
X0038824Y0174269D01*
X0038824Y0175037D01*
X0039591Y0175804D01*
X0041126Y0175804D01*
X0041893Y0175037D01*
X0043427Y0175804D02*
X0043427Y0171200D01*
X0044962Y0172735D01*
X0046497Y0171200D01*
X0046497Y0175804D01*
X0048031Y0175804D02*
X0049566Y0175804D01*
X0048799Y0175804D02*
X0048799Y0171200D01*
X0049566Y0171200D02*
X0048031Y0171200D01*
X0052635Y0171200D02*
X0052635Y0175804D01*
X0051101Y0175804D02*
X0054170Y0175804D01*
X0055705Y0175037D02*
X0055705Y0171967D01*
X0056472Y0171200D01*
X0058007Y0171200D01*
X0058774Y0171967D01*
X0060309Y0171200D02*
X0060309Y0175804D01*
X0058774Y0175037D02*
X0058007Y0175804D01*
X0056472Y0175804D01*
X0055705Y0175037D01*
X0060309Y0173502D02*
X0063378Y0173502D01*
X0063378Y0175804D02*
X0063378Y0171200D01*
X0018873Y0175804D02*
X0015804Y0175804D01*
X0015804Y0171200D01*
X0015804Y0173502D02*
X0017339Y0173502D01*
X0011200Y0171200D02*
X0011200Y0175804D01*
X0011084Y0311200D02*
X0011084Y0314803D01*
X0009883Y0313602D01*
X0008602Y0314803D02*
X0006200Y0311200D01*
X0008602Y0311200D02*
X0006200Y0314803D01*
X0009883Y0311200D02*
X0012285Y0311200D01*
D20*
X0006000Y0308500D02*
X0006000Y0301000D01*
X0026000Y0301000D01*
X0026000Y0283500D01*
X0006000Y0283500D01*
X0006000Y0301000D01*
X0006000Y0308500D02*
X0026000Y0308500D01*
X0026000Y0301000D01*
D21*
X0071000Y0276000D03*
M02*
